<?xml version="1.0" encoding="UTF-8"?>
<svg id="Calque_1" data-name="Calque 1" xmlns="http://www.w3.org/2000/svg" viewBox="0 0 150 150">
  <defs>
    <style>
      .cls-1 {
        fill: #5a7d80;
      }

      .cls-2 {
        fill: #eb8b8b;
      }

      .cls-3 {
        fill: #01545e;
      }

      .cls-4 {
        fill: #c7c7c6;
        opacity: .5;
      }

      .cls-5 {
        fill: #fed164;
      }

      .cls-6 {
        fill: #a0b0b3;
      }

      .cls-7 {
        fill: #fff;
      }

      .cls-8 {
        fill: #00535d;
      }

      .cls-9 {
        fill: #78ba4c;
      }

      .cls-10 {
        fill: #99c33e;
      }

      .cls-11 {
        fill: #37a491;
      }

      .cls-12 {
        fill: #02555e;
      }
    </style>
  </defs>
  <g>
    <path class="cls-8" d="M64.35,142.18l-1.12,2.33c-.24.51-.85.72-1.36.48l-11.75-5.62c-.51-.24-.72-.85-.48-1.36l3.04-6.35c.48-.93,5.46-11.21,5.84-12.04l10.94,5.23-6.31,13.19c1.6,1.01,1.81,2.75,1.2,4.13Z"/>
    <path class="cls-8" d="M103.44,141l.52,2.53c.11.55-.24,1.09-.8,1.21l-12.76,2.62c-.55.11-1.09-.24-1.21-.8l-1.42-6.89c-.18-1.03-2.42-12.23-2.62-13.12l11.88-2.44,2.94,14.32c1.89-.16,3.1,1.1,3.45,2.57Z"/>
  </g>
  <path class="cls-8" d="M53.91,135.22c.01.91-.05,1.94-.08,2.99v-2.99h.08Z"/>
  <g>
    <g>
      <path class="cls-9" d="M89.71,62.31c-2.29-.15-4.58-.31-6.87-.46,2.45-2.96,3.21-7.44,2.66-11.19-.21-1.39-.75-3.16-1.53-4.33,1.12.07,2.23.15,3.35.23.16.01.34-.07.4-.07.02,0,.14.1.3.12.76.06,1.89.02,2.59.17.77.17,1.56,1.65,1.84,2.34,1.66,4.07.73,10.27-2.74,13.19Z"/>
      <path class="cls-5" d="M97.26,47.23c.88.06,2.28.03,3.07.21,1.97.44,2.65,5.2,2.64,6.85-.02,3-1.01,7.02-3.63,8.76-.03,0-.06,0-.09,0-.08-.15-.33-.11-.48-.12-1.77-.14-3.54-.23-5.31-.35,2.3-3.13,3.09-7.28,2.56-11.1-.19-1.36-.69-3.26-1.44-4.41l2.68.18Z"/>
      <path class="cls-3" d="M94.58,47.05c.75,1.15,1.25,3.05,1.44,4.41.52,3.82-.27,7.97-2.56,11.1l-3.75-.25c3.46-2.92,4.4-9.11,2.74-13.19-.28-.69-1.07-2.17-1.84-2.34-.7-.16-1.83-.11-2.59-.17-.16-.01-.28-.11-.3-.12,1.88-2.49,5.24-1.96,6.86.55Z"/>
      <path class="cls-12" d="M103,63.2c-1.19-.07-2.44-.07-3.66-.16,2.62-1.74,3.61-5.76,3.63-8.76.01-1.64-.67-6.4-2.64-6.85-.79-.18-2.2-.15-3.07-.21,1.89-2.51,4.95-2.21,6.7.32,1.91,2.75,2.03,7.11,1.36,10.29-.41,1.95-1.19,3.74-2.32,5.37Z"/>
      <path class="cls-8" d="M64.03,45.01c.78,1.17,1.33,2.94,1.53,4.33.55,3.74-.21,8.22-2.66,11.19-2.2-.14-4.4-.34-6.6-.44-.03,0-.06,0-.09,0-2.22-4.02-2.25-10-.06-14.04,1.83-3.37,5.46-4.66,7.88-1.03Z"/>
      <path class="cls-2" d="M69.77,60.98c-2.29-.15-4.58-.31-6.87-.46,2.45-2.96,3.21-7.44,2.66-11.19-.21-1.39-.75-3.16-1.53-4.33,1.12.07,2.23.15,3.35.23.16.01.34-.07.4-.07.02,0,.14.1.3.12.76.06,1.89.02,2.59.17.77.17,1.56,1.65,1.84,2.34,1.66,4.07.73,10.27-2.74,13.19Z"/>
      <path class="cls-11" d="M77.32,45.89c.88.06,2.28.03,3.07.21,1.97.44,2.65,5.2,2.64,6.85-.02,3-1.01,7.02-3.63,8.76-.03,0-.06,0-.09,0-.08-.15-.33-.11-.48-.12-1.77-.14-3.54-.23-5.31-.35,2.3-3.13,3.09-7.28,2.56-11.1-.19-1.36-.69-3.26-1.44-4.41l2.68.18Z"/>
      <path class="cls-3" d="M74.65,45.72c.75,1.15,1.25,3.05,1.44,4.41.52,3.82-.27,7.97-2.56,11.1l-3.75-.25c3.46-2.92,4.4-9.11,2.74-13.19-.28-.69-1.07-2.17-1.84-2.34-.7-.16-1.83-.11-2.59-.17-.16-.01-.28-.11-.3-.12,1.88-2.49,5.24-1.96,6.86.55Z"/>
      <path class="cls-12" d="M83.07,61.87c-1.19-.07-2.44-.07-3.66-.16,2.62-1.74,3.61-5.76,3.63-8.76.01-1.64-.67-6.4-2.64-6.85-.79-.18-2.2-.15-3.07-.21,1.89-2.51,4.95-2.21,6.7.32,1.91,2.75,2.03,7.11,1.36,10.29-.41,1.95-1.19,3.74-2.32,5.37Z"/>
      <g>
        <path class="cls-1" d="M76.31,61.38l-4.74,70.98c-.6,0-2.41-.08-4.79-.21h0c-3.19-.18-7.42-.44-11.06-.68l-1.24-.08c-3.17-.21-5.73-.4-6.47-.47-3.64-.35-6.13-1.41-8.32-4.42-2.3-3.17-2.14-6.46-1.73-10.21l1.78-26.65,1.39-20.9c1.6-6.53,6.19-9.13,12.65-8.86l17.99,1.2s.03,0,.04,0t.02,0l4.5.3Z"/>
        <path class="cls-1" d="M86.47,62.19c-.12-.22-.47-.16-.68-.17-2.5-.19-5.01-.33-7.52-.5l-5.31-.35c-.92-.06-1.84-.12-2.76-.19,5.45.49,10.94,1.12,16.26,1.22Z"/>
      </g>
      <rect class="cls-6" x="64.85" y="62.35" width="50.46" height="71.34" rx="4.97" ry="4.97" transform="translate(6.74 -5.79) rotate(3.82)"/>
      <rect class="cls-8" x="64.23" y="76.38" width="53.64" height="42.26" rx="2.4" ry="2.4" transform="translate(194.42 13.17) rotate(93.82)"/>
      <g id="IHzMNH">
        <path class="cls-8" d="M49.85,98.28c-1.15,2.39-3.54,3.63-6.7,2.34-4.91-2.02-9.87-5.12-14.8-7.22-3-1.73-3.64-4.33-2.5-6.83,1.14-2.51,4.07-3.46,7.15-2.12,4.53,2.49,9.77,4.43,14.23,6.95,3.02,1.71,3.83,4.37,2.62,6.89Z"/>
      </g>
      <rect class="cls-10" x="86.62" y="86.02" width="4.84" height="21.34" rx="2.05" ry="2.05" transform="translate(6.64 -5.72) rotate(3.82)"/>
      <rect class="cls-10" x="98.37" y="86.8" width="4.84" height="21.34" rx="2.05" ry="2.05" transform="translate(6.72 -6.5) rotate(3.82)"/>
      <path class="cls-7" d="M111.54,77.9l.05-1.6c.03-.97-.7-1.78-1.67-1.84l-19.41-1.3c-.11,0-.22,0-.32,0,9.97,1.09,17.96,2.87,21.35,4.73Z"/>
      <path class="cls-4" d="M63.34,41.3h33.29c5.47,0,9.91,4.44,9.91,9.91v10.35h-53.11v-10.35c0-5.47,4.44-9.91,9.91-9.91Z" transform="translate(3.61 -5.22) rotate(3.82)"/>
      <rect class="cls-8" x="53.02" y="53.77" width="17.43" height="6.59" transform="translate(3.94 -3.99) rotate(3.82)"/>
      <rect class="cls-1" x="70.39" y="55.54" width="35.68" height="6.59" transform="translate(4.12 -5.75) rotate(3.82)"/>
      <path class="cls-8" d="M116.23,69.04l-16.01-1.07c-.51-.03-.92-.43-.95-.91l-.55-8.12c-.04-.59.47-1.07,1.08-1.03l16.01,1.07c.51.03.92.43.95.91l.55,8.12c.04.59-.47,1.07-1.08,1.03Z"/>
      <path class="cls-1" d="M101.02,67.38c-.16-.01-.3-.14-.31-.31l-.5-8.12c0-.13.06-.21.1-.25.04-.04.12-.1.25-.09l15.3,1.02c.16.01.3.14.31.31l.5,8.12c0,.13-.06.21-.1.25-.04.04-.12.1-.25.09l-15.3-1.02Z"/>
    </g>
    <path class="cls-7" d="M105.07,53.02s-.84-8.65-7.98-9.12l-33.82-2.26c4.72.32,5.71,4.23,5.39,8.95,0,0,.76-4.3.3-6.47-.11-.53.32-1.02.86-.98l25.15,1.68c4.68.31,8.72,3.48,10.04,7.98.02.07.04.14.06.22Z"/>
  </g>
  <g id="IHzMNH-2" data-name="IHzMNH">
    <path class="cls-8" d="M49.85,98.28c-1.15,2.39-3.54,3.63-6.7,2.34-4.91-2.02-9.87-5.12-14.8-7.22-3-1.73-3.64-4.33-2.5-6.83,1.14-2.51,4.07-3.46,7.15-2.12,4.53,2.49,9.77,4.43,14.23,6.95,3.02,1.71,3.83,4.37,2.62,6.89Z"/>
  </g>
</svg>