<?xml version="1.0" encoding="UTF-8"?>
<svg id="Calque_1" data-name="Calque 1" xmlns="http://www.w3.org/2000/svg" viewBox="0 0 150 150">
  <defs>
    <style>
      .cls-1 {
        fill: #b4bbbc;
      }

      .cls-2 {
        fill: #a0b0b3;
      }

      .cls-3 {
        fill: #fff;
      }

      .cls-4 {
        fill: #6e888e;
      }

      .cls-5 {
        fill: #5c7e81;
      }

      .cls-6 {
        fill: #1b5a63;
      }

      .cls-7 {
        opacity: .2;
      }

      .cls-8 {
        fill: #6d878d;
      }

      .cls-9 {
        fill: #34545c;
      }

      .cls-10 {
        fill: #f3f4f6;
      }

      .cls-11 {
        fill: #e2e2e2;
      }

      .cls-12 {
        fill: #dbdbdb;
      }

      .cls-13 {
        fill: #30525a;
      }

      .cls-14 {
        fill: #05545d;
      }

      .cls-15 {
        fill: #fdfdfd;
      }
    </style>
  </defs>
  <g class="cls-7">
    <path class="cls-3" d="M113.91,70.38l-.02-.61c-.01-.37-.31-.65-.68-.65h-7.37s-.08,0-.12.01c3.79.16,6.86.63,8.19,1.25Z"/>
  </g>
  <g class="cls-7">
    <path class="cls-3" d="M91.4,70.38l.02-.61c.01-.37.29-.65.63-.65h6.8s.08,0,.11.01c-3.5.16-6.33.63-7.55,1.25Z"/>
  </g>
  <g class="cls-7">
    <path class="cls-12" d="M113.45,68.16c.85.3,1.52,1.01,1.57,1.98l.29,6.12c.01.26,0,.55.01.82l.15,3.37.08,2.09.53,13.95-17.32.05.64-26.31c.02-.91.76-1.85,1.64-2.07h12.4Z"/>
    <path class="cls-12" d="M150,75.17c-.29-.39-.73-.67-1.26-.67h-9.93c-.64.24-1.31.8-1.33,1.61l-.55,21.86h13.07v-22.8ZM149.45,76.33c-1.71-.65-3.83-.84-5.62-.94l-1.03-.09h6.08c.32-.01.55.24.56.54,0,.17.03.31,0,.49Z"/>
    <path class="cls-2" d="M95.58,104.29c.21-.27.34-.61.33-1.01v-6.74s2.85-.01,2.85-.01l.64-26.3c.02-.91.76-1.85,1.64-2.07h-7.68c-.68,0-1.7.96-1.76,2.05l-.35,6.79s.02.08.02.12c1.05.87.93,2.16.9,3.33,0,.16.04.33.02.49l3.01.02c.18,0,.33.11.35.29l.33,2.51c.03.2-.11.36-.31.36h-5.03c-.57,0-.3-1.17-.55-1.58l-8.53.03c-.78,0-1.37.74-1.37,1.51v19.2c0,.4.12.74.33,1.01h15.16ZM81.67,85.87c0-.44.35-.75.78-.75h11.71c.46,0,.76.34.76.8v15.27c0,.39-.23.64-.62.75h-11.98c-.38,0-.66-.39-.66-.75v-15.32Z"/>
    <path class="cls-2" d="M115.56,104.29c.2-.24.33-.53.34-.88l.25-6.56c0-.15-.03-.26-.06-.35l-17.32.05v7.75s16.78,0,16.78,0ZM111.24,97.73h2.33c.52,0,.88.39.88.9v4.17c0,.47-.3.85-.8.9h-2.42c-.45,0-.84-.37-.84-.84v-4.24c0-.49.36-.89.84-.89Z"/>
    <path class="cls-5" d="M16.16,83.58h-.18c-.26.02-.52,0-.78,0-.61.02-1.21-.03-1.81-.02h-.84s-2.04.02-2.04.02h-.77s-1.81,0-1.81,0h-.84s-.68.01-.68.01v1.8s-4.78,0-4.78,0c-.32,0-.67.11-1,.2-.23.06-.44.16-.63.27v18.42h5.83c-.13-.18-.21-.39-.21-.64v-17c0-.61.55-1.23,1.16-1.23h7.5s-.13-1.11-.13-1.11c-.02-.15.1-.29.24-.29l1.78-.02c.03-.14-.02-.29-.01-.43Z"/>
    <path class="cls-9" d="M93.37,68.16c-.68,0-1.7.96-1.76,2.05l-.35,6.79c-.35-.22-.65-.54-1.07-.61l-.02-.07.32-6.13c.05-.98.69-1.69,1.53-2.04h1.35Z"/>
    <path class="cls-12" d="M38.3,85.1l.49,12.84-14.33.03.54-21.76c.02-.85.63-1.44,1.32-1.72h9.94c1,0,1.65.92,1.69,1.83l.37,8.77ZM36.98,76.33c.06-.51-.04-1.05-.54-1.05h-6.21s1.15.1,1.15.1c1.77.11,3.95.3,5.59.95Z"/>
    <path class="cls-12" d="M75.53,78.78c-.12.53.12,1.14.09,1.67-.04.7.04,1.4.06,2.09l.61,15.42-14.34.02.55-21.85c.02-.81.68-1.38,1.33-1.62h9.93c.97,0,1.62.91,1.66,1.78l.11,2.49ZM74.47,76.33c.03-.18,0-.32,0-.49,0-.3-.24-.55-.56-.55h-6.08s1.03.1,1.03.1c1.79.1,3.9.29,5.62.94Z"/>
    <path class="cls-2" d="M61.96,104.29h13.95c.13-.18.21-.4.22-.64l.16-5.7-14.34.02s0,0,0,.01v6.3ZM71.57,99.66c0-.39.31-.7.7-.7h1.98c.38.03.68.31.68.7v3.5c0,.38-.27.73-.68.73h-1.95c-.42,0-.73-.31-.73-.73v-3.5Z"/>
    <path class="cls-2" d="M56.86,104.29c.15-.21.24-.46.24-.76v-5.55s4.58,0,4.58,0c.1,0,.2-.12.27,0l.55-21.85c.02-.81.68-1.38,1.33-1.62h-5.95c-.18,0-.3.02-.43.04-.43.07-.84.33-1.04.72l5.72.03-1.03.09c-1.27.04-4,.37-5.07.9l-.34,7.3c.34.11,1.05-.16,1.11.28l.3,2.23c.02.16-.09.32-.26.32h-4.48c-.11,0-.33-.1-.33-.21.01-.42-.11-.79-.17-1.16h-7.67c-.65.01-1.15.71-1.15,1.32v17.16c0,.3.09.56.24.77h13.58ZM44.44,87.67c.21-.31.53-.37.92-.37h10.18c.4,0,.7.3.7.71v13.52c0,.45-.29.75-.7.75h-10.42c-.42,0-.68-.32-.68-.72v-13.89Z"/>
    <path class="cls-2" d="M38.42,104.29c.15-.25.24-.54.25-.88l.13-5.46-14.32.03v6.31h13.95ZM34.79,98.96h1.94c.39,0,.7.31.7.7v3.5c0,.4-.28.74-.71.74h-1.88c-.43,0-.74-.28-.77-.7v-3.52c0-.4.33-.72.72-.72Z"/>
    <path class="cls-2" d="M5.83,104.29h13.34c.15-.22.24-.47.24-.77v-5.54s5.05,0,5.05,0l.54-21.75c.02-.85.63-1.44,1.32-1.72l-6.21-.02c-.5,0-.96.42-1.22.79l5.71.03c-.36.08-.68.04-1.03.07-1.56.13-3.65.31-5.05.92l-.33,7.72c.4.08.86-.14.92.31l.28,2.17c.02.15-.11.28-.27.28h-4.42c-.15,0-.25-.13-.27-.26l-.16-1.09h-7.5c-.61.01-1.16.63-1.16,1.24v17c0,.25.08.46.21.64ZM7.65,87.64h10.23c.42,0,.66.34.66.73v13.3c0,.36-.25.61-.63.65H7.64c-.36,0-.67-.28-.67-.65v-13.36c0-.38.29-.67.67-.67Z"/>
    <path class="cls-5" d="M38.66,103.41c0,.34-.09.63-.25.88h4.86c-.15-.21-.25-.47-.25-.77v-17.16c0-.61.5-1.31,1.15-1.31h7.67c-.05-.36-.03-.72-.11-1.1-.04-.2.13-.34.3-.34.62,0,1.2.02,1.78-.02l-.02-.43-.18-.02c-.25-.03-.52,0-.78.01-.63.02-1.26.02-1.89,0-.27,0-.54.05-.81,0h-2.09s-.77,0-.77,0h-1.86c-.28,0-.57-.01-.85,0l-.69.03-.03,1.85h-4.86c-.22,0-.45.07-.67.09l.49,12.84-.13,5.46Z"/>
    <path class="cls-9" d="M57.44,74.55c-.43.07-.84.33-1.04.72-.27.03-.51.23-.53.53l-.03.52c.06,0,.11-.01.17-.04l-.34,7.3c.34.11,1.05-.16,1.11.28l.3,2.23c.02.16-.09.32-.26.32h-4.48c-.11,0-.33-.1-.33-.21.01-.42-.11-.79-.17-1.16-.05-.35-.03-.71-.11-1.09-.04-.2.13-.34.3-.34.62,0,1.2.02,1.78-.02.29-.02.6.06.92,0l.37-7.37c.04-.7.47-1.34,1.09-1.59.41-.17.87-.15,1.25-.07ZM56.92,86.2l-.32-2.41h-4.46s.32,2.44.32,2.44l4.46-.03Z"/>
    <path class="cls-11" d="M90.16,76.32l.02.07c.05.14-.04.32-.03.48-.41-.19-.86-.22-1.34-.22h-10.13c.62.06,1.01.42,1.26.91.06.23-.95.07-1.14.14l-.31-.3c-.42-.4-1.01-.43-1.49-.1-.93.65-1.13,2.14-1.07,3.15-.11,0-.21.02-.32,0,.03-.53-.21-1.14-.09-1.67.36-1.38,1.39-2.59,2.92-2.59l10.85-.03c.33,0,.58.13.86.17Z"/>
    <path class="cls-14" d="M39.33,83.15h3.12s1.41.02,1.41.02l-.03,1.85h-4.86s.02-1.86.02-1.86c.11.01.23,0,.34,0Z"/>
    <path class="cls-11" d="M53.79,83.15l-.18-.02c.02-.74-.06-1.48-.39-2.15-.22-.43-.51-.61-.88-.78s-.67-.44-1.17-.44h-9.39c.49.1.99.33,1.12.82.02.2-.83.06-1.01.12-.44-.49-1.03-.81-1.66-.33-.79.61-.95,1.88-.9,2.77-.11,0-.23.02-.34,0v-1.15c0-1.51,1.27-2.68,2.8-2.68h9.26c1.48,0,2.65,1.15,2.75,2.59.03.44-.02.84,0,1.24Z"/>
    <path class="cls-9" d="M20.11,74.49c-.5,0-.96.42-1.22.79-.57,0-.55.9-.5,1,.02.04.07.03.13,0l-.33,7.72c-.32.03-.64.02-.95,0l.39-7.9c.04-.79.66-1.44,1.37-1.58.41-.08.75,0,1.11-.04Z"/>
    <path class="cls-14" d="M1.99,83.57h3.06s1.36.03,1.36.03v1.8s-4.78,0-4.78,0l.02-1.81c.11.02.23-.01.34-.01Z"/>
    <path class="cls-11" d="M16.16,83.58h-.18c.03-.72-.06-1.46-.37-2.12-.21-.44-.51-.57-.86-.76-.44-.24-.78-.45-1.35-.45l-8.97.03c.52.07.84.36,1.05.77-.04.08-.13.12-.24.12l-.79-.03c-.23-.37-.75-.58-1.15-.49-1.13.26-1.43,2.02-1.32,2.92-.11,0-.23.03-.34.01v-1.23c0-1.32,1.16-2.51,2.55-2.51h9.39c1.39,0,2.47,1.17,2.57,2.49.03.45.01.83,0,1.24Z"/>
    <path class="cls-6" d="M16.17,84h1.06c.32.02.64.03.95,0,.4.08.87-.14.92.31l.28,2.17c.02.15-.11.28-.27.28h-4.42c-.15,0-.25-.13-.27-.26l-.16-1.09-.13-1.1c-.02-.15.1-.29.24-.29l1.78-.02ZM19.22,86.59l-.3-2.38h-4.36s.3,2.39.3,2.39h4.36Z"/>
    <path class="cls-5" d="M116.09,96.49c.03.1.07.2.06.35l-.25,6.56c-.01.35-.14.64-.34.88h2.35c-.21-.27-.34-.61-.34-1.01v-19.2c0-.74.59-1.51,1.35-1.51l8.58-.04-.14-1.23c-.02-.17.11-.33.27-.33l2.08-.04c.02-.16-.01-.32-.02-.47-.08.01-.16-.01-.24,0-.29,0-.57.02-.86-.01-.71.03-1.42.02-2.14,0-.31,0-.62.04-.93,0h-2.33s-.86,0-.86,0h-2.14c-.31,0-.61.03-.92,0-.26-.02-.53.02-.8.02v2.08s-2.94,0-2.94,0l.53,13.95Z"/>
    <path class="cls-11" d="M129.71,80.46c-.08.01-.16-.01-.24,0,.05-.82-.06-1.65-.41-2.4-.24-.51-.58-.71-1-.92-.47-.23-.82-.5-1.42-.5h-10.43c.53.11,1.06.4,1.24.92.01.21-.96.07-1.17.13-.19-.33-.62-.54-.96-.61-.01-.27,0-.55-.01-.82.21-.02.41-.11.67-.11l10.79.03c1.74,0,2.9,1.61,2.92,3.26v1.02Z"/>
    <polygon class="cls-14" points="116.94 80.45 118.49 80.47 118.5 82.55 115.55 82.54 115.47 80.45 116.94 80.45"/>
    <path class="cls-8" d="M116.28,77.69c.53.91.64,1.72.66,2.76h-1.47s-.15-3.37-.15-3.37c.34.08.77.28.96.61Z"/>
    <path class="cls-2" d="M150,97.96h-13.07s.55-21.85.55-21.85c.02-.81.69-1.37,1.33-1.61l-6.26-.02c-.47,0-.95.43-1.17.78l5.66.03-1.03.09c-1.28.06-3.93.37-5.01.9l-.23,4.65c.67.07,1.3,0,1.95.03.16,0,.3.11.32.27l.34,2.53c.02.17-.11.35-.29.35h-5.09c-.14,0-.27-.11-.29-.24l-.2-1.34-8.58.04c-.77,0-1.35.77-1.35,1.51v19.2c0,.4.12.74.33,1.01h15.15c.2-.25.33-.57.34-.94v-5.37s3.54,0,3.54,0v6.32h13.06v-6.32ZM131.77,101.94h-11.99c-.32-.08-.62-.32-.62-.68v-15.45c0-.39.38-.67.74-.67h11.77c.4,0,.73.33.73.74v15.33c0,.39-.24.66-.64.75ZM149.23,103.9h-1.95c-.42,0-.73-.32-.73-.74v-3.5c0-.39.32-.7.7-.7h1.98c.37.03.68.31.68.7v3.5c0,.39-.27.71-.68.74Z"/>
    <path class="cls-3" d="M149.45,76.33c-1.71-.65-3.83-.84-5.62-.94l-1.03-.09h6.08c.32-.01.55.24.56.54,0,.17.03.31,0,.49Z"/>
    <path class="cls-9" d="M132.55,74.49c-.47,0-.95.43-1.17.78-.29.04-.51.26-.53.58l-.02.48c.06,0,.11-.01.17-.04l-.23,4.65c-.29.07-.6.04-.92,0-.02-.31-.02-.63.04-.97l.18-3.74c.02-.44.21-.83.48-1.15.6-.72,1.26-.53,2-.58Z"/>
    <path class="cls-6" d="M129.72,80.93c.07,0,.1,0,.13,0,.32.04.63.08.92,0,.67.07,1.3,0,1.95.03.16,0,.3.11.32.27l.34,2.53c.02.17-.11.35-.29.35h-5.09c-.14,0-.27-.11-.29-.24l-.2-1.34-.14-1.23c-.02-.17.11-.33.27-.33l2.08-.04ZM133.19,83.9l-.36-2.73-5,.02.35,2.73h5.02Z"/>
    <path class="cls-14" d="M94.31,101.94h-11.98c-.38,0-.66-.39-.66-.75v-15.32c0-.44.35-.75.78-.75h11.71c.46,0,.76.34.76.8v15.27c0,.39-.23.64-.62.75ZM94.27,86.96c.05-.27.02-.43-.02-.62-.05-.26-.3-.42-.58-.42h-6.15s1.05.1,1.05.1c1.78.08,4.03.3,5.69.94Z"/>
    <path class="cls-5" d="M76.14,103.65c0,.24-.09.45-.22.64h4.51c-.21-.27-.34-.61-.34-1.01v-19.2c0-.76.61-1.51,1.38-1.51l8.53-.03c.1-.41-.44-1.63.24-1.58.67.05,1.32-.02,1.96-.02.02-.16-.02-.33-.02-.49h-.22c-.28-.02-.57,0-.85,0h-2.11s-.96,0-.96,0c-.77,0-1.54.04-2.3-.02-.29.06-.59.02-.89.02h-2.11s-.96,0-.96,0l-.76.02v2.08s-5.33-.01-5.33-.01l.61,15.42-.16,5.7Z"/>
    <path class="cls-5" d="M98.77,104.29v-7.76s-2.86.01-2.86.01v6.74c0,.4-.12.74-.33,1.01h3.19Z"/>
    <path class="cls-6" d="M92.2,80.94l3.01.02c.18,0,.33.11.35.29l.33,2.51c.03.2-.11.36-.31.36h-5.03c-.57,0-.3-1.17-.55-1.58.1-.41-.44-1.63.24-1.58s1.32-.02,1.96-.02ZM95.7,83.88l-.35-2.71h-5.01s.36,2.75.36,2.75l5.01-.03Z"/>
    <path class="cls-4" d="M91.26,77s.02.08.02.12c-.07.28-.02.56.21.78.42.79.56,1.68.48,2.54-.28,0-.57,0-.85,0,.04-.81-.09-1.62-.49-2.35-.35-.64-.91-.33-1.42-.43.07-.18.25-.28.36-.44.93.19,1.61.96,2.09,1.81-.07-.78-.88-1.89-1.49-2.17-.02-.16.07-.34.03-.48.42.06.72.38,1.07.61Z"/>
    <path class="cls-1" d="M92.18,80.45h-.22c.08-.87-.06-1.76-.48-2.55-.23-.22-.28-.5-.21-.78,1.05.87.93,2.16.9,3.33Z"/>
    <path class="cls-1" d="M10.94,81.15c.77.05.9-.15,1.29.6.3.58.34,1.2.32,1.82h-2.04c.06-.83-.11-1.65-.49-2.4.3-.04.61-.05.91-.03Z"/>
    <path class="cls-1" d="M5.86,81.18c1.03-.28,1.33,1.72,1.24,2.4l-.68.02-1.36-.02c-.01-.86-.14-1.7-.59-2.44l.79.03c.11,0,.2-.04.24-.12.23.45.29.93.33,1.5.08-.47.02-.91.04-1.36Z"/>
    <path class="cls-1" d="M8.08,81.15c.64.02.98-.08,1.23.34.37.64.49,1.38.43,2.09h-1.81c0-.84-.12-1.67-.53-2.41.22-.03.45-.03.68-.02Z"/>
    <path class="cls-1" d="M13.55,81.15c.61.02.99-.08,1.23.34.36.64.5,1.38.43,2.09-.61.02-1.21-.03-1.81-.02.01-.83-.12-1.65-.52-2.39.22-.03.45-.03.68-.02Z"/>
    <path class="cls-4" d="M12.06,80.61c.24.18.65.27.81.56.4.74.54,1.56.52,2.39h-.84c.03-.6-.01-1.23-.32-1.81-.4-.76-.52-.55-1.29-.6.08-.29.39-.38.63-.54.13.03.36.03.49,0Z"/>
    <path class="cls-4" d="M6.59,80.61c.25.17.65.27.81.56.41.74.53,1.57.53,2.42h-.84c.09-.68-.21-2.69-1.24-2.4,0-.14-.11-.28-.06-.43.11-.02.23-.04.3-.13.15,0,.34.03.49,0Z"/>
    <path class="cls-4" d="M9.23,80.62c.26.16.6.32.79.56.38.75.55,1.57.49,2.4h-.77c.06-.71-.06-1.45-.43-2.09-.24-.42-.59-.31-1.23-.34.12-.25.39-.37.61-.53h.54Z"/>
    <path class="cls-4" d="M15.98,83.58c-.26,0-.52,0-.78,0,.06-.71-.07-1.45-.43-2.09-.24-.42-.62-.32-1.23-.34.08-.16.23-.27.35-.4.78.24,1.36.81,1.78,1.55-.11-.67-.49-1.17-.93-1.61.34.19.65.32.86.76.31.66.41,1.4.37,2.13Z"/>
    <path class="cls-5" d="M136.94,104.29v-6.32s-3.53,0-3.53,0v5.37c-.01.37-.14.69-.34.94h3.87Z"/>
    <path class="cls-5" d="M24.47,104.29v-6.32s-5.05,0-5.05,0v5.54c-.01.3-.1.56-.25.77h5.3Z"/>
    <path class="cls-5" d="M61.96,104.29v-6.3c-.09-.15-.18-.02-.29-.02h-4.57s-.01,5.56-.01,5.56c0,.3-.09.55-.24.76h5.1Z"/>
    <path class="cls-3" d="M36.98,76.33c-1.64-.65-3.83-.84-5.59-.95l-1.15-.09h6.21c.5,0,.6.53.54,1.04Z"/>
    <path class="cls-14" d="M75.93,80.45h3.49s1.59.02,1.59.02v2.08s-5.33-.01-5.33-.01c-.03-.7-.1-1.4-.06-2.09.11.02.21,0,.32,0Z"/>
    <path class="cls-3" d="M74.47,76.33c-1.72-.65-3.83-.84-5.62-.94l-1.03-.09h6.08c.32-.01.56.23.56.54,0,.17.03.31,0,.49Z"/>
    <path class="cls-14" d="M56.23,101.53c0,.45-.29.75-.7.75h-10.42c-.42,0-.68-.32-.68-.72v-13.89c.22-.31.54-.37.92-.37h10.18c.4,0,.7.3.7.71v13.52ZM55.17,88.03h-3.99c-.5,0-.96-.09-1.42,0l.8.07c1.79.16,3.32.18,5.08.84.05-.41-.02-.91-.48-.91Z"/>
    <path class="cls-15" d="M56.4,75.27l5.72.03-1.03.09c-1.27.04-4,.37-5.07.9-.07.03-.11.04-.17.04l.03-.52c.02-.31.25-.5.53-.53Z"/>
    <path class="cls-14" d="M17.92,102.32H7.64c-.36,0-.67-.28-.67-.65v-13.36c0-.38.29-.67.67-.67h10.23c.42,0,.66.34.66.73v13.3c0,.36-.25.61-.63.65ZM17.97,89.25c.03-.19.02-.33,0-.48-.03-.26-.24-.42-.51-.42l-5.04.03.97.09c1.47.08,3.15.26,4.58.79Z"/>
    <path class="cls-15" d="M18.89,75.27l5.71.03c-.36.08-.68.04-1.03.07-1.56.13-3.65.31-5.05.92-.06.02-.11.03-.13,0-.05-.11-.07-1.01.5-1Z"/>
    <path class="cls-1" d="M50.13,83.14h-2.09c.06-.84-.11-1.67-.49-2.43.31-.07.63.03.93-.07.4.22.76-.26,1.21.45.39.62.45,1.34.44,2.05Z"/>
    <path class="cls-1" d="M43.28,80.69c1.07-.24,1.36,1.74,1.27,2.46l-.69.03-1.41-.02c.04-.87-.16-1.68-.56-2.45.18-.06,1.03.08,1.01-.12.3.4.26.93.32,1.46.09-.45.07-.9.05-1.36Z"/>
    <path class="cls-1" d="M51.12,80.68c.62.02,1.02-.1,1.28.39.34.65.47,1.36.42,2.07-.63.02-1.26.02-1.89,0,.06-.85-.11-1.69-.5-2.44.23,0,.46-.03.69-.02Z"/>
    <path class="cls-1" d="M45.58,80.67c.48.09.93-.18,1.25.39.36.65.47,1.37.43,2.09h-1.86c.02-.85-.12-1.69-.53-2.45l.72-.03Z"/>
    <path class="cls-4" d="M49.58,80.13c.26.16.7.27.86.57.4.76.57,1.6.5,2.44-.27,0-.54.05-.81,0,0-.71-.05-1.43-.44-2.05-.45-.72-.81-.24-1.21-.45.12-.28.42-.38.68-.52.13.02.3-.02.42,0Z"/>
    <path class="cls-4" d="M43.99,80.13c.27.15.71.27.88.57.41.75.55,1.6.53,2.45-.28,0-.57-.02-.85,0,.09-.72-.2-2.69-1.27-2.46,0-.15-.11-.29-.02-.43.11-.02.23-.04.32-.13h.42Z"/>
    <path class="cls-4" d="M46.69,80.13c.28.15.65.32.85.59.38.76.56,1.59.49,2.44h-.77c.04-.72-.07-1.45-.43-2.09-.32-.57-.77-.3-1.25-.39.1-.28.4-.38.63-.54.14.03.34,0,.48,0Z"/>
    <path class="cls-4" d="M53.62,83.13c-.25-.03-.52,0-.78.01.04-.71-.08-1.42-.42-2.07-.27-.5-.66-.38-1.28-.39.07-.15.21-.25.31-.38.7.03,1.44.85,1.83,1.46-.1-.66-.5-1.15-.92-1.57.37.17.67.35.88.78.33.67.41,1.41.39,2.15ZM53.34,81.86s-.02-.04-.04-.04-.04.02-.04.04.02.04.04.04.04-.02.04-.04Z"/>
    <polygon class="cls-5" points="56.92 86.2 52.46 86.23 52.14 83.8 56.6 83.8 56.92 86.2"/>
    <path class="cls-8" d="M78.8,77.69c.46.85.7,1.78.62,2.75h-3.49c-.06-1.01.14-2.5,1.07-3.15.47-.33,1.07-.3,1.49.1l.31.3Z"/>
    <path class="cls-1" d="M80.37,77.68c1.18-.29,1.57,2,1.41,2.77l-.76.02-1.59-.03c.08-.97-.16-1.9-.62-2.75.19-.06,1.2.09,1.14-.14.26.52.39,1.06.36,1.73.11-.55.08-1.07.06-1.61Z"/>
    <path class="cls-15" d="M90.16,76.87c.61.29,1.42,1.4,1.49,2.17-.47-.84-1.16-1.62-2.09-1.81-.08-.25-2.07-.33-2.1-.18-.14-.03-.34.04-.48,0-.03,0-.06-.07-.13-.07h-2.57s-.1.03-.07.07h-.48s-.03-.05-.07-.07h-2.39s-.1.03-.07.07c-.13-.05-.35.06-.48,0-.09-.05-.15-.09-.27-.06s-.06.12-.11.19c-.1.16.02.32.03.49.01.54.04,1.06-.06,1.61.03-.67-.1-1.22-.36-1.73s-.64-.85-1.26-.9h10.13c.49,0,.93.02,1.34.21Z"/>
    <path class="cls-8" d="M41.89,80.7c.4.77.59,1.58.56,2.45h-3.12c-.05-.9.11-2.17.9-2.77.63-.48,1.22-.17,1.66.33Z"/>
    <path class="cls-3" d="M52.34,80.2c.42.42.82.91.92,1.57-.39-.61-1.13-1.44-1.83-1.46.02-.25-1.87-.29-1.86-.17-.12-.02-.29.01-.42,0-.81-.1-1.66-.09-2.47,0-.14.01-.34.03-.48,0-.69-.14-1.41,0-2.15-.07-.04.01-.1.03-.07.06h-.42c-.07,0-.12-.07-.21-.05-.11.03-.07.11-.11.18-.08.15.02.28.02.43.01.45.03.91-.05,1.36-.06-.53-.02-1.06-.32-1.46-.14-.49-.64-.71-1.12-.8h9.39c.5-.01.79.25,1.17.42Z"/>
    <path class="cls-8" d="M4.46,81.14c.46.74.58,1.58.59,2.44H1.99c-.11-.92.19-2.67,1.32-2.93.4-.09.92.12,1.15.49Z"/>
    <path class="cls-15" d="M14.75,80.69c.43.44.82.94.93,1.61-.42-.74-1-1.31-1.78-1.55-.58-.18-1.23-.3-1.83-.14-.13.03-.36.03-.49,0-.69-.15-1.41,0-2.15-.08-.08,0-.14.06-.18.08h-.54s-.07-.08-.13-.07c-.67.06-1.34-.08-1.96.07-.15.04-.34,0-.49,0-.06,0-.11-.1-.21-.04-.07.05-.07.1-.1.17-.05.15.06.29.06.43-.02.46.04.9-.04,1.36-.05-.57-.1-1.05-.33-1.5-.21-.41-.54-.7-1.05-.77l8.97-.03c.57,0,.91.2,1.35.45Z"/>
    <polygon class="cls-5" points="19.22 86.59 14.86 86.6 14.55 84.21 18.92 84.21 19.22 86.59"/>
    <path class="cls-13" d="M113.66,103.69h-2.42c-.45,0-.84-.37-.84-.84v-4.24c0-.49.36-.89.84-.89h2.33c.52,0,.88.39.88.9v4.17c0,.47-.3.85-.8.9ZM111.49,99.2c-.22.13-.2.41-.1.53.14.18.35.18.47.12.23-.11.25-.37.17-.53-.1-.18-.34-.24-.53-.13ZM113.26,99.2c-.22.12-.22.4-.11.55.12.16.33.18.47.11.22-.1.24-.35.17-.51-.09-.19-.32-.26-.53-.15Z"/>
    <path class="cls-1" d="M125.54,80.44h-2.33c.05-.95-.1-1.92-.6-2.75.37-.05.74.04,1.1-.06.45.23.86-.28,1.35.49.44.69.54,1.52.49,2.32Z"/>
    <path class="cls-1" d="M117.86,77.69c1.19-.27,1.52,1.97,1.43,2.76-.26-.02-.53.02-.8.02l-1.55-.02c-.02-1.04-.13-1.84-.66-2.76.21-.06,1.18.09,1.17-.13.34.4.23,1.26.41,1.53v-1.41Z"/>
    <path class="cls-1" d="M126.71,77.67c.53.1,1.06-.22,1.42.46.39.72.5,1.52.48,2.32-.71.03-1.42.02-2.14,0,.07-.95-.12-1.9-.57-2.75l.8-.03Z"/>
    <path class="cls-1" d="M120.44,77.67c.72,0,1.13-.09,1.42.45.39.72.52,1.53.49,2.33h-2.14c.09-.94-.12-1.9-.57-2.75.27-.02.54-.03.8-.03Z"/>
    <path class="cls-4" d="M124.93,77.05c.3.19.79.3.97.64.45.85.64,1.79.57,2.75-.31,0-.62.04-.93,0,.05-.8-.05-1.63-.49-2.32-.49-.77-.9-.26-1.35-.49.14-.3.46-.42.74-.57.15-.02.33.03.49,0Z"/>
    <path class="cls-4" d="M118.67,77.05c.3.18.8.3.97.64.44.84.66,1.8.57,2.75-.31,0-.61.03-.92,0,.09-.79-.23-3.04-1.43-2.76,0-.15-.11-.29-.07-.45.14-.07.31-.09.44-.19.11.07.32-.04.43,0Z"/>
    <path class="cls-4" d="M121.74,77.06c.27.2.68.33.87.63.5.83.65,1.8.6,2.76h-.86c.03-.8-.1-1.62-.49-2.34-.29-.53-.7-.44-1.42-.45.13-.32.46-.45.75-.61h.55Z"/>
    <path class="cls-4" d="M129.47,80.45c-.29,0-.57.02-.86-.01.02-.8-.09-1.6-.48-2.32-.36-.67-.89-.36-1.42-.46.05-.19.24-.26.33-.43.12,0,.24.02.36.08.8.37,1.37,1,1.76,1.79-.13-.79-.56-1.44-1.1-1.96.42.2.76.41,1,.92.34.74.46,1.58.41,2.4Z"/>
    <path class="cls-15" d="M128.06,77.14c.54.53.97,1.17,1.1,1.96-.39-.79-.96-1.42-1.76-1.79-.13-.06-.25-.08-.36-.08-.28-.31-1.69-.29-2.1-.19-.15.04-.34-.02-.49,0,.03-.04-.02-.07-.07-.07h-2.39c-.11-.01-.18.03-.24.06h-.55s-.1-.07-.18-.07h-2.22c-.07,0-.12.02-.12.07-.11-.04-.31.07-.43,0-.1-.06-.18-.09-.32-.04-.11.04-.09.12-.12.22-.04.16.07.3.07.45v1.41c-.18-.27-.07-1.14-.41-1.53-.18-.52-.71-.81-1.24-.91h10.43c.6-.02.95.26,1.42.48Z"/>
    <path class="cls-14" d="M131.77,101.94h-11.99c-.32-.08-.62-.32-.62-.68v-15.45c0-.39.38-.67.74-.67h11.77c.4,0,.73.33.73.74v15.33c0,.39-.24.66-.64.75ZM131.76,86.97c.02-.23.03-.46-.04-.68-.08-.25-.32-.37-.59-.37h-6.14c.33.06.68.07,1.04.09,1.72.09,4.11.32,5.73.95Z"/>
    <path class="cls-15" d="M131.37,75.26l5.66.03-1.03.09c-1.28.06-3.93.37-5.01.9-.07.03-.11.04-.17.04l.02-.48c.01-.32.24-.55.53-.58Z"/>
    <path class="cls-13" d="M149.23,103.9h-1.95c-.42,0-.73-.32-.73-.74v-3.5c0-.39.32-.7.7-.7h1.98c.37.03.68.31.68.7v3.5c0,.39-.27.71-.68.74ZM147.47,100.18c-.18.1-.18.32-.11.43.1.16.28.17.41.11.17-.08.2-.27.15-.38-.06-.17-.26-.27-.45-.16ZM148.89,100.2c-.17.12-.13.37-.04.45.13.13.3.11.4.05.16-.09.17-.34.1-.44-.1-.14-.29-.19-.46-.07Z"/>
    <polygon class="cls-5" points="133.19 83.9 128.18 83.91 127.83 81.18 132.83 81.17 133.19 83.9"/>
    <path class="cls-10" d="M94.27,86.96c-1.67-.63-3.91-.86-5.69-.94l-1.05-.11h6.15c.28,0,.52.17.58.43.04.19.06.34.02.62Z"/>
    <path class="cls-1" d="M86.19,77.67c.57.12.91-.23,1.33.41.47.7.58,1.55.51,2.37-.77,0-1.54.04-2.3-.02l-.02-.75c-.02-.71-.24-1.38-.59-1.98l1.06-.03Z"/>
    <path class="cls-1" d="M89.2,77.67c.51.09,1.07-.21,1.42.43.4.72.53,1.54.49,2.35h-2.11c.04-.96-.13-1.91-.59-2.75l.8-.02Z"/>
    <path class="cls-1" d="M82.94,77.67c.69.02,1.14-.11,1.43.43.39.72.54,1.55.48,2.35h-2.11c.07-.96-.15-1.88-.56-2.75.25-.03.51-.04.76-.03Z"/>
    <path class="cls-4" d="M87.47,77.06c.29.18.76.31.94.63.47.85.63,1.8.59,2.76h-.96c.07-.82-.04-1.67-.51-2.37-.42-.64-.76-.29-1.33-.41.13-.33.48-.45.79-.61.15.04.34-.02.48,0Z"/>
    <path class="cls-4" d="M81.2,77.06c.31.16.76.34.97.64.4.87.63,1.79.56,2.75h-.96c.16-.76-.23-3.06-1.41-2.77,0-.17-.13-.33-.03-.49.13-.03.28-.04.38-.14.14.07.35-.05.48,0Z"/>
    <path class="cls-4" d="M84.21,77.06c.28.18.73.33.92.64.35.6.57,1.27.59,1.98l.02.75c-.29.06-.59.02-.89.02.06-.8-.09-1.63-.48-2.35-.29-.54-.74-.41-1.43-.43.17-.31.48-.48.8-.62h.48Z"/>
    <polygon class="cls-5" points="95.7 83.88 90.69 83.92 90.34 81.17 95.35 81.17 95.7 83.88"/>
    <path class="cls-11" d="M89.56,77.24c-.11.16-.29.25-.36.44l-.8.02c-.18-.33-.64-.46-.94-.63.02-.16,2.02-.08,2.1.18Z"/>
    <path class="cls-11" d="M11.57,80.61c-.24.16-.55.25-.63.54-.3-.02-.62,0-.91.03-.19-.25-.53-.41-.79-.56.04-.02.1-.08.18-.08.74.07,1.47-.08,2.15.08Z"/>
    <path class="cls-11" d="M8.69,80.62c-.22.16-.48.27-.61.53-.23,0-.45,0-.68.02-.16-.29-.55-.39-.81-.56.63-.15,1.29-.01,1.96-.07.06,0,.11.08.13.08Z"/>
    <path class="cls-11" d="M13.89,80.75c-.12.13-.27.24-.35.4-.23,0-.45-.01-.68.02-.15-.28-.57-.38-.81-.56.6-.16,1.25-.04,1.83.14Z"/>
    <path class="cls-11" d="M6.1,80.62c-.07.09-.19.11-.3.13.03-.08.03-.13.1-.17.1-.06.15.04.21.04Z"/>
    <path class="cls-13" d="M74.25,103.9h-1.95c-.42,0-.73-.31-.73-.73v-3.5c0-.39.32-.7.7-.7h1.98c.38.03.68.31.68.7v3.5c0,.38-.27.73-.68.73ZM72.44,100.21c-.16.13-.14.38.02.49.09.07.27.08.39-.02.13-.11.13-.3.05-.42-.1-.14-.3-.18-.45-.05ZM73.91,100.2c-.17.12-.12.36-.04.45.13.13.3.11.4.06.17-.09.17-.34.1-.44-.11-.14-.29-.19-.46-.07Z"/>
    <path class="cls-13" d="M36.72,103.9h-1.88c-.43,0-.74-.28-.77-.7v-3.52c0-.4.33-.72.72-.72h1.94c.39,0,.7.31.7.7v3.5c0,.4-.28.74-.71.74ZM34.97,100.2c-.17.11-.15.36-.04.47s.29.11.4.05c.17-.1.17-.31.1-.44-.09-.14-.29-.19-.45-.08ZM36.44,100.19c-.18.11-.17.35-.05.48.09.1.28.12.4.04.15-.09.17-.29.1-.42-.08-.14-.28-.21-.45-.1Z"/>
    <path class="cls-15" d="M55.17,88.03c.46,0,.54.5.48.91-1.77-.65-3.3-.67-5.08-.84l-.8-.07c.46-.09.92,0,1.42,0h3.99Z"/>
    <path class="cls-15" d="M17.97,89.25c-1.43-.53-3.11-.71-4.58-.79l-.97-.09,5.04-.03c.27,0,.47.16.51.42.02.15.03.29,0,.48Z"/>
    <path class="cls-11" d="M49.16,80.13c-.26.14-.56.23-.68.52-.3.1-.62,0-.93.07-.2-.26-.57-.43-.85-.59.81-.08,1.66-.09,2.47,0Z"/>
    <path class="cls-11" d="M51.43,80.3c-.1.13-.24.23-.31.38-.23,0-.46.01-.69.02-.16-.3-.6-.41-.86-.57,0-.12,1.87-.08,1.86.17Z"/>
    <path class="cls-11" d="M46.21,80.13c-.23.16-.53.26-.63.54l-.72.03c-.17-.3-.6-.42-.88-.57-.03-.03.03-.05.07-.06.74.06,1.46-.07,2.15.07Z"/>
    <path class="cls-11" d="M43.57,80.13c-.08.08-.21.1-.32.13.04-.07,0-.15.11-.18.1-.02.14.05.21.05Z"/>
    <circle class="cls-3" cx="53.3" cy="81.86" r=".04"/>
    <path class="cls-11" d="M86.98,77.05c-.31.16-.66.28-.79.61l-1.06.03c-.18-.31-.63-.47-.92-.64-.03-.04.03-.06.07-.06h2.57c.06,0,.1.05.13.06Z"/>
    <path class="cls-11" d="M83.73,77.05c-.32.14-.63.31-.8.62-.25,0-.51,0-.76.03-.21-.3-.66-.48-.97-.64-.03-.04.02-.06.07-.07h2.39s.1.03.07.06Z"/>
    <path class="cls-11" d="M80.72,77.06c-.1.1-.25.11-.38.14.05-.07,0-.16.11-.19.12-.04.18,0,.27.06Z"/>
    <path class="cls-5" d="M113.26,99.2c.21-.11.44-.04.53.15.07.16.05.41-.17.51-.14.06-.36.05-.47-.11-.11-.15-.11-.43.11-.55Z"/>
    <path class="cls-5" d="M111.49,99.2c.2-.12.44-.05.53.13.08.15.06.42-.17.53-.12.06-.33.06-.47-.12-.09-.12-.12-.4.1-.53Z"/>
    <path class="cls-11" d="M124.45,77.06c-.29.15-.61.27-.74.57-.36.1-.73,0-1.1.06-.19-.31-.59-.44-.87-.63.06-.03.13-.08.24-.08h2.39s.1.04.07.08Z"/>
    <path class="cls-11" d="M127.03,77.24c-.08.17-.28.24-.33.43l-.8.03c-.18-.34-.68-.46-.97-.64.41-.11,1.82-.12,2.1.19Z"/>
    <path class="cls-11" d="M121.19,77.06c-.29.16-.62.29-.75.61-.27,0-.54.01-.8.03-.18-.34-.67-.47-.97-.64,0-.05.06-.07.12-.07h2.22c.09,0,.14.04.18.07Z"/>
    <path class="cls-11" d="M118.24,77.05c-.13.1-.3.12-.44.19.03-.1.01-.18.12-.22.14-.05.23-.03.32.04Z"/>
    <path class="cls-10" d="M131.76,86.97c-1.62-.63-4.01-.87-5.73-.95-.36-.02-.71-.03-1.04-.1h6.14c.27,0,.51.12.59.37.07.22.06.44.04.68Z"/>
    <path class="cls-5" d="M148.89,100.2c.16-.12.35-.07.46.07.07.1.07.35-.1.44-.1.05-.27.07-.4-.05-.09-.09-.13-.33.04-.45Z"/>
    <path class="cls-5" d="M147.47,100.18c.19-.11.39,0,.45.16.04.12.02.3-.15.38-.12.06-.31.04-.41-.11-.07-.11-.07-.33.11-.43Z"/>
    <path class="cls-5" d="M73.91,100.2c.16-.12.35-.07.46.07.07.1.07.35-.1.44-.1.05-.27.07-.4-.06-.09-.09-.13-.33.04-.45Z"/>
    <path class="cls-5" d="M72.44,100.21c.15-.13.36-.08.45.05.09.12.08.31-.05.42-.12.1-.3.09-.39.02-.16-.12-.17-.37-.02-.49Z"/>
    <path class="cls-5" d="M34.97,100.2c.16-.11.36-.06.45.08.07.12.07.34-.1.44-.1.06-.29.06-.4-.05s-.13-.35.04-.47Z"/>
    <path class="cls-5" d="M36.44,100.19c.17-.1.36-.04.45.1.07.12.05.33-.1.42-.12.07-.31.06-.4-.04-.11-.12-.13-.37.05-.48Z"/>
  </g>
</svg>