<?xml version="1.0" encoding="UTF-8"?>
<svg id="Calque_1" xmlns="http://www.w3.org/2000/svg" version="1.1" viewBox="0 0 150 150">
  <!-- Generator: Adobe Illustrator 30.1.0, SVG Export Plug-In . SVG Version: 2.1.1 Build 136)  -->
  <defs>
    <style>
      .st0 {
        fill: #c5d0cd;
      }

      .st1 {
        fill: #90c363;
      }

      .st2 {
        fill: #244d44;
      }

      .st3 {
        fill: #597272;
      }

      .st4 {
        fill: #94acb2;
      }

      .st5 {
        fill: #e6ebe8;
      }

      .st6 {
        fill: #e8ecea;
      }

      .st7 {
        fill: #fff;
      }

      .st8 {
        fill: #4b9738;
      }

      .st9 {
        fill: #f3a6a4;
      }

      .st10 {
        fill: #175529;
      }

      .st11 {
        fill: #5fad40;
      }

      .st12 {
        fill: #b1cb54;
      }
    </style>
  </defs>
  <g id="lGRLis">
    <g>
      <path class="st8" d="M80.5,117.5v1.8c0-.3-.2,1-.2,1h0c0,.1,0,.7,0,.8l-.4.2h0c-.1-1.6-.6-4.2-1.2-5.8,0,0,0-.2-.1-.3l-.6-1.1c0-.2-1.2-1.8-1.4-2-.2-.2-.3-.4-.5-.6l-.7-.8c-.8-.8-1.6-1.5-2.5-2.3-.4-.3-.8-.5-1-1,.9,0,1.2.6,1.9.6.2.3.5.6.9.6,0,0,0,0,.1,0-.1,0,.8.7,1,.7,0,0,0,0,0,0-.2,0,.7.9.7.7.3.4.7.8,1.1,1.1,0,.2.1.4.3.4,0,0,0,0,0,0,0,.2.1.3.3.3h0c0,.2,0,.3,0,.4,0,0,.1,0,.2,0,0,.2.2.3.2.4,0,.2.3.9.5.8,0,0,0,0,0,.1.1.3.3.7.4,1.1.2.5.3,1.1.5,1.6.2.7,0,1.1.2,1h0Z"/>
      <path class="st11" d="M104.9,28.4c-.4.1.2.5,0,1.4l-1.7-.4c-.7-.1-.1-.3-.6-.5-.2-3.1-2.3-7.4-6.2-7-1.3.2-2.2,1-2.9,2,0,0-.2,0-.2,0,0,.1,0,.2,0,.3s-.7,1.6-.6,2.2c0,0-.2,0-.2.1,0,.1,0,.3.1.3v.4c0,0-.1,0-.2,0-.1,0,0,.5,0,.5v1.5c-.2.1-.5.2-.8.3-1,.2-1.9.5-2.9.9l-.9.4c-.3.1-.6.2-.9.4l-.9.5c-.8.4-2.2,1.4-2.9,1.9-.3.2-.6.5-.9.7l-.6.5-.4.4c0-.3,0-.5,0-.7,0-.1,0-.3,0-.5,0,0,.1,0,.2,0,.1,0,0-.5,0-.5v-.7c.1,0,.3,0,.3-.1v-2.2c0-.1-.2-.2-.2-.1v-.8s.1-.1.1-.2c0-.1,0-.3-.2-.2v-.6s.2-.1,0-.2c0,0-.2-.2-.2,0,0-.2,0-.3,0-.5-.3-1.6-1.1-3-2.4-4-.5-.4-1.3-.7-1.9-.8-1.7-.2-3.1.1-4.3,1.3-.8.8-1.4,1.7-1.8,2.7-.7,2-.6,3-.8,3.6,0,.4,0,.7,0,1.1-.2,1,0,4.6.7,5.2.4.4,1.2.7,1.8.7,0,0,0,.2,0,.2.1,0,.3,0,.3-.1.3,0,.7,0,1.1,0,0,0,0,.2,0,.2.2,0,.5,0,.7,0,0,0,.1-.2,0-.2.4,0,.8,0,1.2,0,0,0,.1.1.2.1.2,0,.3,0,.2-.2h.6c0,0,0,.2.2.1,0,0,.2-.2,0-.2.2,0,.4,0,.6,0,0,0,.1.1.2.2.2,0,.3-.1.2-.3.2,0,.4,0,.6-.1,0,0,.1.2.2.1s.2-.2,0-.2c0,0,.1,0,.2,0,0,0,0,0,0,.1,0,0,.2,0,.2,0v-.2c.1,0,.2-.1.4-.2.5,0,0,.2-.3,1.1-.2.4-.5.7-.5,1.2,0,.2,1-1,1.1-1.1.8-1,2.6-2.5,3.6-3.2l.7-.4c.4-.3.9-.5,1.3-.8l.7-.4c.8-.4,2.3-1,3.2-1.3l.8-.2,1.3-.4,2.1-.4c.3,0,.7,0,1-.1h.9c1.1-.2,4.2-.1,5.5,0,1.6.2,3.1.6,4.6,1,.3,0,.5.2.8.3,1.2.4,3.3,1.6,4.2,2.4,1.1,1,2.2,2.1,3,3.3.8,1.2,1.4,2.5,1.8,3.8l.2.8c.3.9.5,3.7.4,4.8v.9c-.1.2-.2,1.4-.3,1.2-.2,0-1,.8-1.2,1-.4.4-1.2,1-1.6,1.3l-1.1.8c-.4.3-.9.5-1.4.8l-.9.5c-.2,0-.4.2-.6.3l-1.2.5c-.8.3-2.8,1-3.7,1.1l-1.2.3-3.1.5h-2c-1.2.2-2.4.2-3.6.1h-1.2c0,0-2.1-.4-2.1-.4l-1.4-.2-1.3-.3c-.3,0-.7-.2-1-.2l-.8-.2c-.9-.2-1.8-.5-2.7-.7l-.8-.2-1.4-.4c-1.9-.5-1.5,0-2.3-1-.2-.2-.4-.4-.6-.7l-.4-.7c-.7-1.1-.8-1.5-1.2-2.8-.5.2-.4,3.3-.3,3.2,0,0-.1,0-.2,0,.3,0-1.3-.6-1.2-.5-.3-.1-2.3-.7-2.5-.8h-.8c-.3-.2-.7,0-1-.3h-1.7c-.4,0-2.5.4-2.9.6l-.7.2c-.5.2-1.1.4-1.6.6-.1,0-2.5,1.5-2.3,1.7,0,0-.2.1-.2.2s-.2,0-.3.2l-1.1,1.1-.5.5c-.1.2-.8,1.2-.9,1.5l-.4.7c-.9,1.5-.6,1.7-1.1,2.7-.2.5-.4,1.7-.5,2.3v1.3c-.2.4-.2.7-.2,1.1v1.1c0,.9.3,1.8.5,2.7,0,.5,0,.8.4,1.5,0-.2.3,1.5.4,1.7l.5,1.1c.1.2.3.4.4.7.1.3.5.9.7,1.2.2.2.2.4.3.7l.5.7c0,.1.2.2.3.2,0,0,0,0,0,.1,0,0,0,.2-.1.2-.2,0-1.1-1-1.4-1.4-.4-.4-.9-1.3-1.2-1.3v-.2c-.1,0-.1-.7-.5-.6,0,0,0,0,0,0,0,0,0-.1,0-.2,0,0-.2,0-.2,0-.3-.4-.5-.9-.7-1.4-.2-.4-.4-.7-.5-1,0,0,.1,0,.1,0s-.2-.6-.4-.4c0,0-.6-1.7-.7-2.2l-.3-1.5c0-.4-.2-.7-.3-1,0-.2-.2-1.3-.2-1.5v-3.7c0-.3,0-1.5,0-1.6,0-.3,0-.5.1-.8,0-.8,0-1.2.2-2l.2-.8.4-2c.1-.7.3-1.3.5-1.9,0,.2,1-3.3.5-2.3l.5-1c0-.1.7-1.6.6-1.6.3,0,.5-.8.8-1.2l.7-1.3c.3-.6.7-1,1-1.6.4-.7.9-1.2,1.3-1.9s1-1,1.5-1.8c.2-.3,0-1.5-.2-1.8,0-.5,0-1.1,0-1.7-.1-1.2,0-1.5,0-2.6v-1.3s.2-.9.2-.9v-.9c.2-.7.4-1.4.6-2.1.3-1.2.9-2.4,1.6-3.5.3-.5.7-.9,1-1.3.6-.8,2.1-1.9,3-2.4,2.8-1.5,6.2-1.8,9.1-.5.6.3,1.1.6,1.6,1,.8.7,1.7,1.6,2.3,2.6l.3.5c.2.3.3.6.5.9.3.5.8.2,1.8.3h1.1c.3.2.6.2.8,0,0,0,0,.2.2.2,1.4.4,2.7.9,4,1.5.2.1,1.1.5,1.2.5.4-.1.2-1.9.2-2.5v-1.1c0,0-.2-1.2-.2-1.2,0-.8-.1-1.5-.1-2.3,0-.2-.2-.4,0-.6-.3,0-.5,0-.7.1,0-.2,0-.2.2-.3,1.5-.8,3.4-1.2,5.1-1,2.3.3,4,1.2,5.6,2.8,1.1,1.1,2.3,3.1,2.8,4.6l.4,1.5c.1.4.2.7.2,1.1h0Z"/>
      <path class="st6" d="M107.2,104.5c-.2,1.5-.6,3.4-1.1,4.8-.5,1.4-1.6,3.4-2.5,4.6-.3.4-.8.8-.7,1-.5.3-.9.9-1.4,1.3-.9.7-1.8,1.3-2.8,1.9l-.9.6-1,.5c-1.3.6-2.6,1.1-3.9,1.4,0,0-.3,0-.3.1,0,0-.1,0-.2,0,0,0-.3,0-.3.1,0,0-.1,0-.2,0-.1,0-1.2.1-.9.3,0,0-.2,0-.3,0,0,0,0-.1-.2,0,0,0,0,.1-.1.1,0,0-.2,0-.2,0-.2,0-.3,0-.4.2-.5,0-1.5.1-2,.2,0,0,0-.1-.1-.1h-1.9c0,.1-4.2.1-4.2.1,0,0-1.6-.1-1.9-.2h0s0-.1.2-.3c0,0,0,0,0,0h0c.2-.2.4-.4.2-.6,0,0,0-.1,0-.2h0s0,0,0,0c.2,0,.4-1,.2-1.1v-1.8c0-.4,0-.7,0-1.2l-.3-1-.6-1.2c0,0,0-.2,0-.2,0,0-.1,0-.2,0,0,0,0,0,0-.1,0-.2-.3-.9-.5-.8,0-.2-.3-.3-.2-.4,0,0,0-.1,0-.2,0,0-.2-.2-.2,0h0c0-.3,0-.5-.3-.5,0,0,0,0,0,0,0-.2-.2-.3-.3-.4-.4-.3-.8-.7-1.1-1.1,0-.2-.5-.7-.7-.7,0,0,0,0,0,0,0-.3-.9-.7-1-.7s0,0-.1,0c0,0,0-.1,0-.1-.7-.2-.6-1.4-.6-2.2,0-1.5,0-4.4.2-5.8v-.6c.1,0,.4-1.4.3-1.4.1-.2.2-.4,0-.7,0,0,0-.2,0-.2.2,0,.2-.2.2-.4l.2-.9c0-.2.7-2.6.8-2.9l.4-1.3c0-.2.2-.4.1-.6v-.6c.2,0,.2-.1.3-.2v-.4c0,0,.5-1.1.5-1.1,0-.2.2-.4.2-.6,0,0,0,0,0,0h0c.3,0,.6,0,.9,0,.5,0,1.2.2,1.7.3h1c1.6.3,4,.4,5.5.2h1.4c0-.1,1.1-.2,1.1-.2,2.5-.3,5.4-.9,7.8-1.7.5-.2,1-.4,1.5-.5.2,0,.4-.2.7-.3,1-.3,1.9-.7,2.8-1.2.3-.2.7-.3,1-.4.3.7.4.8.8,1.7l.8,2c.9,2.2,2.2,6.2,2.5,8.6v.6c.1.3.2.6.2.8v.8c.3,1,.1,4.1,0,5.2h0Z"/>
      <path class="st11" d="M80,120.8c0-1.5-.6-3.8-1.3-5.3.7,1.5,1.1,4.2,1.2,5.7-.1.1-.2.2-.2.3h0s0,0,0,0h0c0,0,0-.1.1-.2,0,0,0,0,0,0h0c0-.1,0-.2,0-.4Z"/>
      <path class="st6" d="M74.9,51.8c.3,0,.9.4,1.3.4,0,0,.1,0,.2.2,0,.2,0,.3,0,.5-.5.2-1,0-1.1.5,1.2.8-.6,1,.4,1.5.6.3.6,1.2,1.3,1.1,0,0,0,.2,0,.3,0,.2,0,.5,0,.6l-.5.5c-.6.6-1.1.7-1.1,1.2l-.9.9c0,0-.2.1-.2.1-.7,0-.5.7-1.3.7,0,.2,0,.5,0,.6-.5.5-.1.3-.2.9,0,0,0,.1,0,.1,0,.4-.3.4-.2,1-.5.3-1,3.4-1.1,4h-.1c-.2-.3-.4-.7-.7-1-.2,0-.5,0-.7,0,0,.3.2.5.4.7.2.2-.3.8.1.8.1,0,.2,0,.3-.1,0-.1,0-.3.2-.3.2,0,.3,0,.5,0,0,0,0,.3.1.3-.2,1,0,1.6,0,2.6-.2,0-.9,0-.7.4.1.3.5.2.8.1,0,0,0,0,0,.1,0,0,0,.1,0,.2,0,0-1.8.2-2,.3-.3.1-.6.3-.9.3,0,0,0-.1,0-.1,0,0-.1,0-.2,0,0,0,0,.1,0,.2-.3.1-.6.3-.8.6-.2.3-.1.7,0,1.1,0,.3.3.3.5.5.4.3.7.7,1.1,1,.3.3.6.7.9,1,0,.3.1.7.3,1l-.2.5c0,0-.1,0-.2,0,0,0,0,.1,0,.2,0,.2,0,.3.3.3,0,.3.4.6.9.5,0,.4,1.3,1.8,1.7,2.1l1,.8c.2.1.3.2.5,0l-.8-.9-.8-1.2c-.2-.3-.9-1.2-.8-1.4,0,0,0,0,.1-.2h.4c.3.2.6.4.9.5,0,0,0,.1,0,.2,0,0,.2,0,.3,0,.4,0,.9.5,1.3.4,0,.5-.8,1.3-.3,2,.3.4,1,.4,1.3,0,.2-.2.1-.5.3-.7l.2-.4c.1,0,.2,0,.3.2.7.6,1.5,1.1,2.4,1.6,1.1.6,2.2,1.1,3.4,1.5,1.5.5,4.1,1.2,5.7,1.3,2.3.2,3.9,0,6.2-.2,4.4-.7,10.7-2.2,14-5.4.5-.5,1.4-1.3,1.6-2,.3,0,.7,0,.9.4.1.9-.3.5-.5,1,0,0,0,.2,0,.2-.2.3-.4.7-.7,1-.9.9-1.7,1.7-2.6,2.5-.2.2-.4.2-.6.4-.8.7-1.4.8-1.6,1.3-.2-.1-.5-.2-.7,0-.5.4-1.5.6-1.6,1-.4,0-.8.3-1.2.5-2.8,1.1-5.6,1.9-8.6,2.3-1,.1-3.8.3-4.7.2-.9-.1-1.3,0-2.2-.1h-.9c0,0-1-.2-1-.2l-3.4-.5-1.1-.2c-.2,0-.4,0-.6,0-.2-.2-.4-.2-.7-.2s-.5,0-.7,0c0,0,0-.1,0-.2-.1,0-.3,0-.4,0h-.2c0,0,0,0,0-.1,0,0-.1,0-.2,0,0,0-.1,0-.2,0,0,0-.1-.1-.2-.2l-2.7-.7c-.2,0-.3-.2-.5-.1s-.6-.2-.8-.2c0,0,0-.2-.1-.2-.8-.2-1.8-.6-2.1-.6-.1,0-.2,0-.3,0,0,0,0-.1,0-.2,0,0-.2,0-.3,0-.2,0-.4-.2-.6-.2.2-.1-.6-.5-.8-.5,0,0-.1,0-.2,0,0,0,0-.2-.2-.2-.1,0-.2,0-.2-.1,0-.2,0-.4-.3-.4-.4-.1-.8-.4-1.1-.6l-.7-.4c-.2-.1-.4-.2-.6-.1,0,0-.2,0-.2,0,0,0,0,0-.2,0,.4.2-1.5-1.4-1.2-1.2,0-.2-.6-.9-.8-1.1-.2-.2-.3-.1-.5-.2-.5-.2-.7-1-1-.9,0,0,0,0,0-.1,0-.3-.8-.9-.7-1.2,0-.4-.2-1-.4-1.3.3-.4,0-1.2,0-1.2-.3-.1-.5.2-1,.1-.2-.5-.7-1.6-.8-2.1.4-.5-.3-.5.3-.9.1-.1.2-1.2-.2-1.5-1-.8-.3-1.6-.9-1.4,0-.2,0-.3,0-.5.5-.1-.2-1.5.8-2.1.4-.2-.4-.9,0-1.7,0,0,.3,0,.4,0,.2-.3,0-.6-.4-.7-.7-.2.2-.9-.4-1.1,0-.2.2-.6.3-.8,0,0,.2,0,.3-.1,0-.1,0-.2,0-.3,0-.3,0-.5.2-.7.2,0,.4-.2.8-.3,0-.2-.2-.4,0-.7.7,0,.7-.7.9-1.2.8-1.7,1.5-1.6,1.6-1.9,0-.2.3-.5.5-.4.2,0,.2.3.5.2.4-.2-.1-.7.1-.9,0,0,.8-.4,1.3-.2.2.1.5.2.7,0,0,0,0-.2,0-.3,0,0-.8,0-.7-.2,0-.5.7-.7.6-.9.2-.1.5-.3.7-.3,0,0,0,.1,0,.2,0,0,.2,0,.2,0s0-.1,0-.2c.3,0,.6-.3.9-.3.4,0,.9.1,1.3,0,.2,0,.4-.2.6,0,.1.3.5.5.6.7,0,.2-.2.7.2.7.2,0,.5-.1.7,0,.4.1.9-.2,1.1-.7,0-.2.4-.2.6,0l.7.3c.2,0-.2.6.2.8,0,0,.1,0,.2,0,.7-.3,1.3,0,1.3-.7,0-.5.7-.1.9-.4.4-.5.6,0,.7-.3h0ZM66.4,54.9c.2,0,.3,0,.3-.2,0-.1,0-.3-.2-.3,0,0-.4.2-.3.4,0,0,.1,0,.2,0h0ZM71,55.2c0,0,0-.1-.1-.1s-.1,0-.1.1,0,.1.1.1.1,0,.1-.1ZM61,55.4c0,.2.1.2.2.2s0-.1,0-.2-.1-.1-.3,0h0ZM70.3,57c-.3,0-.4,0-.3.2,0,0,.2.2.2.2s.1-.1.2-.2c0,0,0-.2-.2-.2h0ZM75.1,57.4c0-.2-.3-.1-.3,0,0,.3.3.3.3,0ZM72,57.7c0,0,0-.1-.1-.1s-.1,0-.1.1,0,.1.1.1.1,0,.1-.1ZM70.7,60.2c.2,0,.3,0,.4-.2.1-.5-.4-.5-.7-.8l.6-.6c0,0,.1-.2,0-.3,0,0,0,0-.2,0-.2,0-.3,0-.4.3,0,.4-.5,0-.6.3,0,.5.2-.2.1.7v.7c0,.2-.3.3-.2.5s.2.3.5.2c.5,0-.3-.8.3-.7h0ZM71.6,60.8c.1-.3.2-.5.5-.7-.2-.1-.2-.3-.3-.4-.3-.1-.3.2-.4.3-.2.3-.5.6-.5,1,0,.2.2.4,0,.7-.6,1.6,1.1-2.1.7-.9ZM65.2,61c-.2,0-.4,0-.4.2s.2.3.3.3.4,0,.4-.2c0-.2,0-.3-.3-.3ZM62.9,62.6c0,.2.3.1.4,0,0,0,.1-.2,0-.3,0,0-.1-.2-.3-.2-.2,0-.2.2-.2.4h0ZM68.5,62.7c.3-.1.2-.3,0-.4,0,0-.2,0-.3,0,0,0-.1.2,0,.2,0,0,.1.1.3.1h0ZM71.1,64.8h.3c0-.5-.2-.9-.4-1.2-.1-.2-.4,0-.5,0-.3,0-.1-.8-.7-.7-.4.1,0,.5-.3.7-.3.2-1.8.1-.9.4,0,0,1,0,1.1,0s.2.4.3.4c0,0,.2,0,.2,0,.5-.2.3.6.8.4h0ZM66,66c.5-.2.7-.7.6-1.2.4-.1,1.1.1,1.4-.3,0-.2,0-.4,0-.6-1.1.5-1.2-.4-1.7.2,0,.1-.4,0-.4.1-.3.4.2.9.2,1-.2.3-.8,0-1.4.2-.1,0-.2.4,0,.4.4,0,.8.3,1.2.1h0ZM63.3,64.6c0-.2-.3-.2-.3,0,0,.3.3.3.3,0ZM68,65.4c-.2-.2-.6,0-.7,0-.1.2,0,.2.2.3.2,0,.6-.2.4-.3ZM59.4,66.3c0-.2-.4-.4-.5-.2,0,.2.1.4.2.4s.3,0,.3-.2ZM65.8,67.1c0-.2-.3-.4-.4-.2,0,.2,0,.3-.1.4,0,0-.2,0-.3,0-.2,0-.6,0-.5-.4,0-.3.2-.6,0-.9l-.5.3c-.2.1.3.7,0,.9-.1,0-.2.2,0,.3.2.2.5-.2.7.1,0,0,0,1.4.4,1.2,0,0,.1-.1.1-.2,0-1.1.8-.8.7-1.4h0ZM70.1,69c0-.2-.2-.2-.3,0,0,.2-.2.4-.1.5,0,.2.3,0,.3,0,0,0,0-.2,0-.4h0ZM62.1,71.2c.2,0,.4-.3.4-.5,0-.4.7-.3.3-.7-.1-.2-.2-.3-.4-.3-.6,0-.2.4-.9.4s-.4.2-.2.3c.2.1.4,0,.5.1.1.2,0,.6.3.7h0Z"/>
      <path class="st4" d="M114.5,65.5c0,.2.2.3.4.3,0,0,0,.2,0,.2,0,0,.1,0,.2,0,.6.3,1.6.9,1.6,1.8,0,.5-.7,1.1-1.1,1.3l-1.5.8c-.4.2-.6.6-.4.9-.5.2-2.6,0-3.2,0h-.4c-.4.2-1.6.3-1.5,1.1,0,.9,2.6.6,3.5.6,0,.6-.6,1.5-.7,1.9-.2,0-.4,0-.6,0-.7-.2-2.9-1-3,0,0,.9,1.6,1.1,1.9,1.4-.2.6-1.1,1.4-1.6,2-3.2,3.2-9.6,4.8-14,5.4-2.3.2-3.9.4-6.2.2-1.6-.1-4.2-.8-5.7-1.3-1.2-.4-2.3-.9-3.4-1.5-.8-.5-1.7-.9-2.4-1.6-.1,0-.2-.2-.3-.2.3-.6.6-1.2,1.1-1.7.3-.3.2-.7,0-.9-.2-.3-.5-.4-.9-.3-1,.3-1.2,1.3-1.7,2-.4,0-.9-.4-1.3-.4,0,0,0-.2,0-.2,0,0-.1,0-.2,0-.4,0-.6-.3-.9-.5v-.2c0-.6,1.5-.9,2.1-1,.5,0,.7-.5.6-.9-.1-.8-1.1-.7-1.7-.6-1.3.3-1.6.7-2.6,1.4-.3-.2-.4-.4-.7-.4-.3-.3-.5-.7-.9-1-.4-.3-.7-.7-1.1-1-.2-.2-.4-.2-.5-.5-.1-.3-.3-.7,0-1.1.2-.3.5-.5.8-.6,0,0,.3,0,.3-.1.3,0,.6-.2.9-.3.2,0,2-.2,2-.3,0,0,0-.1,0-.2.1-.3,1,.8,1.1,1.1.2.2.6.3.8.6.9,1.1,3.3,2,4.4,2.1h1.4c.3.2.6.2,1,.1h1.1c1.4-.2,3.7-1,4.9-1.7l2.2-1.4c.8-.5,2-1.2,2.8-1.3-.1.5-.2.2-.6,1.1-.6,1.4.7,2.6,2,2.9.3,0,.6.3,1,.2.1,0,.2,0,.2.1,0,.9-.4,1.8-1.3,2.2-1.3.4-3-.2-4.2-.7-1-.4-1.8-1.5-2.5-1.3-.7.2-.5,1.7-.4,2.3.8,2.4,2.3,4.9,5.1,5.3,1.4.2,2.7,0,3.8-.9,1.8-1.4,1.5-3,1.9-3.4.2-.2,2.1-.9,2.5-1.1.2,0,.5-.1.7-.3-.6-.2-1.6.2-2.7,0-1-.1-1.6-1.1-1.5-2,.2-.3,1.1-.5,1.6-.8,1.4-1,1.2-1.9.8-3.2,2.3.8,4.3,2.1,7,1.7,2.1-.4,4.3-1.5,5.6-3.3.3-.5.6-1,.8-1.5.4-.9.3-1.6.5-2.2.2,0,.3,0,.5,0l2,.7c.3.1.5.2.8.2h0ZM113.5,70.6c0-.1,0-.2,0-.3-.2,0-.4.2-.6.4,0,.2.2.3.5.2,0-.1.1-.2.2-.3h0Z"/>
      <path class="st8" d="M115.6,49.5c0,.2-.4,1.5-.4,1.6,0,.3-.2.6-.4.8,0,0-.2,0-.2,0,0,0,0,.1,0,.2,0,.2-.2.3-.2.5-.2,0-.4.3-.4.5-.2.3-.5.5-.7.8-.1,0-.2,0-.4.2l-.7.7-.6.4c-.4.2-.7.5-1.1.8-.2,0-.3.2-.3.3-.2,0-2.4,1.1-2.3,1.1h-.4c-.2,0-.4,0-.4.2-.8,0-1.5.4-2.7.6l-1.7.4c-.3,0-.7.2-1,.1,0,0,0-.1,0-.1,0,0-.1,0-.2,0,0,0,0,.1,0,.2,0,0-.1,0-.2,0-.2,0-1.1,0-1,0-.5,0-1,0-1.6,0-1.4.1-1.2,0-2.3,0h-1.7c-.5,0-.9-.2-1.3-.2,0-.1-1.2-.2-1.3-.1,0,0,0-.2-.2-.2s-.2,0-.3,0c-.2,0-.6-.1-1.1-.1,0,0,0-.2,0-.2s-.2,0-.2.1c0,0-.2,0-.3,0,0,0,0-.2,0-.2s-.2,0-.2.1c-.2,0-.3,0-.4,0,0,0,0-.1,0-.2,0,0-.2,0-.3,0-.5,0-2.2-.5-2.8-.5,0-.3,0,0-.9-.5-.2-.1-.4,0-.7,0-.2,0-.3-.2-.5-.2-.3,0-.6,0-.9,0,0,0,0-.1-.1-.2l-.9-.5c-.5-.3-2.1-.3-1.9-.3,0,0,0,0-.1,0,0,0,0-.1,0-.2,0-.1-.2,0-.3,0-.3,0-1-.9-1.1-1,0-.3-.1-.3-.4-.4-.4-.2-.5-1.2-1.8-1.6,0,0,0-.1-.2-.2v-.2c0,0,.2,0,.2,0,0,0-.2-3.1.3-3.2.4,1.3.5,1.7,1.2,2.8l.4.7c.2.3.4.4.6.7.8.9.4.5,2.3,1l1.4.4.8.2c.9.2,1.8.5,2.7.7l.8.2c.3,0,.7.2,1,.2l1.3.3,1.4.2,2.1.3h1.2c1.2.2,2.4.2,3.6,0h2c0-.1,3.1-.6,3.1-.6l1.2-.3c.9-.2,2.8-.8,3.7-1.1l1.2-.5c.2,0,.4-.2.6-.3l.9-.5c.5-.3.9-.5,1.4-.8l1.1-.8c.5-.3,1.3-.9,1.6-1.3.2-.2,1-1,1.2-1h0Z"/>
      <path class="st1" d="M115.2,51.1c0,0,.4-1.4.4-1.6,0,.2.2-1,.2-1.2v-.9c.2-1,0-3.8-.3-4.8l-.2-.8c-.4-1.4-1-2.6-1.8-3.8-.8-1.3-1.9-2.3-3-3.3-.9-.8-3.1-2-4.2-2.4-.3,0-.5-.2-.8-.3-1.5-.4-3-.9-4.6-1-1.3-.1-4.4-.2-5.5,0h-.9c-.3.2-.7.2-1,.2l-2.1.4-1.3.4-.8.2c-.9.3-2.4.9-3.2,1.3l-.7.4c-.5.2-.9.5-1.3.8l-.7.4c-1,.7-2.8,2.2-3.6,3.2,0,.1-1,1.4-1.1,1.1,0-.5.3-.8.5-1.2.4-.9.8-1,.3-1.1.3-.6,1.3-1.1,1.5-1.9,0-.1,0-.3.1-.3,0,.2,0,.4,0,.7l.4-.4.6-.5c.3-.2.6-.5.9-.7.8-.5,2.2-1.5,2.9-1.9l.9-.5c.3-.2.6-.3.9-.4l.9-.4c.9-.4,1.9-.7,2.9-.9.3,0,.6-.2.8-.3.2.1.4,0,.6,0h.7c0,0,1.2-.2,1.2-.2h1c1.2-.2,1.8,0,2.7-.3.4.2,1.2,0,1.9.2.4,0,1.9.3,2.1.2,0,0,0-.3,0-.3.5.2-.2.4.6.5l1.7.4c.3-.9-.3-1.2,0-1.4.3.3,0,1.4.7,1.6,1,.3,2.3.8,3.3,1.3,1.3.6,3.4,2.2,4.3,3.2,1.3,1.7,2.2,2.9,2.9,5,.6,1.8,1,4.4.8,6.3-.2,1.7-.6,3.5-1.4,5.1,0,.1-.1.2-.3.2h0Z"/>
      <path class="st0" d="M61.8,121.1c-.2,0-.3,0-.5,0h0s0,0-.1,0l-2.4-.4c-1.3-.2-2.5-.6-3.8-1-.5-.2-1.1-.3-1.7-.5l-1.1-.4c-1.2-.4-2.5-1.1-3.6-1.7l-1-.5c-1.2-.7-3.8-2.5-4.6-3.6,0-.1-.2-.2-.2-.3v-.3s1.4.6,1.4.6c0,.1.2.2.3.1.2.2,2,1,2.3,1.1,4.3,1.4,4.6,1.5,9.2,2.2h.9c1.1.3,2.6.3,3.6.3,0,0,.2.1.2.2.1.1,0,.3,0,.5l.5,1.9c0,.3.1.6.2.9l.2.7c0,0,0,.2.1.4Z"/>
      <path class="st5" d="M113.3,53.9c-.3.6-.5.5-.8,1.1.4,1.1.8,2.1,1.1,3.2l.4,1.5c.5,2.1.5,3.8.6,5.8-.3,0-.5,0-.8-.2l-2-.7c-.2,0-.3-.1-.5,0v-3.4c0-1.1-.4-2.1-.6-3.2l-.4-1.7c0-.1.2-.2.3-.3.4-.2.7-.5,1.1-.8l.6-.4.7-.7c.1-.1.2-.2.4-.2h0Z"/>
      <path class="st8" d="M106.6,113.1c-.3.3-.5.7-.7,1-.2.3-.4.5-.7.8l-.5.6c0,.1-1.1,1.1-1.2,1.2-.2.1-.4.3-.5.5-.3.3-.8.5-1.2.8-.3.2-.5.4-.8.6l-1.3.8-1.5.8c-.7.3-1.3.6-2.1.9-.4.2-.9.3-1.3.5l-.8.3-.8.2c-.6.2-2.1.5-2.3.6,0,0-.2,0-.2,0,0,0,0-.1,0-.2,0,0,0-.2-.2-.1v-.2c.2-.1,0-.4,0-.7,0,0,.2,0,.2,0,0,.1.1.1.2,0,0,0,0,0,0-.1,0,0,.2,0,.3,0,.2,0,.9-.2.9-.2,0,0,0-.1,0-.2,0,0,.1,0,.2,0,0,0,.1.2.2.1,0,0,.2-.2,0-.2,0,0,.1,0,.2,0,0,0,.1.2.2.1,0,0,.2-.2,0-.2,1.3-.3,2.6-.8,3.9-1.4l1-.5.9-.6c1-.6,1.9-1.2,2.8-1.9.5-.4.9-.9,1.4-1.3,0,0,.6-.2,1.2-.8,0,0,1.3-1.4,1.4-1.4l.6-.7c.6-.7,1.2-1.5,1.7-2.2.1-.2.2-.4.4-.6,0-.2.1-.1.1,0,.3.7-1.3,3.5-1.7,3.9h0Z"/>
      <path class="st8" d="M86.1,25.1c0-.2.2-.4.3-.6.3,0,.3-.4.3-.6s.1-.4.3-.6c0,0,.2,0,.2,0,0,0,0-.1,0-.2,0-.2.3-.7.5-.8.2,0,.3-.2.3-.4,0-.2.8-1,1-1.1.2,0,.4,0,.6-.3.2,0,.4-.2.4-.4,0-.2.3-.2.5-.3.2,0,.4-.2.7-.1-.2.2,0,.4,0,.6,0,.8,0,1.5.1,2.3v1.2c.1,0,.2,1.1.2,1.1,0,.5.2,2.3-.2,2.5,0,0-.9-.4-1.2-.5-1.3-.6-2.6-1.1-4-1.5-.1,0-.2-.1-.2-.2h0Z"/>
      <path class="st8" d="M115.1,87.8c-.4.5-.6,1.1-1,1.6,0,.1-.1.2-.1.3s0,0,0,.1c-.2-.1-.9,1.1-1.3,1.3-.2.4-.5.7-.9.9l-.6.6c0,0-.1.2-.1.2,0,.1-.2.2-.2.2-.7.2-.5.4-1.4.8-.3.1-.5.3-.7.5-.3-1.6-.8-3.1-1.2-4.6l-.3-1.1-.4-1.1c-.4-1-.6-1.4-1-2.4-.2-.1,0-.3.1-.2.5.5,1.1,1.4,1.4,2l.7,1,.7,1.2.8,1.8c0,.2.4.1.6,0l1.1-.7,1.5-1.1c.4-.3.9-.6,1.3-1l1-1.1c.2-.2.4-.5.7-.7.5.2-.2,1-.3,1.2Z"/>
      <path class="st2" d="M113.7,70.9c.4.4,1.4.3,1.6,1.2,0,.1,0,.5-.2.5-.5.2-1.3,0-1.8.2-.4-.1-.7,0-1.1,0-.8,0-3.4.3-3.5-.6,0-.8,1.1-1,1.5-1h.4c.6-.2,2.7,0,3.2-.1h0Z"/>
      <path class="st2" d="M111.4,74.6c0,.5.5,0,.7.5.1.3.3.5.6.5,0,0,.2.2.2.2,0,.2.2.4.5.4,0,.3.5.5.3,1.3-1.4.3-1.8-.7-2.2-.6,0-.1,0-.2-.2-.3-.1,0-.3-.1-.3,0h-.2c0,0,0-.2,0-.2,0,0-.2-.2-.3,0-.2-.3-.6-.4-.9-.4-.3-.3-2-.5-1.9-1.4,0-1.1,2.3-.3,3,0,.2,0,.4.2.6,0h0Z"/>
      <path class="st1" d="M60.5,76.7c.3-.1.5.7,1,.9,0,.2.3.3.4.5.3.4.6.6.9.8-.2-.2,1.6,1.3,1.2,1.2-.5,0,0,.5-.6.5,0-.2,0-.5-.2-.5.2-.3-1.1-.9-1.4-1.3-.2-.3-.6-.5-.8-.7l-1.6-1.6c0,0-.8-1-.8-1.1-.2-.3-.5-.4-.6-.6,0-.2,0-.3-.1-.5.3,0,.8.9,1.2,1.3.3.4,1.2,1.5,1.4,1.4,0,0,0-.2.1-.2h0Z"/>
      <path class="st8" d="M104.9,83.1c0,0,0,.3-.1.3-.4.2-1.6,1-2,1.2-.1-.2-.3-.7-.5-.9.1-.4,1.1-.6,1.6-1,.2-.2.5-.1.7,0,0,0,0,.4.3.4Z"/>
      <path class="st0" d="M113.2,72.7c-.4.2-.8,1.2-1.1,1.8-.2.5.5.6.6,1-.2,0-.5-.2-.6-.5-.2-.5-.8,0-.7-.5.2-.5.8-1.3.7-1.9.3,0,.7,0,1.1,0Z"/>
      <path class="st11" d="M113.9,89.8c0,.2-.9,1.2-1.1,1.4-.3.4-.6.8-1,1.1-.4.2-.6.6-.8.6,0,0,0-.2.1-.2l.6-.6c.4-.2.7-.5.9-.9.4-.3,1.2-1.5,1.3-1.3Z"/>
      <path class="st11" d="M90,19.9c0,.2-.2.3-.4.4-.1.2-.3.3-.6.3.2-.4.6-.6,1-.7Z"/>
      <path class="st11" d="M90.3,121.2c0,.3.2.6,0,.7-.2-.1-.1-.4-.4-.5,0-.2.2-.3.4-.2h0Z"/>
      <path class="st0" d="M110.9,76.7c-.3.2-.6.6-.8.9-.1,0-.1,0,0-.2.2-.5.7-.2.5-1,.1,0,.2,0,.3,0,0,0,0,.2,0,.2Z"/>
      <path class="st11" d="M86.7,23.8c0,.2,0,.7-.3.6,0-.2,0-.6.3-.6Z"/>
      <path class="st0" d="M113.4,76.2c-.2,0-.4-.2-.5-.4.2,0,.4.2.5.4Z"/>
      <path class="st5" d="M114.4,52.6c0,.2-.2.4-.4.5,0-.2.2-.5.4-.5Z"/>
      <path class="st0" d="M111.6,76.9c-.2,0-.5,0-.5-.3,0-.1.2,0,.3,0,.1,0,.3.1.2.3h0Z"/>
      <path class="st11" d="M88,21.7c0,.2,0,.4-.3.4,0-.2.1-.4.3-.4Z"/>
      <path class="st1" d="M114.8,51.9c0,0,0,.2,0,.3,0,0,0,0-.2,0,0,0,0-.1,0-.2,0,0,.2-.1.2,0Z"/>
      <path class="st5" d="M115.2,66s-.1,0-.2,0c0,0-.2-.1,0-.2,0,0,.2,0,.3,0,0,0,0,.1,0,.2h0Z"/>
      <path class="st11" d="M87.2,23s0,.1,0,.2c0,.1-.2,0-.2,0,0,0,0-.2,0-.2,0,0,0,0,.2,0Z"/>
      <path class="st1" d="M62.6,80.2s0,0-.1,0c0-.2.2-.2.1,0Z"/>
      <path class="st5" d="M81,28.4c0,.1,0,.3,0,.3v.6c0,.1,0,.4.1.4v.8c0,.8,0,1.7,0,2.5v.7c-.2,0-.1.5-.1.5,0,.2,0,.4,0,.5,0,0,0,.2-.1.3-.2.8-1.2,1.3-1.5,1.9-.1,0-.2,0-.4.2,0,0-.3,0-.3.1,0,0-.1,0-.2,0,0,0-.3,0-.3.1-.2,0-.4.1-.6.1-.1,0-.4,0-.4.1-.2,0-.4,0-.6,0,0,0-.3,0-.3,0h-.6c-.1,0-.4,0-.4.1-.4,0-.8,0-1.2,0-.3,0-.5,0-.8,0-.3,0-.7,0-1.1,0,0-.2-.3-.1-.4,0-.5,0-1.3-.2-1.8-.7-.6-.6-.9-4.3-.7-5.2,0-.4,0-.7,0-1.1.2-.6,0-1.6.8-3.6.4-1,1-2,1.8-2.7,1.3-1.2,2.6-1.6,4.3-1.3.6,0,1.4.4,1.9.8,1.3,1,2.1,2.4,2.4,4,0,.2.1.4,0,.5h0Z"/>
      <path class="st1" d="M61.3,53.8c0,0,0,.2-.1.2l-1.4,1.4c-.4.4-2,2.8-2,3.4-.1.2-.3.4-.2.7-.2,0-.2.3-.2.4-.1.2-.2.6-.3.8,0,0,0,.2-.1.4v.7c-.3,1.1-.5,2.2-.5,3.3v1c0,.1,0,.2,0,.2,0,.2,0,.3,0,.5,0,.5,0,1.1.2,1.6l.4,1.6c0,.3,0,.5.2.7,0,.5.5,1.6.8,2.1.3.7.7,1.3,1.1,2,.1.2.2.4.4.5,0,.3.8.9.7,1.2-.1,0-.2-.1-.3-.2l-.5-.7c-.2-.2-.2-.4-.3-.7-.2-.3-.5-.8-.7-1.2,0-.3-.3-.4-.4-.7l-.5-1.1c0-.2-.5-1.8-.4-1.7-.3-.7-.3-.9-.4-1.5-.2-.9-.5-1.8-.5-2.7v-1.1c0-.4,0-.7,0-1.1v-1.3c.2-.6.4-1.8.6-2.3.5-1,.2-1.2,1.1-2.7l.4-.7c.1-.2.8-1.3.9-1.5l.5-.5,1.1-1.1c0,0,.2-.1.3-.2h0Z"/>
      <path class="st1" d="M76.3,52v.2c-.4,0-1-.4-1.3-.4-1.6-.9-4.9-1.3-6.8-.9h-.6c0,.1-2.2.6-1.7.7-.3,0-.6.2-.9.3,0,0-.2,0-.3,0-.2,0-.5.2-.7.3-.2.1-.5.2-.8.4-.2.2-1.4.9-1.6,1-.2-.2,2.2-1.6,2.3-1.7.5-.2,1-.4,1.6-.6l.7-.2c.4-.2,2.5-.5,2.9-.5h1.7c.3.1.7,0,1,0h.8c.2.2,2.2.8,2.5.9-.1,0,1.4.6,1.1.5Z"/>
      <path class="st5" d="M63.9,52.2c.1.2-.6.4-.6.9,0,.2.7,0,.7.2,0,0,.1.2,0,.3-.2.1-.5,0-.7,0-.4-.2-1.2,0-1.3.2-.2.2.3.7-.1.9-.2.1-.3,0-.5-.2-.2-.1-.5.2-.5.4-.1.2-.8.2-1.6,1.9-.2.5-.2,1.3-.9,1.2,0,.2,0,.4,0,.7-.4.1-.5.3-.8.3,0-.6,1.5-3,2-3.4l1.4-1.4c0,0,.1-.2.1-.2,0,0,.2-.1.2-.2.2,0,1.4-.8,1.6-1,.2-.2.5-.3.8-.4Z"/>
      <path class="st1" d="M81.2,32.9c0-.8,0-1.7,0-2.5,0,0,.2,0,.2.1v2.2c0,.1-.2.2-.2.1h0Z"/>
      <path class="st1" d="M74.4,37.8c0,0,0,.2,0,.2-.2,0-.5,0-.7,0,0,0-.1-.2,0-.2.3,0,.5,0,.8,0h0Z"/>
      <path class="st1" d="M57.7,74c-.2-.1-.4-.4-.4-.6.4,0,.4.6.4.6Z"/>
      <path class="st1" d="M81.1,34.2c0,0,0-.6,0-.5.2,0,.2.4,0,.5,0,0-.1,0-.2,0Z"/>
      <path class="st1" d="M55.8,70.6c0-.2-.3-.3-.2-.5.2-.1.4.4.4.4s0,.1-.1,0Z"/>
      <path class="st1" d="M92.5,27.4s0,.7,0,.5c-.2,0-.2-.4,0-.5,0,0,0,0,.2,0Z"/>
      <path class="st1" d="M92.6,26.5c0,.1,0,.4,0,.4-.1,0-.2-.2-.1-.3,0,0,.1-.1.2-.1Z"/>
      <path class="st1" d="M81.2,29.6c-.2,0,0-.3,0-.4.1,0,.2,0,.2.2,0,0,0,.2-.1.2h0Z"/>
      <path class="st1" d="M77.8,37.4c0,.1,0,.3-.2.3,0,0-.2,0-.2-.2,0-.2.3-.1.4-.1Z"/>
      <path class="st1" d="M72.5,37.8c0,.1-.2.2-.3.1,0,0-.1-.1,0-.2.1,0,.4,0,.4,0h0Z"/>
      <path class="st1" d="M75.9,37.7c0,.1,0,.2-.2.2,0,0-.2,0-.2-.1,0-.2.3,0,.4,0h0Z"/>
      <path class="st1" d="M93.5,24c0,.2,0,.4-.2.4,0,0,0-.2,0-.3,0,0,.2,0,.2,0Z"/>
      <path class="st1" d="M57.3,73.3c0,0-.1,0-.2,0,0,0,0-.2,0-.3,0,0,.2,0,.2,0,0,0,0,.1,0,.2h0Z"/>
      <path class="st1" d="M76.8,37.6c0,0,0,.2,0,.2-.1,0-.2-.1-.2-.1,0-.1.2,0,.3,0h0Z"/>
      <path class="st1" d="M78.7,37.2c0,0,0,.2,0,.2s-.2,0-.2-.1c0-.1.2-.1.3-.1Z"/>
      <path class="st1" d="M79.1,37.1v.2c0,0-.1,0-.2,0,0,0,0,0,0-.1,0-.1.2-.1.3-.1Z"/>
      <path class="st1" d="M81.1,28.6c-.1,0-.1-.2,0-.3,0,0,.2,0,.2,0,0,.1,0,.2-.1.2Z"/>
      <path class="st0" d="M77.4,88.5h0c0,.2,0,.2,0,0Z"/>
      <path class="st0" d="M102.8,84.7c-.3,0-.7.2-1,.4-.9.5-1.8.8-2.8,1.2-.2,0-.4.2-.7.3-.5.1-1,.3-1.5.5-2.4.8-5.3,1.4-7.8,1.7h-1.1c0,.1-1.4.2-1.4.2-1.5.1-3.9,0-5.5-.1h-1c-.6-.2-1.2-.3-1.7-.4-.3,0-.7,0-.9,0,0,0,0,0,0-.1,0,0,0-.1,0-.2,0-.1,0-.3,0-.4,0,0,0-.1,0-.2,0,0,0,0,0,0,0,0,.2-.1.3-.2.2-.9.6-1.1.7-1.8.2,0,.4,0,.6,0l1.1.2,3.4.5h1c0,.1.9.2.9.2.9.1,1.3,0,2.2.1.9,0,3.6,0,4.6-.2,3-.3,5.8-1.2,8.6-2.3.4-.2.8-.4,1.2-.5.2.3.3.7.5.9,0,0,0,0,0,0h0Z"/>
      <path class="st8" d="M78.4,85.7l-.5,1.2c-.1.2-.1.4-.2.6,0,.2-.2.7-.2.9,0,.2,0,.2,0,0,0,0,0,0,0,0,0,0-.1-.1-.3-.2l-1.2-.4-1.6-.4c-.3,0-.7-.2-1-.3l-1.3-.4-2.3-.7c-1.8-.5-1-.4-2.6-1.1-.5-.2-.9-.6-1.4-.7-.7-.2-1.4-.7-2-1l-.5-.3c-.1,0-.2-.2-.3-.2-.1-1.3.4-1,.8-2.2.5,0,0-.5.6-.5,0,0,0,0,0,0,0,0,0,0,0,0,0,.2.2.4.4.4s.2,0,.3.1c0,0,0,.2,0,.2,0,0,.1,0,.2,0,.3,0,.9.6,1.7.9-.1.2.4.4.6.4,0,0,.1,0,.2,0-.2.1.6.5.8.5.2,0,.4.1.6.2,0,0,0,.2,0,.2,0,0,.1,0,.2,0,.1,0,.2,0,.3,0-.3.2,2,.8,2.2.8.2,0,.6.2.8.2,0,.1,0,.2.2.3l.9.3c0,0,2.6.7,2.3.4,0,0,.1,0,.2,0,0,0,0,.2,0,.2,0,0,.2,0,.2-.1,0,0,.1,0,.2,0,0,0,0,.1,0,.2.1,0,.3,0,.4,0,.2,0,.5,0,.7,0-.2,0,.5.2.4.4h0Z"/>
      <path class="st0" d="M74.6,108.7c-.4,0-.7-.3-.9-.6,0-.8,0-1.7,0-2.6,0-.6,0-1.1,0-1.6v-2c0,0,.2-1.2.2-1.2l.4-2.5c0,0,0-.2,0-.2,0,0,0,0,.2,0,0,.2,0,.4,0,.7,0,0-.2,1.3-.2,1.4v.6c-.4,1.4-.3,4.3-.3,5.8,0,.7,0,1.9.6,2.2,0,0,0,.1,0,.1Z"/>
      <path class="st0" d="M76.2,92l-.4,1.3c0,.3-.7,2.7-.8,2.9l-.2.9c0,.2,0,.4-.2.4.2-1.8.8-3.7,1.4-5.5,0-.3.2-.6.3-.7.1.2,0,.4-.1.6Z"/>
      <path class="st0" d="M80.5,117.5c-.2,0,0-.3-.2-1-.1-.6-.3-1.1-.5-1.6-.2-.4-.3-.7-.4-1.1,0,0,.1,0,.2,0,0,0,0,.2,0,.2l.6,1.2.3,1c.2.5,0,.8,0,1.2h0Z"/>
      <path class="st0" d="M75.7,109.4c-.1,0-1.1-.7-1-.7.1,0,1.1.4,1,.7Z"/>
      <path class="st0" d="M76.5,110.1c0,.2-.9-.7-.7-.7.2,0,.7.5.7.7Z"/>
      <path class="st0" d="M80.2,120.4c0,.1.1-1.3.2-1,.3,0,0,1.3-.2,1Z"/>
      <path class="st11" d="M92,120.8c0,0,0,.1,0,.2,0,0-.7.2-.9.2-.3-.2.8-.4.9-.3Z"/>
      <path class="st0" d="M79.3,113.7c-.2.2-.4-.6-.5-.8.2-.2.5.6.5.8Z"/>
      <path class="st1" d="M76.7,90.2v.4c-.1.1-.1.2-.2.2-.2,0,0-.6,0-.6,0,0,.1,0,.2,0Z"/>
      <path class="st0" d="M78,111.7c-.2,0-.3-.2-.3-.4.2,0,.3.2.3.4Z"/>
      <path class="st0" d="M78.3,112.1c-.2,0-.3-.2-.3-.3.2,0,.2.2.3.3Z"/>
      <path class="st0" d="M78.6,112.5c0,0-.1,0-.2,0,0,0,0-.2,0-.3,0,0,.2,0,.2,0,0,0,0,.2,0,.2h0Z"/>
      <path class="st11" d="M93,120.6c0,0,0,.2,0,.2,0,0-.2,0-.2-.1,0-.2.2,0,.3-.1Z"/>
      <path class="st11" d="M92.5,120.7c0,0,0,.2,0,.2,0,0-.2,0-.2-.1,0-.1.2-.1.3-.1h0Z"/>
      <path class="st11" d="M90.8,121.2c0,0,0,.1,0,.1,0,0-.2,0-.2-.1,0,0,0,0,0-.1,0,0,.1,0,.2,0h0Z"/>
      <path class="st8" d="M60.4,116.6c-1,0-2.5,0-3.6-.2h-.9c-4.6-.8-4.9-.9-9.2-2.3-.3-.1-2.1-.9-2.3-1.1,0,0,0-.2,0-.2,0,0-.2,0-.2.1l-1.3-.6c0-.5-.8-1.3,0-.9l1.2.7.5.3,1.4.7c.9.5,2.6,1.1,3.6,1.2l1,.2h1c0,.1.9.2.9.2,1,.1,3.7,0,4.8-.3.7-.3,1-1,.8-1.7-.2-1-.4-2-.5-3v-1.1c-.2-.7-.3-5.1.2-5.6.3,0,.2,1.5.3,2.1v.9c0,0,.2,1.1.2,1.1v.9c.2.4.3.8.4,1.2l.2.8c.6,2.2.8,2.6,1.5,4.6.2.6.2,1.2.2,1.8Z"/>
      <path class="st8" d="M64.8,96.6c-1.7.3-2.2-.6-3.2.3-.8.4-1.7-.1-2.5,0-.1,0-.1-.3,0-.4.2-.4.2-.8.3-1.2,0-.4.2-.7,0-1.1.6,0,1.8.7,1.9.8l1.1.4c.3,0,.5.3.8.4l.8.2c.2,0,1.2.2.9.6Z"/>
      <path class="st3" d="M110.3,56.2l.4,1.7c.2,1.1.6,2.1.6,3.2v3.4c-.2.6-.2,1.3-.5,2.2-.2.5-.5,1.1-.8,1.5-1.2,1.8-3.4,3-5.6,3.3-2.7.5-4.7-.9-7-1.7-.6-.4-1.1-.9-1.8-1-1.2,0-3.8,0-4.7.7-.8,0-2,.8-2.8,1.3l-2.2,1.4c-1.2.8-3.5,1.5-4.9,1.6h-1.1c-.3.1-.7.1-1,0h-1.4c-1.1-.2-3.5-1.2-4.4-2.2-.2-.2-.6-.3-.8-.6-.2-.2-1-1.3-1.1-1.1,0,0,0,0,0-.1,0-.2,0-.3,0-.5,0-1-.2-1.6,0-2.6,0,0,.1,0,.1-.2,0,0,0,0-.1-.1,0-.7.6-3.8,1.1-4,.3,0,0,2.7.2,2.7,0,1.2.7,3.3,1.7,4.2l.6.5c1,.8,2.3,1.3,3.6,1.4h.6c1,.2,2.8,0,3.7-.3.8-.2,1.9-.7,2.6-1.1.4-.2,1.2-1,1.3-1.4.7-.2,1.6-.9,2.4-1.2.4-.1.7-.3.9-.4,0,0,1.4-.3,1.6-.3h1c.8-.2,2.1-.2,2.9,0,2.1.4,3.9,1.6,6.1,2.3,1.5.5,4.1.3,5.3-.9.2-.2.5-.4.6-.6,1.1-1.4,1.4-3.2,1.4-5,0-.7,0-2.2-.3-2.8l-.5-1.7c0-.3-.2-.5-.2-.7,0,0,2.1-1.2,2.3-1.1h0Z"/>
      <path class="st5" d="M74.9,51.8c-.1.3-.3-.2-.7.3-.2.3-.9-.1-.9.4,0,.7-.6.3-1.3.7,0,0-.2,0-.2,0-.3-.2,0-.7-.2-.8l-.7-.3c-.2,0-.5,0-.6,0-.2.5-.7.8-1.1.7-.3,0-.5,0-.7,0-.4,0-.2-.5-.2-.7,0-.3-.4-.5-.6-.7-.1-.3-.4-.2-.6,0-.4.2-.9.1-1.3,0-.5,0,1.7-.5,1.7-.5h.6c1.9-.5,5.2-.1,6.8.8h0Z"/>
      <path class="st2" d="M72,76.8c-.2,0-.3,0-.3.2,0,0-.1.1-.1.2-.3.2-.5.5-.8.6-.4,0-.8-.2-.9-.5v-1c.4,0,.6-.3.6-.5,1.1-.7,1.3-1.1,2.6-1.4.6-.2,1.6-.3,1.7.6,0,.5-.2.9-.6.9-.5,0-2.1.4-2.1,1h0Z"/>
      <path class="st0" d="M78.3,53.9c0,.2.2.4.4.4,0,.1.8,1,1.1,1,0,0,0,.2,0,.2,0,0,.1,0,.2,0,0,0,0,0,.1,0,.2.5-1.5.5-1.5.9-.4,0-.9.4-1.4.5,0-.3,0-.7-.3-1,0,0,0-.2,0-.3,0-.4-.1-.8-.2-1.2v-.8c-.2-.4-.2-.7-.3-1,0-.2,0-.3,0-.5,1.3.4,1.4,1.4,1.8,1.6h0Z"/>
      <path class="st2" d="M76.1,79l-.2.4c-.1.2,0,.5-.3.7-.3.4-1,.4-1.3,0-.5-.7.3-1.5.3-2,.5-.7.8-1.7,1.7-2,.4-.1.8,0,.9.3.1.2.2.6,0,.9-.5.5-.8,1.1-1.1,1.7Z"/>
      <path class="st5" d="M56.6,66.4s0-.1,0-.2v-1c0-1.1.1-2.2.3-3.3v-.7c.2-.2.2-.3.3-.4.5.2-.3.9.4,1.1.3,0,.5.4.4.7,0,0-.3,0-.4,0-.5.8.4,1.4,0,1.7-1,.6-.3,2-.8,2.1h0Z"/>
      <path class="st6" d="M70.7,77.7c.3,0,.5-.4.8-.6,0,.2.5,1.1.8,1.4l.8,1.2.8.9c-.1.2-.3,0-.5,0l-1-.8c-.4-.3-1.6-1.7-1.7-2.1h0Z"/>
      <path class="st5" d="M66,66c-.4.2-.8,0-1.2-.1-.2,0-.1-.4,0-.4.6-.2,1.2,0,1.4-.2,0-.1-.5-.6-.2-1,0,0,.3,0,.4-.1.4-.5.5.3,1.7-.2,0,.2,0,.4,0,.6-.3.5-1,.2-1.4.3,0,.4-.2,1-.6,1.2h0Z"/>
      <path class="st5" d="M76.4,52.8c0,.3,0,.6.2,1v.8c.2.5.4.8.3,1.2-.6.1-.6-.8-1.3-1.1-1-.5.9-.7-.4-1.5.2-.6.7-.2,1.1-.5h0Z"/>
      <path class="st5" d="M71.1,64.8c-.5.2-.3-.6-.8-.4,0,0-.2,0-.2,0-.2,0-.2-.4-.3-.4s-1.2,0-1.1,0c-.9-.3.6-.2.9-.4.2-.2,0-.6.3-.7.5-.2.3.7.7.7.2,0,.4-.2.5,0,.2.3.3.7.4,1.1h-.3c0,.1,0,.1,0,.1Z"/>
      <path class="st5" d="M57.5,70.8c-.2-.2-.2-.4-.2-.7l-.4-1.6c-.1-.6-.2-1.1-.2-1.6.6-.1-.1.7.9,1.4.4.3.4,1.4.2,1.5-.6.5,0,.5-.3.9Z"/>
      <path class="st5" d="M70.7,60.2c-.6,0,.1.6-.3.7-.3,0-.4,0-.5-.2s0-.3.1-.5v-.7c0-.9-.2-.2,0-.7,0-.2.5.1.6-.3,0-.2.2-.3.4-.3.1,0,.2,0,.2,0,0,.1,0,.2,0,.3l-.6.6c.2.3.8.3.7.8,0,0-.2.2-.4.2h0Z"/>
      <path class="st5" d="M65.8,67.1c.2.6-.6.3-.7,1.4,0,.1,0,.2-.1.2-.4.2-.4-1.1-.4-1.2-.2-.3-.5,0-.7-.1,0-.1,0-.2,0-.3.3-.2-.2-.8,0-.9l.5-.3c.2.3,0,.6,0,.9,0,.3.2.4.5.4.1,0,.2,0,.3,0,0,0,0-.2.1-.4,0-.2.4,0,.4.2h0Z"/>
      <path class="st5" d="M59.7,75.4c-.2,0-.3-.3-.4-.5-.4-.7-.8-1.3-1.1-2,.5,0,.7-.2,1-.1,0,0,.3.8,0,1.2.2.3.5.9.4,1.3h0Z"/>
      <path class="st1" d="M77,57.3c-.1.2-.3.4-.6.5-.4.2-.7.6-1,.9-.3.3-.7.5-.9.8,0,.1-.9,1.1-.9.9,0-.3.6-.5.6-1,0,0,.2,0,.2-.1l.9-.9c-.2.2,1.7-1.3,1.7-1.1h0Z"/>
      <path class="st1" d="M73.3,60.9c0,.4-.6.9-.6,1.7v2.7c0,0,0,.2-.1.2-.3,0,0-2.7-.2-2.7,0-.5.2-.6.2-1,.2,0,.5-.9.7-.9Z"/>
      <path class="st5" d="M62.1,71.2c-.3,0-.2-.5-.3-.7-.2,0-.4,0-.5-.1-.1,0,0-.3.2-.3.7,0,.3-.4.9-.4.2,0,.3,0,.4.3.3.5-.4.3-.3.7,0,.2-.1.6-.4.5h0Z"/>
      <path class="st5" d="M74.2,59.4c0,.5-.7.7-.6,1,0,0,0,0,0,0,0,0-.2,0-.2,0,0,0,0,.1,0,.2s0,0,0,.1c-.2,0-.5.8-.7.8,0,0,0,0,0-.1.1-.6-.3-.5.2-.9.2-.1,0-.4,0-.6.8,0,.7-.7,1.3-.7h0Z"/>
      <path class="st5" d="M71.1,66.8c-.1,0-.3,0-.5,0-.1,0-.1.2-.2.3,0,.2-.2.1-.3.1-.4,0,0-.6-.1-.8-.2-.2-.4-.3-.4-.7.2,0,.5,0,.7,0,.3.2.5.7.7,1h0Z"/>
      <path class="st5" d="M71.6,60.8c.4-1.2-1.2,2.5-.7.9,0-.3,0-.5,0-.7,0-.4.4-.6.5-1,0-.2.2-.4.4-.3,0,0,.1.2.3.4-.4.2-.4.4-.5.7Z"/>
      <path class="st5" d="M67.1,81.7c0,0-.2,0-.3,0-.8-.2-1.4-.8-1.7-.9,0,0,0-.2,0-.2,0,0-.1,0-.2,0,0,0-.2-.1-.3-.1,0-.1-.1-.2-.2-.3.2,0,.3,0,.6.1l.7.4c.4.2.7.5,1.1.6.2,0,.3.2.3.4h0Z"/>
      <path class="st5" d="M77.2,57.1h0c-.1.1-.2.2-.2.3,0-.2-1.9,1.2-1.7,1.1,0-.4.4-.6,1.1-1.2l.5-.5c.2-.2,0-.5,0-.6.2.3.3.6.3,1h0Z"/>
      <path class="st1" d="M76.2,84.9c.3.2-2.2-.4-2.3-.4l-.9-.3c-.1,0-.3-.2-.2-.3.2,0,.3,0,.5.1l2.7.7c.1,0,.2,0,.2.2h0Z"/>
      <path class="st1" d="M78.7,85.5c0,.7-.5.9-.7,1.8,0,.2-.2.2-.3.3,0-.2,0-.4.2-.7l.5-1.2c.1-.3-.6-.4-.4-.5.2,0,.5,0,.7.2Z"/>
      <path class="st1" d="M71.9,83.8c-.2,0-2.6-.6-2.2-.8.3,0,1.4.4,2.1.6.1,0,.2.1.1.2h0Z"/>
      <path class="st5" d="M62.8,78.9c-.3-.2-.7-.4-.9-.8-.1-.2-.4-.3-.4-.5.2,0,.3,0,.5.2.2.2.8.9.8,1.1Z"/>
      <path class="st6" d="M70.4,75.7c0,.2-.2.4-.5.5-.2-.3-.3-.6-.3-1,.3,0,.5.3.7.4Z"/>
      <path class="st5" d="M71.2,69.6c0,.2,0,.3,0,.5-.2.1-.6.2-.8-.1-.2-.4.6-.3.7-.4h0Z"/>
      <path class="st5" d="M65.2,61c.2,0,.3.1.3.3,0,.2-.3.2-.4.2,0,0-.3,0-.3-.3s.2-.2.4-.2Z"/>
      <path class="st5" d="M68,65.4c.2.1-.2.3-.4.3-.2,0-.3,0-.2-.3,0-.1.4-.2.7,0Z"/>
      <path class="st5" d="M62.9,62.6c0-.2,0-.4.2-.4.2,0,.2,0,.3.2,0,.1,0,.2,0,.3-.1.1-.3.2-.4,0h0Z"/>
      <path class="st5" d="M70.1,69c0,.2,0,.3,0,.4,0,0-.2.2-.3,0,0,0,0-.3.1-.5,0-.2.2-.2.3,0h0Z"/>
      <path class="st1" d="M68.5,82.6c-.2,0-1-.3-.8-.5.2,0,1,.3.8.5Z"/>
      <path class="st5" d="M59.4,66.3c0,.2-.2.2-.3.2s-.3-.2-.2-.4c.1-.2.5,0,.5.2Z"/>
      <path class="st5" d="M66.4,54.9c-.1,0-.2,0-.2,0,0-.1.3-.4.3-.4.2,0,.2.1.2.3,0,.1,0,.2-.3.2h0Z"/>
      <path class="st5" d="M70.3,57c.2,0,.2,0,.2.2,0,0,0,.2-.2.2,0,0-.1,0-.2-.2-.1-.2,0-.2.3-.2h0Z"/>
      <path class="st5" d="M68.5,62.7c-.2,0-.3,0-.3-.1,0,0,0-.1,0-.2.1-.1.2-.1.3,0,.1,0,.2.3,0,.4h0Z"/>
      <path class="st1" d="M67.1,81.7c0,0,.1,0,.2.1.1,0,.2.1.2.2-.3,0-.8-.1-.7-.4,0,0,.2,0,.3,0h0Z"/>
      <path class="st6" d="M69.8,76.7v.5c-.2,0-.2,0-.2-.3,0-.1,0-.2,0-.2,0,0,.1,0,.2,0Z"/>
      <path class="st1" d="M64.4,80.2c0,.1.1.2.2.3-.2,0-.4-.2-.4-.4,0,0,.2,0,.2,0Z"/>
      <path class="st5" d="M63.3,64.6c0,.3-.3.3-.3,0,0-.2.3-.2.3,0Z"/>
      <path class="st1" d="M77.3,85.2c0,0-.2,0-.4,0,0,0-.1-.1,0-.2,0,0,.2,0,.4,0,0,0,.1.1,0,.2h0Z"/>
      <path class="st5" d="M75.1,57.4c0,.3-.3.4-.3,0,0-.2.2-.3.3,0Z"/>
      <path class="st5" d="M57.4,59.9c0-.1,0-.4.2-.4,0,0,0,.1,0,.3,0,.2-.2.2-.3.1Z"/>
      <path class="st5" d="M64.9,51.8c0,0,0,.1,0,.2,0,0,0,0-.2,0,0,0-.1,0,0-.2,0,0,.2,0,.3,0h0Z"/>
      <path class="st1" d="M76.7,85c0,0-.1.1-.2,0,0,0-.2-.2,0-.2,0,0,.1,0,.2,0,0,0,.1,0,0,.1h0Z"/>
      <circle class="st5" cx="71.9" cy="57.7" r=".1"/>
      <path class="st5" d="M68.3,70.9c0,.1-.2,0-.3.1,0,0,0-.1,0-.2,0,0,0,0,.2,0,0,0,0,0,0,.1h0Z"/>
      <path class="st4" d="M71.2,67c-.2,0,0-.2-.1-.3h.1s0,0,.1,0c0,0,0,.2-.1.2h0Z"/>
      <path class="st6" d="M73.2,77.6c0,0-.2,0-.3,0,0,0,0-.1,0-.2,0,0,.1,0,.2,0,0,0,.2.1,0,.2h0Z"/>
      <path class="st5" d="M61,55.4c.1-.2.2,0,.3,0s0,.2,0,.2c0,0-.2,0-.2-.2h0Z"/>
      <path class="st1" d="M69.3,82.9c0,0-.1,0-.2,0,0,0-.2-.1,0-.2,0,0,.2,0,.3,0,0,0,0,0,0,.2h0Z"/>
      <circle class="st5" cx="70.9" cy="55.2" r=".1"/>
      <path class="st6" d="M72,76.8v.2s-.3,0-.3,0c0,0,.1-.2.3-.2Z"/>
      <path class="st2" d="M95.1,74c0,.9.5,1.8,1.5,2,1.1.2,2.1-.3,2.7,0-.2.2-.4.3-.7.3-.4.1-2.3.9-2.5,1.1-.4.5-.1,2.1-1.9,3.4-1.1.8-2.5,1.1-3.8.9-2.8-.3-4.3-2.8-5.1-5.3,0-.6-.3-2,.4-2.3.7-.3,1.5.8,2.5,1.3,1.2.5,2.9,1.1,4.2.7.9-.3,1.4-1.2,1.3-2.2.5,0,1,0,1.5,0h0ZM92.7,79.9c.9-1.8-1.7-2.9-3.2-3.2-.2,0-2.4-.2-2.5.2.2.8.6,1.4,1.1,2,1.4,1.7,4,2,4.6.9Z"/>
      <path class="st9" d="M97.4,69.9c.4,1.4.6,2.2-.8,3.2-.5.3-1.3.5-1.6.8-.5,0-1,0-1.5,0,0,0-.1-.1-.2-.1-.4,0-.7-.1-1-.2-1.3-.3-2.6-1.5-2-2.9.4-.9.5-.6.6-1.1.9-.7,3.4-.8,4.7-.7.8,0,1.3.6,1.8,1h0Z"/>
      <path class="st7" d="M113.5,70.6c0,.1,0,.2-.2.3-.2,0-.4,0-.5-.2.2-.2.3-.3.6-.4.1,0,.1.2,0,.3h0Z"/>
      <path class="st11" d="M107.9,57.3c0,.2.2.5.2.7l.5,1.7c.2.6.3,2.1.3,2.8,0,1.8-.3,3.6-1.4,5-.2.2-.4.4-.6.6-1.2,1.2-3.8,1.4-5.3.9-2.2-.8-4-2-6.1-2.3-.8-.2-2.2-.2-2.9-.1h-1c-.2.2-1.7.5-1.6.5,0-.2,0-.3-.1-.5l-1.2-2.4-1.8-3.7c.1,0,.1-.1.1-.2,0,0-.2-.1-.2,0v-.2c0,0,0-.2,0-.3,0-.2-.2-.2-.2-.1,0-.1-.1-.2-.1-.4h.5s0,0,0,.1c.2.4.5,1.2,1,1.2h0c0,0,0,.2,0,.3,0,0,.2,0,.2-.1h.3c0,0,.1.2.2.1,0,0,.2-.2,0-.2,0,0,.1,0,.2,0,0,0,.3,0,.4,0,0,0,.1-.1.1-.3,0,0,0,0,.1,0,0,0,.1,0,.1-.1,0,0,.1-.1.2-.1,0,0,.1,0,.2,0,0,0,.1-.2,0-.2h.3c.2-.1.4-.2.4-.5,0-.1.2-.2.4-.2.3,0,.5-.2.5-.5.1,0,1.3,0,1.3.1,0,.1,0,.3.2.4l1.6,1.6.8.7c.5.4,1,.9,1.6.5.4-.2,1.4-1.6,1.6-1.4-.6,1.5-.8,2.3-.7,4,.2,1.4.6,2.6,2,3.2.6.2,1.2.1,1.8,0,1.1-.5,1.8-1.8,1.8-3,.2-.4.1-.9,0-1.4,0-1.7-1.4-4.1-3.3-3.7l-1.1.2c0-.4.6-.5.6-1,0-.2.8,0,1,0,0,.2.1.3.3.4.4.2.7.5,1.1.7.8.5,2.2,1.6,2.8.7l1.4-2.3c.1-.2.2-.4.2-.6,0-.2.2-.3.4-.3h.4s0,0,0,0Z"/>
      <path class="st5" d="M100.3,58.9c0,.4-.6.5-.6,1-.2.1-.4.3-.5.6-.2-.1-1.3,1.2-1.6,1.4-.6.4-1.1,0-1.6-.5l-.8-.7-1.6-1.6c-.1-.1-.2-.2-.2-.4.4,0,.9,0,1.3,0h1.7c1.2.1,1,.2,2.3,0,.5,0,1.1,0,1.6,0h0Z"/>
      <path class="st5" d="M107.2,57.6c0,.2-.1.4-.2.6l-1.4,2.3c-.6.9-2-.2-2.8-.7-.4-.2-.7-.5-1.1-.7-.2,0-.3-.2-.3-.4,0,0,.1,0,.2,0,0,0,.3,0,.3,0,.3,0,.6,0,1-.1l1.7-.4c1.1-.2,1.8-.6,2.7-.6Z"/>
      <path class="st5" d="M88.8,58c0,0,0,.2.1.2,0,0,.1,0,.2,0,.2,0,.3,0,.4,0,0,.1.2,0,.3,0s.2,0,.3,0c0,.2.2,0,.3,0,.5,0,.9.2,1.1.1,0,0,.1,0,.2.2-.2.1-.2.2-.2.4-.2,0-.3,0-.4.2-.2,0-.4.2-.4.3h-.3c0,.2-.2.1-.2.2,0,0,0,0,0,.2,0,0-.2,0-.2.1,0,0-.2,0-.1.1,0,0,0,0-.1,0-.1,0-.7.2-.5.3,0,0-.1,0-.2,0,0,0-.3,0-.3.1h-.3c0-.1-.2-.1-.3-.1h0c.3.1-1.1-1.6-1-1.2,0,0,0,0,0,0,0-.2-.9-1.4-1.1-1.7,0,0,0-.2,0-.1.7,0,2.3.6,2.8.5h0Z"/>
      <path class="st3" d="M83,56.5c-.1,0-.2,0-.4,0h-2.4s-.9,0-.9,0c-.1,0-.2.2-.1.2-.2,0-.4,0-.6,0,0,0,0-.2,0-.2,0-.4,1.7-.4,1.5-.9-.2,0,1.4,0,1.9.3l.9.5c0,0,.1,0,.1.2h0Z"/>
      <path class="st1" d="M83,56.5c.3,0,.6,0,.9,0,.2,0,.3.2.5.2.2,0,.5,0,.7,0,.9.5.8.2.9.5,0,0-.1,0,0,.1.2.4,1.1,1.5,1.1,1.7h-.5c-.4-.4-.7-1.5-1.2-2-.4-.3-1.1-.5-1.6-.5h-.9c-.1,0-.2-.1-.2-.2.1,0,.2,0,.4,0h0Z"/>
      <path class="st1" d="M92,58.7c0,.2-.3.5-.5.5,0-.1,0-.2.2-.4,0,0-.1-.1-.2-.2,0,0,.2,0,.3,0,.1,0,.2,0,.2.2h0Z"/>
      <path class="st3" d="M78.6,54.3c-.2,0-.3-.2-.4-.4.2,0,.3.2.4.4Z"/>
      <path class="st3" d="M80,55.6c0,0-.1,0-.2,0,0,0-.2-.1,0-.2,0,0,.2,0,.3,0,0,0,0,.1,0,.2Z"/>
      <path class="st1" d="M89.1,58.2c0,0-.1,0-.2,0,0,0-.2-.1-.1-.2,0,0,.2,0,.3,0,0,0,0,0,0,.2Z"/>
      <path class="st1" d="M89.8,58.3c0,0-.3,0-.3,0,0,0,.1-.2.2-.1s.2.2,0,.2Z"/>
      <path class="st1" d="M90.4,58.4c0,0-.3,0-.3,0,0,0,.1-.2.2-.1s.2.2,0,.2Z"/>
      <path class="st11" d="M101.8,58.7c0,.1-.2,0-.3,0,0,0,0-.1,0-.2,0,0,0,0,.2,0s0,0,0,.1Z"/>
      <path class="st11" d="M44.4,113c0,0-.3,0-.3-.1s.1-.2.2-.1c0,0,0,.2,0,.2Z"/>
      <path class="st1" d="M65.2,80.8c0,0-.1,0-.2,0,0,0-.2-.2,0-.2,0,0,.1,0,.2,0,0,0,.2.1,0,.2h0Z"/>
      <path class="st11" d="M79.2,56.8h.9c.1.8.5,1.4.7,2.1l.7,2.1c-.7.1-1.3.7-1.7,1.4-.6,1.1-.4,1.6-.6,2.7.1.3,0,.6.2,1,.1.8.5,2,1.1,2.5,1.5,1.3,3.3.4,4.3-.9.2-.2.2-.3.3-.6.4,0,1.3,1.3,1.6,1.6,0,.4-.9,1.2-1.3,1.4-.7.4-1.8.8-2.6,1.1-.9.3-2.7.5-3.7.4h-.6c-1.3-.2-2.6-.7-3.6-1.5l-.6-.5c-1-.8-1.7-2.9-1.7-4.2,0,0,.1,0,.1-.2v-2.7c0-.8.5-1.3.6-1.7,0,0,0,0,0-.1,0,0,.2,0,.2,0,0,0,0-.1,0-.2s0,0,0,0c0,.2.9-.8.9-.9.2-.3.6-.5.9-.8.3-.3.6-.6,1-.9.2-.1.4-.3.6-.5,0,0,.1-.2.2-.1,0,0,1.5-.3,1.4-.4.2,0,.4,0,.6,0h0Z"/>
      <path class="st12" d="M82.7,56.6c0,0,0,.2.2.2h.9c.5,0,1.2.1,1.6.5.5.4.8,1.6,1.2,2,0,.1,0,.2.1.4,0,0,0,.2,0,.3,0,0,.1.1.2,0v.2c0,.1,0,.2.2.3l1.8,3.7,1.2,2.4c0,.2.2.3.1.5-.3.1-.6.3-.9.4-.8.3-1.7,1-2.4,1.2-.2-.3-1.2-1.6-1.6-1.6,0-.8.1-1.1,0-2.1v-.8c-.2-1.8-1.7-3.6-3.7-3.2l-.7-2.1c-.2-.7-.6-1.4-.7-2.1l.2-.3h2.4s0,0,0,0Z"/>
      <path class="st1" d="M78.6,56.6c0,0,0,.2,0,.2,0,0-1.4.4-1.4.4h0c.4-.3.9-.7,1.4-.6h0Z"/>
      <path class="st1" d="M73.6,60.5c0,0,0,.1,0,.2,0,0-.2.1-.2,0,0,0,0-.1,0-.2,0,0,.1-.2.2-.1Z"/>
      <path class="st9" d="M92.7,79.9c-.5,1.1-3.1.8-4.6-.9-.5-.6-.8-1.3-1.1-2,0-.4,2.3-.2,2.5-.2,1.4.2,4.1,1.4,3.2,3.2Z"/>
      <path class="st10" d="M99.2,60.5c.1-.2.3-.5.5-.6l1.1-.2c1.9-.4,3.4,2,3.3,3.7.1.5.2.9,0,1.4,0,1.2-.7,2.5-1.8,3-.6.1-1.2.2-1.8,0-1.4-.5-1.8-1.8-2-3.2-.1-1.8,0-2.5.7-4Z"/>
      <path class="st1" d="M87.9,60.6c-.5,0-.8-.8-1-1.2-.1-.3,1.2,1.4,1,1.2Z"/>
      <path class="st1" d="M89.7,60.3c0,.1,0,.2-.1.3-.1,0-.3,0-.4,0-.2-.1.4-.3.5-.3Z"/>
      <path class="st1" d="M91.1,59.3c0,.2-.2.4-.4.3,0-.2.2-.3.4-.3Z"/>
      <path class="st1" d="M86.8,60c0,0-.1,0-.2,0,0-.1,0-.3,0-.3,0,0,.2,0,.2.1,0,.1,0,.2,0,.3h0Z"/>
      <path class="st1" d="M90.4,59.8c0,0,0,.2,0,.2,0,0-.1,0-.2,0,0,0,0-.1,0-.2,0,0,.2,0,.2,0h0Z"/>
      <path class="st1" d="M87,60.5c-.1,0-.1-.2-.1-.3,0,0,.2,0,.2,0,0,0,0,.2-.1.2h0Z"/>
      <path class="st1" d="M88.9,60.6c0,0,0,.2,0,.2,0,0-.2,0-.2-.1,0-.1.2-.1.3-.1Z"/>
      <path class="st1" d="M88.3,60.7c0,0-.1.2-.2.1,0,0-.1-.2,0-.2,0,0,.3,0,.3.1Z"/>
      <path class="st1" d="M89.8,60.2c0-.1,0-.1.1-.1,0,0,0,.1-.1.1Z"/>
      <path class="st1" d="M80.2,56.6l-.2.3h-.9c0-.1,0-.3.1-.3h.9Z"/>
      <path class="st10" d="M85.2,67.1c0,.3-.2.4-.3.6-1.1,1.3-2.8,2.2-4.3.9-.6-.5-1-1.7-1.1-2.5,0-.3,0-.7-.2-1,.2-1.1,0-1.6.6-2.7.3-.7.9-1.3,1.7-1.4,2-.4,3.4,1.4,3.6,3.2v.8c.2.9,0,1.3,0,2.1Z"/>
    </g>
  </g>
  <polygon class="st10" points="78.3 34.7 78.3 26.1 76.3 25 74.2 26.1 74.2 34.7 76.3 35.9 78.3 34.7"/>
  <path class="st10" d="M97.8,29c.8,0,1.3,0,2,0v-2.8l-2.1-1.2-2.1,1.2v2.9c.6,0,1.3,0,2.2,0h0Z"/>
  <path class="st11" d="M79,123c.2-.4.3-.7.5-1.1,0-.2.2-.3.3-.4,0,0,0,0,0,0h0s0-.1.2-.3c-.1-1.5-.6-4.2-1.2-5.7,0,0,0-.2-.1-.3l-.6-1.1c0-.2-1.2-1.8-1.4-2-.2-.2-.3-.4-.5-.6l-.7-.8c-.8-.8-1.6-1.5-2.5-2.3-.4-.3-.8-.5-1-1,.9,0,1.2.6,1.9.6,0-.7,0-1.3,0-2,0-.6,0-1.5,0-2v-2.2c0,0,.2-1.2.2-1.2l.4-2.5c0,0,0-.2,0-.2,0,0,0,0,.2,0,0,0,0-.2,0-.2.2-1.8.8-3.7,1.4-5.5,0-.3.2-.6.3-.7v-.6c-.1,0,.2-.6.2-.6,0,0,.1,0,.2,0l.4-1.1c0-.2.2-.4.2-.6,0,0-.1-.1-.3-.2l-1.2-.4-1.6-.4c-.3,0-.7-.2-1-.3l-1.3-.4-2.3-.7c-1.8-.5-1-.4-2.6-1.1-.4-.2-.8-.4-1.2-.6-.6-.3-1.3-.5-1.8-.9l-.9-.5c-.1,0-.2-.2-.3-.2-.3,0-.2.8-.8.6l-.6-.2c-.5-.1-.9-.5-1.4-.7-.3,0-.7,0-.8-.3-1.1.3-1.7-.2-2.7.1l-1.1.3c-.7.2-1.2.4-1.7.9-.7.7-.9,1.3-1,2.3-.2,1.2.3,3.3,1.2,4.3l.8.8.9.7c.1,0,.3.1.4.2.7.5,1,.4,1.9,1.2.5.4,1.3.9,1.4,1.3,0,.6-.2,1.2-.3,1.8v.6c-.2.4-.2.8-.3,1.1l-.2.7c.1-.3-.2,2,0,1.8-.2.2,0,.5-.1.7,0,.2-.4.3-.5.5-.2.2-.3.3-.5.5l-.8.7-.7.6c-.3.3-2.2,1.6-2.5,1.4,0,.4-.7.5-.8.5,0,0-.2.1-.3.2-1,.6-.9.4-1.5.6l-.6.2c-.5.2-2.1.6-2.6.5-.1.3-.6.3-.9.3-.6.4-1.6.3-2.4.9-.9.6-1.4,1-1.7,2.1-.2.7,0,1.4.3,2,0,.2.2.2.3.2,0-.5-.8-1.3,0-.9l1.2.7.5.3,1.4.7c.9.5,2.6,1.1,3.6,1.2l1,.2h1c0,.1.9.2.9.2,1,.1,3.7,0,4.8-.3.7-.3,1-1,.8-1.7-.2-1-.4-2-.5-3v-1.1c-.2-.7-.3-5.1.2-5.6.3,0,.2,1.5.3,2.1v.9c0,0,.2,1.1.2,1.1v.9c.2.4.3.8.4,1.2l.2.8c.6,2.2.8,2.6,1.5,4.6.2.6.2,1.2.2,1.8,0,0,.2.1.2.2.1.1,0,.3,0,.5l.5,1.9c0,.3.1.6.2.9l.2.7c0,0,0,.2.1.4.2.6.5,1.4.6,1.8l.5,1.1h0c.3.9.6,1.8.7,2.7.4,3.1,3.1,5.6,6.4,5.6h.3c1.8,0,3.3-.8,4.5-1.9,2.2-2,4.2-7.5,4.2-7.5h0ZM61.5,97c-.8.4-1.7-.1-2.5,0-.1,0-.1-.3,0-.4.2-.4.2-.8.3-1.2,0-.4.2-.7,0-1.1.6,0,1.8.7,1.9.8l1.1.4c.3,0,.5.3.8.4l.8.2c.2,0,1.2.2.9.6-1.7.3-2.2-.6-3.2.3Z"/>
  <path class="st11" d="M115.7,87.2c-.1.2-1.6,2.8-1.8,2.5,0-.1,0-.2.1-.3.4-.5.7-1.1,1-1.6.2-.2.8-1.1.3-1.2-.3.1-.4.5-.7.7l-1,1.1c0,0-.2.2-.3.3l-2.4,1.8-1.1.7c-.2,0-.5.1-.6,0l-.8-1.8-.7-1.2-.7-1c-.4-.6-.9-1.5-1.4-2-.2-.2-.3,0-.1.2.4,1,.6,1.4,1,2.4l.4,1.1.3,1.1c.5,1.5.9,3,1.2,4.6.3-.2.5-.3.7-.5.9-.5.6-.7,1.4-.8-.1.5-1.9,1.2-1.9,1.7,0,.4.2.8.2,1.3l.2,1.3c.2,1.4.4,3.9.3,5.3v1.1c-.2,1.5-.5,3-1,4.4-.2.5-.2.9,0,1.4,0,0-.2,7.7-2.7,13.3-.8,1.7-1.6,3.4-2.2,5.1-.3.9-.8,1.8-1.5,2.5-1.2,1.2-2.8,1.9-4.5,1.9h-.3c-3.6,0-6.4-2.9-6.4-6.4.2-1.7-.5-3.8-.5-3.8.1,0,.2,0,.2.1,0,0,0,.2,0,.2,0,0,0,0,.2,0,.2,0,1.7-.4,2.3-.6l.8-.2.8-.3c.4-.2.9-.3,1.3-.5.7-.3,1.4-.6,2.1-.9l1.5-.8,1.3-.8c.3-.2.6-.4.8-.6.4-.3.8-.4,1.2-.8.2-.2.3-.3.5-.5,0,0,1.2-1.1,1.2-1.2l.5-.6c.2-.3.5-.5.7-.8.2-.3.5-.7.7-1,.4-.4,2-3.2,1.7-3.9,0-.1,0-.2-.1,0-.2.1-.3.4-.4.6-.5.7-1.1,1.6-1.7,2.2l-.6.7s-1.3,1.3-1.4,1.4c-.7.7-1.3.9-1.2.8,0-.2.4-.7.7-1,.9-1.2,1.9-3.2,2.5-4.6.5-1.4.9-3.3,1.1-4.8.1-1.2.3-4.3,0-5.2v-.8c-.2-.3-.2-.6-.2-.8v-.6c-.4-2.4-1.7-6.4-2.6-8.6l-.8-2c-.4-.9-.5-1-.8-1.8h0c.3-.3,1.6-1.1,2-1.3.1,0,.1-.2.1-.3.3,0,.7-.2,1.1-.3,1-.4,3.6-1.2,4.6-1.2h1.3c.4-.1.8-.2,1.2,0,.7.2,1.4.6,1.8,1.2.6.8,1.2,1.2,1.3,2.5,0,.8,0,1.4-.5,2.2h0Z"/>
</svg>
