<?xml version="1.0" encoding="UTF-8"?>
<svg id="Calque_1" data-name="Calque 1" xmlns="http://www.w3.org/2000/svg" viewBox="0 0 223.57 70.52">
  <defs>
    <style>
      .cls-1 {
        fill: #a3cb75;
      }

      .cls-2 {
        fill: #58a132;
      }

      .cls-3 {
        fill: #ddedde;
      }

      .cls-4 {
        fill: #cee0a5;
      }

      .cls-5 {
        fill: #fff;
      }
    </style>
  </defs>
  <path class="cls-4" d="M7.35,8.75c8.01,6.09,16.88,10.28,25.81,12.3,2.38.54,4.77.92,7.15,1.14.15.01.31.03.46.04,6.72.73,12.6,3.36,13.35,7.75h0c.76,4.34-4.16,10.23-11.74,10.91-.17.01-.34.03-.51.04-2.65.18-5.35.18-8.09-.02-5.08-.36-10.27-1.37-15.46-3.01-2-.63-3.48-2.46-3.31-3.96.15-1.37,1.55-1.97,3.23-1.56-1.51-.54-3.02-1.14-4.52-1.8-1.9-.82-3.24-2.82-3-4.34.22-1.39,1.59-1.89,3.18-1.32-1.43-.69-2.85-1.43-4.25-2.22-1.78-.99-2.95-3.14-2.64-4.67.28-1.4,1.62-1.8,3.1-1.1-1.33-.82-2.64-1.68-3.93-2.59-1.64-1.15-2.62-3.41-2.23-4.95.39-1.55,1.9-1.78,3.41-.62Z"/>
  <path class="cls-2" d="M23.31,30.84s.07.03.1.04c3.02.89,6.05,1.56,9.06,1.99-7.99-1.81-8.79-5.52-8.85-6.65,1.57.52,3.14.98,4.72,1.37l-3.92-2.54c-1.08-.7-1.36-2.55-.58-3.83-1.65-.45-3.01-.04-3.11,1.37-.08,1.09.68,2.33,1.82,3.1-1.19-.05-2.08.54-2.16,1.64-.08,1.1.74,2.35,1.96,3.08-1.21,0-2.11.61-2.19,1.68-.1,1.4,1.31,3.02,3.15,3.49,4.59,1.2,9.16,1.89,13.64,2.06-15.61-2.22-14.34-5.8-13.64-6.8Z"/>
  <path class="cls-1" d="M166.53,23.8l-80.79-2.68-29.16-.97c-4.38-.15-8.07,3.32-8.22,7.69l-.71,21.45c-.15,4.38,3.32,8.08,7.69,8.22l10.2.34h0l19.62.65,69.95,2.32h0l10.2.34c4.38.15,8.08-3.32,8.22-7.69l.71-21.45c.15-4.38-3.32-8.07-7.69-8.22Z"/>
  <path class="cls-4" d="M56.31,25.25h.1s99.76,3.31,99.76,3.31c.76.03,1.46.35,1.99.91.53.56.8,1.29.78,2.04l-.71,21.45c-.05,1.53-1.33,2.77-2.86,2.77h-.1s-99.76-3.31-99.76-3.31c-1.55-.05-2.82-1.41-2.77-2.96l.71-21.45c.05-1.53,1.33-2.77,2.86-2.77M56.31,20.15c-4.26,0-7.81,3.41-7.95,7.7l-.71,21.45c-.15,4.38,3.32,8.07,7.69,8.22l99.76,3.31c.09,0,.18,0,.27,0,4.26,0,7.81-3.41,7.95-7.7l.71-21.45c.15-4.38-3.32-8.07-7.69-8.22l-99.76-3.31c-.09,0-.18,0-.27,0h0Z"/>
  <path class="cls-3" d="M216.36,15.31c-8.39,5.55-17.52,9.14-26.57,10.56-2.41.38-4.82.6-7.21.67-.15,0-.31,0-.46.01-6.75.28-12.79,2.51-13.84,6.84h0c-1.05,4.28,3.47,10.48,10.99,11.67.17.02.34.05.51.07,2.63.36,5.33.53,8.07.52,5.09-.02,10.34-.69,15.63-1.98,2.04-.49,3.63-2.22,3.56-3.74-.06-1.38-1.42-2.07-3.12-1.77,1.55-.44,3.09-.94,4.63-1.49,1.95-.69,3.42-2.6,3.28-4.14-.12-1.4-1.46-1.99-3.08-1.53,1.47-.59,2.94-1.24,4.39-1.93,1.84-.87,3.15-2.94,2.94-4.49-.19-1.42-1.49-1.91-3.02-1.3,1.38-.73,2.74-1.5,4.09-2.33,1.71-1.04,2.84-3.23,2.55-4.8-.29-1.57-1.78-1.9-3.36-.85Z"/>
  <path class="cls-1" d="M202.11,28.22c-.01-1.41-1.33-1.91-3.01-1.57.69,1.33.29,3.16-.83,3.78l-4.08,2.27c1.6-.29,3.2-.64,4.8-1.05,1.74-.44,3.14-2.03,3.13-3.43Z"/>
  <path class="cls-1" d="M202.12,33.3c-.01-1.41-1.41-2.1-3.14-1.65,0,0,.33,4.86-9.28,6.39,3.03-.23,6.1-.69,9.17-1.38,1.8-.4,3.26-1.95,3.25-3.36Z"/>
  <path class="cls-1" d="M198.87,36.66s4.52,4.77-13.86,6.15c4.48.13,9.09-.26,13.75-1.15,1.87-.35,3.39-1.87,3.38-3.28-.01-1.41-1.47-2.13-3.27-1.73Z"/>
  <g>
    <path class="cls-5" d="M82.46,44.5c.03.16.04.35.08.53.17.78.34,1.56.49,2.34.02.09-.09.25-.19.31-.7.42-1.44.78-2.21,1.04-.63.21-1.26.43-1.91.58-.82.19-1.65.33-2.48.45-.74.11-1.48.17-2.22.23-.56.04-1.12.07-1.68.04-.78-.03-1.56-.08-2.33-.18-.91-.13-1.82-.29-2.71-.5-.64-.15-1.26-.38-1.87-.61-.61-.23-1.22-.45-1.79-.76-.58-.32-1.14-.69-1.64-1.13-.53-.46-1.02-.99-1.46-1.55-.54-.69-.94-1.48-1.21-2.33-.23-.73-.36-1.47-.42-2.23-.05-.61,0-1.21.1-1.82.12-.76.3-1.49.6-2.19.23-.54.52-1.06.81-1.57.18-.33.4-.65.62-.95.18-.24.37-.48.59-.69.45-.45.9-.91,1.38-1.33.71-.62,1.5-1.13,2.34-1.57.53-.28,1.07-.54,1.63-.77.58-.23,1.18-.42,1.77-.6.52-.16,1.04-.31,1.57-.42.7-.14,1.41-.26,2.12-.36.7-.1,1.4-.16,2.1-.23.07,0,.13,0,.2,0,.75.02,1.5.02,2.25.08.62.05,1.23.18,1.85.25.73.08,1.42.28,2.11.53.85.31,1.66.7,2.38,1.27.53.42.99.89,1.3,1.49.31.59.48,1.21.56,1.86.15,1.37-.19,2.63-.83,3.83-.42.78-.98,1.45-1.6,2.08-.92.93-1.99,1.66-3.16,2.24-.71.35-1.42.72-2.17.98-.97.34-1.97.6-3,.73-.5.06-1,.11-1.51.15-.22.02-.43.03-.65.03-.75-.02-1.51-.04-2.26-.08-1.08-.06-2.16-.14-3.29-.21.04-.25.05-.5.11-.74.13-.45.25-.91.45-1.33.2-.45.46-.87.72-1.29.57-.9,1.32-1.65,2.09-2.37.53-.5,1.16-.91,1.76-1.32.45-.31.93-.59,1.41-.84.43-.22.89-.38,1.33-.56.02.03.03.05.05.08-.1.07-.19.14-.29.21-.49.33-1,.63-1.47,1-.69.54-1.38,1.07-1.99,1.69-.72.72-1.37,1.5-1.9,2.38-.27.45-.55.89-.67,1.41-.03.11-.03.23-.05.37.39,0,.76,0,1.12-.02.32-.01.63-.03.94-.07.39-.04.79-.09,1.18-.15.44-.07.88-.14,1.3-.27.57-.17,1.13-.38,1.67-.62.52-.23,1.01-.5,1.46-.88.53-.45,1.05-.89,1.45-1.47.16-.23.36-.43.51-.67.3-.48.63-.96.85-1.48.4-.93.72-1.9,1.08-2.85.23-.62.47-1.25.7-1.87.01-.03.01-.06.03-.14-.25.01-.49.02-.72.03-.31.02-.61.05-.92.07-.83.06-1.66.1-2.49.17-.76.06-1.53.1-2.27.24-.93.17-1.84.42-2.75.65-1.28.32-2.45.89-3.53,1.63-.69.47-1.28,1.07-1.81,1.72-.49.62-.91,1.28-1.2,2.01-.12.29-.2.59-.26.9-.08.44-.16.89-.18,1.33-.02.6,0,1.21.21,1.78.16.42.31.85.53,1.24.19.34.45.65.73.93.28.29.59.55.92.78.52.36,1.03.72,1.64.92.51.18,1.01.39,1.52.57.21.07.43.11.65.15.35.08.7.16,1.05.23.15.03.31.02.46.02.46.02.93.04,1.39.04.58,0,1.17.03,1.75-.05.99-.15,1.97-.35,2.95-.57.81-.18,1.59-.46,2.32-.83.65-.32,1.25-.73,1.93-1.13Z"/>
    <path class="cls-5" d="M144.86,44.74c.1-.46.19-.88.28-1.3.05-.28.09-.56.14-.83.07-.38.15-.76.23-1.14,0-.02,0-.03,0-.05.05-.38.08-.76.14-1.13.08-.48.18-.96.27-1.44.1-.59.19-1.18.29-1.77.05-.31.12-.61.18-.92.02-.12.04-.24.07-.37.08-.36.16-.72.23-1.09.01-.05,0-.1.01-.15.07-.44.15-.88.23-1.32.02-.1.03-.2.04-.33.32-.04.65-.08.99-.13.57-.08,1.15-.16,1.72-.23.52-.06,1.04-.1,1.56-.17.52-.06,1.03-.14,1.55-.21.08-.01.21-.02.22.01.04.08.04.19.02.29-.11.52-.22,1.03-.34,1.54-.06.29-.13.58-.19.87-.12.6-.23,1.21-.36,1.81-.1.45-.22.89-.33,1.34-.05.2-.1.4-.14.6-.09.47-.16.95-.26,1.41-.12.57-.27,1.14-.39,1.71-.06.27-.09.56-.15.83-.05.25-.13.49-.19.74-.06.22-.11.44-.16.66-.12.57-.25,1.14-.36,1.72-.11.57-.2,1.14-.32,1.71-.1.47-.23.94-.34,1.41-.06.27-.08.54-.14.81-.06.29-.14.58-.21.87,0,.04-.02.08-.02.12.05.3-.17.31-.37.35-.4.07-.8.14-1.19.21-.42.07-.84.14-1.27.21-.56.1-1.11.21-1.67.32-.27.05-.55.1-.82.16-.21.04-.29-.08-.38-.23-.35-.67-.7-1.34-1.05-2.02-.45-.86-.89-1.71-1.34-2.57-.3-.57-.63-1.13-.94-1.7-.33-.6-.65-1.19-.97-1.79-.21-.38-.41-.76-.62-1.14-.29-.53-.58-1.06-.87-1.58-.17-.31-.36-.62-.57-.98-.07.32-.12.58-.18.85-.14.73-.29,1.46-.43,2.19-.1.5-.2,1.01-.31,1.51-.14.66-.28,1.31-.42,1.96-.14.66-.28,1.32-.42,1.99-.11.56-.21,1.12-.31,1.69-.03.17-.09.25-.27.29-.82.16-1.63.33-2.45.49-.72.14-1.43.28-2.15.42-.23.04-.45.1-.68.13-.05,0-.16-.11-.15-.15.1-.49.21-.97.31-1.45.14-.65.26-1.3.39-1.94.1-.45.21-.9.31-1.35.16-.74.31-1.49.47-2.23.1-.46.2-.92.3-1.38.14-.65.27-1.29.41-1.94.12-.57.25-1.13.37-1.7.1-.47.19-.94.29-1.41.1-.45.21-.9.31-1.35.14-.63.32-1.25.39-1.89.03-.27-.18-.57-.31-.84-.14-.32-.31-.62-.45-.93-.02-.04.07-.19.12-.21.94-.19,1.89-.38,2.84-.56.82-.15,1.64-.29,2.46-.45.18-.04.25.05.31.16.42.79.84,1.58,1.26,2.37.46.85.93,1.68,1.38,2.53.39.73.76,1.48,1.15,2.21.24.45.5.88.74,1.32.48.87.95,1.75,1.42,2.62.34.63.68,1.26,1.04,1.91Z"/>
    <path class="cls-5" d="M112.61,51.16c-1.14-.02-2.25-.16-3.33-.57-1.03-.39-1.88-1.02-2.55-1.89-.41-.53-.59-1.17-.65-1.84-.07-.78,0-1.55.17-2.31.27-1.23.53-2.47.78-3.71.13-.64.24-1.28.38-1.92.14-.65.3-1.3.44-1.95.12-.56.22-1.12.33-1.68.09-.44.2-.89.3-1.33.14-.62.27-1.24.42-1.86.01-.06.09-.13.16-.14.44-.08.88-.14,1.32-.22.68-.11,1.35-.22,2.03-.34.72-.13,1.44-.27,2.16-.41.15-.03.3-.07.46-.1.23-.05.31.03.26.26-.14.62-.3,1.23-.43,1.85-.1.46-.16.93-.26,1.39-.12.55-.26,1.1-.39,1.66-.05.23-.09.47-.14.71-.16.75-.32,1.5-.48,2.25-.19.91-.36,1.83-.55,2.75-.14.69-.33,1.36-.45,2.05-.1.56-.19,1.14-.22,1.71-.03.62.14,1.2.59,1.66.43.44.93.76,1.55.87.49.09.98.19,1.48.19,1.16,0,2.26-.28,3.16-1.06.45-.38.78-.87,1.06-1.39.31-.56.5-1.17.7-1.77.08-.23.09-.49.14-.73.06-.27.14-.53.2-.8.06-.25.1-.5.15-.75.07-.3.16-.6.22-.9.09-.44.17-.89.26-1.34.08-.41.17-.81.25-1.21.09-.44.19-.89.29-1.33.06-.27.14-.54.2-.81.05-.2.1-.4.14-.6.15-.73.29-1.46.43-2.19.04-.23.06-.46.14-.68.04-.1.17-.21.28-.23.45-.09.91-.15,1.37-.22.64-.1,1.27-.21,1.91-.32.59-.09,1.19-.18,1.79-.27.37-.06.74-.12,1.11-.19.17-.03.21.01.18.17-.15.71-.3,1.42-.46,2.13-.11.47-.23.94-.33,1.42-.1.45-.17.91-.26,1.36-.09.45-.21.9-.3,1.35-.12.56-.23,1.12-.35,1.67-.1.45-.22.89-.33,1.34-.09.36-.16.72-.26,1.07-.11.39-.24.78-.39,1.16-.21.52-.41,1.05-.67,1.55-.22.42-.49.82-.79,1.19-.36.43-.74.85-1.17,1.21-.49.43-1.02.81-1.56,1.17-.47.32-.96.61-1.46.88-.89.48-1.81.9-2.79,1.17-.51.14-1.01.33-1.53.44-.68.13-1.37.23-2.06.29-.87.08-1.75.12-2.63.18,0-.02,0-.04,0-.06Z"/>
    <path class="cls-5" d="M85.47,46.05c.47.19.89.38,1.32.53.51.18,1.03.34,1.56.47.42.11.85.16,1.27.24.06.01.12.02.17.02.5.03,1,.09,1.5.09.56,0,1.11-.06,1.67-.08.66-.02,1.29-.2,1.91-.39.55-.17,1.06-.43,1.47-.83.49-.49.76-1.25.44-2-.23-.55-.65-.93-1.09-1.29-.54-.43-1.14-.76-1.76-1.07-.77-.39-1.53-.79-2.28-1.22-.63-.36-1.28-.71-1.86-1.14-.99-.71-1.69-1.63-1.85-2.88-.12-.93.03-1.8.58-2.58.71-1.01,1.62-1.78,2.71-2.34,1.07-.55,2.22-.87,3.4-1.07.84-.14,1.69-.27,2.55-.24.85.03,1.7-.02,2.55.05,1.25.11,2.51.25,3.71.66.69.23,1.36.49,2.05.72.21.07.2.2.16.33-.17.52-.36,1.04-.53,1.56-.13.41-.24.82-.37,1.23-.02.08-.07.15-.1.2-.51-.3-.99-.62-1.51-.87-.69-.34-1.42-.56-2.18-.72-.83-.17-1.67-.15-2.51-.16-.74,0-1.47.18-2.19.39-.53.16-.99.42-1.38.8-.45.44-.58.98-.25,1.59.3.56.74.99,1.25,1.34.6.41,1.22.77,1.84,1.14.98.59,1.98,1.14,2.95,1.76.82.52,1.58,1.14,2.13,1.95.41.61.71,1.28.66,2.05-.04.5-.06,1-.16,1.49-.07.33-.26.64-.43.94-.26.47-.61.86-1.02,1.19-.51.42-1.09.75-1.7.99-.67.26-1.37.48-2.06.7-.4.13-.8.23-1.21.31-.56.1-1.12.18-1.69.25-.48.06-.96.11-1.43.15-.28.02-.57.03-.85.03-.9,0-1.8,0-2.7-.04-.81-.04-1.61-.14-2.42-.23-.64-.07-1.29-.16-1.93-.27-.41-.07-.81-.21-1.22-.32,0,0-.02,0-.02-.01-.12-.05-.33.06-.35-.15-.01-.13.08-.26.13-.39.25-.68.49-1.36.74-2.04.1-.28.21-.56.31-.84Z"/>
  </g>
</svg>