<?xml version="1.0" encoding="UTF-8"?>
<svg id="Calque_1" data-name="Calque 1" xmlns="http://www.w3.org/2000/svg" viewBox="0 0 230.07 68.25">
  <defs>
    <style>
      .cls-1 {
        fill: #599dd5;
      }

      .cls-2 {
        fill: #deefe8;
      }

      .cls-3 {
        fill: #44baec;
      }

      .cls-4 {
        fill: #fff;
      }

      .cls-5 {
        fill: #a3d2f2;
      }
    </style>
  </defs>
  <path class="cls-5" d="M11.28,8.21c7.92,6.21,16.72,10.53,25.63,12.67,2.38.57,4.76.99,7.13,1.25.15.02.31.03.46.05,6.7.82,12.55,3.54,13.24,7.94h0c.7,4.35-4.3,10.17-11.9,10.74-.17.01-.34.02-.51.03-2.66.15-5.36.1-8.09-.13-5.08-.43-10.25-1.52-15.42-3.24-1.99-.65-3.44-2.51-3.25-4.01.17-1.37,1.58-1.95,3.25-1.52-1.5-.56-3-1.19-4.5-1.86-1.89-.85-3.19-2.87-2.93-4.39.24-1.39,1.61-1.86,3.2-1.28-1.42-.71-2.83-1.47-4.22-2.28-1.77-1.02-2.9-3.18-2.57-4.71.3-1.4,1.64-1.78,3.12-1.05-1.31-.84-2.61-1.72-3.89-2.65-1.62-1.17-2.57-3.45-2.16-4.99.41-1.54,1.92-1.75,3.42-.57Z"/>
  <path class="cls-1" d="M28.11,24.75c-1.07-.71-1.32-2.57-.52-3.84-1.65-.48-3-.08-3.13,1.32-.12,1.4,1.14,3.09,2.84,3.67,1.56.54,3.13,1.02,4.7,1.44l-3.89-2.6Z"/>
  <path class="cls-1" d="M27.29,25.91c-1.68-.59-3.14-.01-3.26,1.39-.12,1.4,1.2,3.06,2.97,3.61,3.01.94,6.03,1.64,9.03,2.12-9.46-2.29-8.74-7.12-8.74-7.12Z"/>
  <path class="cls-1" d="M27,30.9c-1.75-.55-3.27.05-3.39,1.46-.12,1.4,1.26,3.04,3.1,3.54,4.57,1.27,9.13,2.02,13.61,2.26-18.21-2.86-13.32-7.25-13.32-7.25Z"/>
  <path class="cls-3" d="M170.23,25.57l-99.7-4.76h0l-10.19-.49c-4.37-.21-8.12,3.2-8.33,7.57l-1.02,21.44c-.21,4.37,3.2,8.12,7.57,8.33l99.7,4.76h0l10.19.49c4.37.21,8.12-3.2,8.33-7.57l1.02-21.44c.21-4.37-3.2-8.12-7.57-8.33Z"/>
  <path class="cls-5" d="M59.95,25.41h0s.09,0,.14,0l99.7,4.76c1.55.07,2.8,1.45,2.72,3l-1.02,21.44c-.07,1.5-1.35,2.73-2.86,2.73-.05,0-.09,0-.14,0l-99.7-4.76c-1.55-.07-2.8-1.45-2.72-3l1.02-21.44c.07-1.5,1.35-2.73,2.86-2.73M59.95,20.32c-4.21,0-7.75,3.34-7.95,7.58l-1.02,21.44c-.21,4.37,3.2,8.12,7.57,8.33l99.7,4.76c.13,0,.25,0,.38,0,4.21,0,7.75-3.34,7.95-7.58l1.02-21.44c.21-4.37-3.2-8.12-7.57-8.33l-99.7-4.76c-.13,0-.25,0-.38,0h0Z"/>
  <path class="cls-2" d="M220.18,17.81c-8.47,5.42-17.65,8.89-26.72,10.17-2.42.34-4.83.53-7.22.56-.15,0-.31,0-.46,0-6.75.18-12.83,2.33-13.93,6.64h0c-1.11,4.27,3.32,10.53,10.82,11.83.17.03.34.05.51.08,2.63.4,5.32.61,8.06.64,5.09.05,10.35-.54,15.65-1.76,2.04-.46,3.67-2.17,3.62-3.68-.04-1.38-1.39-2.09-3.09-1.82,1.55-.42,3.1-.89,4.65-1.42,1.96-.66,3.45-2.55,3.34-4.09-.1-1.4-1.43-2.01-3.06-1.57,1.48-.57,2.95-1.19,4.42-1.87,1.86-.85,3.19-2.89,3.01-4.45-.17-1.42-1.47-1.93-3-1.35,1.39-.71,2.76-1.46,4.13-2.27,1.73-1.01,2.89-3.19,2.62-4.76-.26-1.57-1.75-1.93-3.35-.9Z"/>
  <path class="cls-3" d="M202.75,28.89c1.68-.32,3,.2,2.99,1.61,0,0,0,0,0,0,0,1.41-1.43,2.97-3.17,3.39-1.61.39-3.21.72-4.82.99l4.12-2.22c1.13-.61,1.56-2.43.89-3.77h0Z"/>
  <path class="cls-3" d="M193.18,40.15c3.03-.19,6.1-.61,9.19-1.25,1.81-.37,3.29-1.9,3.3-3.31t0,0c.01-1.41-1.38-2.12-3.11-1.69,0,0,.26,4.87-9.38,6.25Z"/>
  <path class="cls-3" d="M188.42,44.85c4.48.19,9.1-.13,13.76-.95,1.88-.33,3.42-1.82,3.43-3.23h0c.01-1.41-1.44-2.15-3.24-1.77,0,0,4.45,4.84-13.95,5.95Z"/>
  <path class="cls-4" d="M144.12,40.07c-.13-.17-.24-.28-.31-.41-.48-.89-.96-1.78-1.41-2.68-.07-.15-.06-.46.05-.56,1.18-1.1,2.6-1.77,4.17-2.07,1.46-.27,2.92-.21,4.37.17,1.47.39,2.74,1.08,3.84,2.13,1.46,1.39,2.33,3.1,2.56,5.08.16,1.32.07,2.64-.22,3.95-.3,1.34-.94,2.51-1.82,3.52-1.06,1.21-2.36,2.13-3.93,2.64-1,.32-2.04.5-3.07.44-1.13-.06-2.24-.25-3.33-.7-1.64-.69-2.97-1.73-3.97-3.17-.44-.64-.78-1.39-1.03-2.13-.36-1.05-.63-2.13-.91-3.2-.39-1.52-.78-3.04-1.77-4.29-.73-.91-1.67-1.54-2.83-1.81-1.52-.36-2.87,0-4.13.87-.93.65-1.55,1.53-1.93,2.56-.27.74-.48,1.53-.34,2.34.1.59.09,1.21.29,1.76.65,1.8,1.87,3.1,3.78,3.52,1.67.37,3.22-.02,4.53-1.17.31-.27.58-.6.83-.93.19-.25.3-.2.43.04.45.83.89,1.65,1.34,2.48.07.13.18.24.2.37.02.14.02.36-.06.44-.83.81-1.82,1.37-2.9,1.78-1.65.63-3.38.6-5.06.33-1.33-.21-2.6-.74-3.7-1.64-.91-.75-1.73-1.56-2.3-2.58-.71-1.28-1.21-2.63-1.13-4.13.03-.61.07-1.23.08-1.84.01-.82.31-1.56.6-2.3.44-1.14,1.14-2.12,2-2.96,1.01-.98,2.21-1.66,3.56-2.1,1.54-.51,3.09-.34,4.61-.16,1.58.18,2.94.98,4.15,2.03,1.23,1.07,2.09,2.39,2.53,3.95.39,1.38.72,2.77,1.12,4.14.54,1.84,1.29,3.56,3.1,4.56,1.75.96,4.12.75,5.65-.61.91-.81,1.58-1.76,1.89-2.92.46-1.74.2-3.4-.79-4.92-.74-1.14-1.78-1.92-3.1-2.2-1.14-.24-2.29-.2-3.39.37-.9.47-1.61,1.11-2.24,2.01Z"/>
  <path class="cls-4" d="M121.66,50.77l-2.99-.14.1-2.06c-.76.71-1.48,1.3-2.38,1.59-.43.14-.53.16-.96.3-.83.27-1.78.19-2.67.16-1.6-.1-3.19-.78-4.42-1.77-1.01-.8-1.89-1.74-2.44-2.94-.38-.82-.63-1.68-.8-2.58-.19-1.02-.09-2.03.03-3.02.11-.89.47-1.77.79-2.62.41-1.12,1.14-2.03,2.02-2.85.97-.9,2.05-1.55,3.32-1.93,1.07-.32,2.15-.43,3.25-.35,1.94.14,3.67.82,5.15,2.1.73.63,1.38,1.34,1.85,2.2.14.26.12.39-.13.53-.88.5-1.74,1.02-2.63,1.52-.07.04-.28-.05-.33-.13-.53-1.05-1.3-1.88-2.39-2.33-.78-.32-1.6-.47-2.47-.41-.93.07-1.74.38-2.51.87-.8.51-1.29,1.28-1.71,2.09-.47.9-.62,1.88-.57,2.87.1,1.95.75,3.66,2.49,4.7,1.08.65,2.31.76,3.57.54.8-.14,1.48-.5,2.06-1.01.65-.58,1.16-1.27,1.45-2.27-1.51-.07-2.94-.14-4.36-.21-.96-.05-.83.08-.79-.87.03-.64.07-1.28.09-1.92,0-.28.1-.38.39-.37,2.71.14,5.43.27,8.14.39.25.01.36.09.35.37-.16,3.15-.31,6.3-.46,9.45,0,.03-.02.05-.05.11Z"/>
  <path class="cls-4" d="M73.94,45.27l-.15,3.2c-4.37-.21-8.73-.42-13.11-.63l.83-17.44c4.36.21,8.72.42,13.1.63l-.15,3.18c-3.18-.15-6.34-.3-9.54-.46l-.18,3.74c2.55.12,5.11.24,7.73.37-.04.87-.08,1.69-.12,2.51-.05.92.07.82-.85.77-2.29-.11-4.59-.22-6.91-.33l-.19,4c3.16.15,6.33.3,9.54.46Z"/>
  <path class="cls-4" d="M104.49,32.44l-.15,3.18c-3.18-.15-6.34-.3-9.53-.45l-.18,3.76,7.72.37c-.05,1.06-.09,2.07-.17,3.08,0,.08-.28.21-.42.21-1.39-.05-2.79-.12-4.18-.19-1.03-.05-2.06-.1-3.11-.15l-.19,4,9.52.45-.15,3.21c-4.35-.21-8.7-.42-13.11-.63,0-.15.01-.3.02-.45.26-5.5.53-11,.78-16.51.02-.34.05-.53.48-.51,4.14.21,8.27.4,12.41.6.07,0,.14.01.26.03Z"/>
  <path class="cls-4" d="M79.91,45.62l8.99.43-.15,3.16c-.18,0-.35-.02-.52-.03-3.77-.18-7.55-.36-11.32-.54-.23-.01-.6.06-.67-.05-.11-.2-.05-.5-.04-.75.25-5.39.51-10.77.77-16.16,0-.17.02-.35.03-.55l3.6.17-.68,14.31Z"/>
</svg>