<?xml version="1.0" encoding="UTF-8"?>
<svg id="Calque_1" data-name="Calque 1" xmlns="http://www.w3.org/2000/svg" viewBox="0 0 283.46 68.58">
  <defs>
    <style>
      .cls-1 {
        fill: #a3cb75;
      }

      .cls-2 {
        fill: #58a132;
      }

      .cls-3 {
        fill: #f9f2a2;
      }

      .cls-4 {
        fill: #46535e;
      }

      .cls-5 {
        fill: #7f8588;
      }

      .cls-6 {
        fill: #ddedde;
      }

      .cls-7 {
        fill: #cee0a5;
      }

      .cls-8 {
        fill: #fff;
      }

      .cls-9 {
        fill: #fdc30b;
      }

      .cls-10 {
        fill: #f9f0dc;
      }

      .cls-11 {
        fill: #ffe108;
      }
    </style>
  </defs>
  <path class="cls-3" d="M14.38,15.94c8.5,5.38,17.69,8.8,26.76,10.05,2.42.33,4.83.51,7.22.53.15,0,.31,0,.46,0,6.75.15,12.84,2.27,13.97,6.58h0c1.13,4.26-3.27,10.55-10.77,11.88-.17.03-.34.06-.51.08-2.63.41-5.32.63-8.06.67-5.09.07-10.35-.49-15.66-1.68-2.04-.45-3.68-2.15-3.63-3.67.03-1.38,1.38-2.1,3.08-1.83-1.55-.41-3.11-.88-4.66-1.4-1.96-.65-3.47-2.53-3.36-4.07.1-1.4,1.42-2.01,3.05-1.59-1.48-.56-2.96-1.18-4.43-1.85-1.86-.84-3.21-2.87-3.03-4.43.16-1.42,1.46-1.93,3-1.36-1.39-.7-2.77-1.45-4.14-2.25-1.73-1-2.9-3.18-2.64-4.75.26-1.57,1.74-1.94,3.35-.91Z"/>
  <path class="cls-9" d="M31.86,26.95c-1.69-.31-3,.22-2.98,1.63,0,0,0,0,0,0,.02,1.41,1.45,2.96,3.19,3.37,1.61.38,3.22.71,4.82.96l-4.13-2.2c-1.14-.6-1.57-2.42-.9-3.77h0Z"/>
  <path class="cls-9" d="M41.48,38.15c-3.03-.17-6.11-.58-9.2-1.21-1.81-.36-3.3-1.89-3.32-3.29t0,0c-.02-1.41,1.37-2.13,3.11-1.71,0,0-.24,4.87,9.41,6.21Z"/>
  <path class="cls-9" d="M46.26,42.83c-4.48.22-9.1-.08-13.77-.89-1.88-.32-3.42-1.81-3.44-3.21h0c-.02-1.41,1.43-2.16,3.23-1.79,0,0-4.43,4.86,13.98,5.89Z"/>
  <rect class="cls-4" x="67.5" y="18.71" width="162" height="37.38" rx="7.96" ry="7.96" transform="translate(-1.75 7.83) rotate(-3)"/>
  <rect class="cls-4" x="57.31" y="19.24" width="162" height="37.38" rx="7.96" ry="7.96" transform="translate(-1.8 7.3) rotate(-3)"/>
  <path class="cls-5" d="M210.69,20.53c1.5,0,2.78,1.22,2.86,2.71l1.12,21.43c.04.75-.22,1.49-.74,2.06-.52.57-1.22.91-1.97.95l-145.88,7.65c-.05,0-.1,0-.15,0-1.5,0-2.78-1.22-2.86-2.71l-1.12-21.43c-.04-.75.22-1.49.74-2.06s1.22-.91,1.97-.95l145.88-7.65c.05,0,.1,0,.15,0M210.69,15.43c-.14,0-.28,0-.42.01l-145.88,7.65c-4.37.23-7.76,3.99-7.53,8.37l1.12,21.43c.22,4.23,3.76,7.54,7.95,7.54.14,0,.28,0,.42-.01l145.88-7.65c4.37-.23,7.76-3.99,7.53-8.37l-1.12-21.43c-.22-4.23-3.76-7.54-7.95-7.54h0Z"/>
  <path class="cls-10" d="M269.39,2.19c-7.89,6.24-16.68,10.61-25.57,12.79-2.37.58-4.75,1.01-7.13,1.28-.15.02-.31.03-.46.05-6.7.86-12.53,3.6-13.2,8h0c-.68,4.36,4.35,10.15,11.95,10.69.17.01.34.02.51.03,2.66.13,5.36.07,8.09-.17,5.07-.46,10.25-1.57,15.4-3.31,1.99-.66,3.43-2.53,3.23-4.03-.18-1.37-1.59-1.94-3.26-1.5,1.5-.57,3-1.2,4.49-1.88,1.89-.86,3.18-2.88,2.91-4.4-.24-1.38-1.62-1.85-3.2-1.26,1.41-.72,2.82-1.48,4.21-2.3,1.76-1.03,2.89-3.19,2.55-4.72-.31-1.39-1.65-1.77-3.12-1.04,1.31-.84,2.6-1.73,3.88-2.67,1.62-1.18,2.55-3.46,2.13-5-.42-1.54-1.93-1.74-3.42-.56Z"/>
  <path class="cls-11" d="M253.15,14.97c1.64-.48,3-.1,3.13,1.31,0,0,0,0,0,0,.13,1.4-1.13,3.1-2.82,3.69-1.56.55-3.13,1.04-4.69,1.46l3.87-2.62c1.07-.72,1.31-2.57.51-3.84h0Z"/>
  <path class="cls-11" d="M244.76,27.12c3-.49,6.01-1.21,9.02-2.16,1.76-.55,3.08-2.22,2.95-3.62t0,0c-.13-1.4-1.59-1.97-3.27-1.37,0,0,.74,4.82-8.7,7.16Z"/>
  <path class="cls-11" d="M240.49,32.27c4.48-.25,9.04-1.03,13.6-2.32,1.84-.51,3.22-2.15,3.09-3.55h0c-.13-1.4-1.65-2-3.4-1.44,0,0,4.91,4.37-13.29,7.32Z"/>
  <path class="cls-7" d="M14.38,15.94c8.5,5.38,17.69,8.8,26.76,10.05,2.42.33,4.83.51,7.22.53.15,0,.31,0,.46,0,6.75.15,12.84,2.27,13.97,6.58h0c1.13,4.26-3.27,10.55-10.77,11.88-.17.03-.34.06-.51.08-2.63.41-5.32.63-8.06.67-5.09.07-10.35-.49-15.66-1.68-2.04-.45-3.68-2.15-3.63-3.67.03-1.38,1.38-2.1,3.08-1.83-1.55-.41-3.11-.88-4.66-1.4-1.96-.65-3.47-2.53-3.36-4.07.1-1.4,1.42-2.01,3.05-1.59-1.48-.56-2.96-1.18-4.43-1.85-1.86-.84-3.21-2.87-3.03-4.43.16-1.42,1.46-1.93,3-1.36-1.39-.7-2.77-1.45-4.14-2.25-1.73-1-2.9-3.18-2.64-4.75.26-1.57,1.74-1.94,3.35-.91Z"/>
  <path class="cls-2" d="M32.01,36.04c.11.03.21.07.31.09,3.09.63,6.16,1.03,9.2,1.21-7.11-.99-8.85-3.89-9.27-5.35,1.55.37,3.1.68,4.64.92l-4.13-2.2c-1.14-.6-1.57-2.42-.9-3.77-1.69-.31-3,.22-2.98,1.63.01.9.6,1.86,1.48,2.54-.83.23-1.37.84-1.36,1.72.01.97.74,2,1.78,2.66-1.01.19-1.71.84-1.7,1.81.02,1.41,1.56,2.9,3.44,3.21,4.67.8,9.29,1.1,13.77.89-14.7-.82-14.84-4.08-14.29-5.36Z"/>
  <path class="cls-1" d="M229.95,43.87l-1.12-21.43c-.23-4.37-3.99-7.76-8.37-7.53l-10.19.53h0l-145.88,7.65c-4.37.23-7.76,3.99-7.53,8.37l1.12,21.43c.23,4.37,3.99,7.76,8.37,7.53l10.19-.53h0l2.81-.15,132.88-6.97s0,0,0,0l10.19-.53c4.37-.23,7.76-3.99,7.53-8.37Z"/>
  <path class="cls-7" d="M210.69,20.53c1.5,0,2.78,1.22,2.86,2.71l1.12,21.43c.04.75-.22,1.49-.74,2.06-.52.57-1.22.91-1.97.95l-145.88,7.65c-.05,0-.1,0-.15,0-1.5,0-2.78-1.22-2.86-2.71l-1.12-21.43c-.04-.75.22-1.49.74-2.06s1.22-.91,1.97-.95l145.88-7.65c.05,0,.1,0,.15,0M210.69,15.43c-.14,0-.28,0-.42.01l-145.88,7.65c-4.37.23-7.76,3.99-7.53,8.37l1.12,21.43c.22,4.23,3.76,7.54,7.95,7.54.14,0,.28,0,.42-.01l145.88-7.65c4.37-.23,7.76-3.99,7.53-8.37l-1.12-21.43c-.22-4.23-3.76-7.54-7.95-7.54h0Z"/>
  <path class="cls-6" d="M269.39,2.19c-7.89,6.24-16.68,10.61-25.57,12.79-2.37.58-4.75,1.01-7.13,1.28-.15.02-.31.03-.46.05-6.7.86-12.53,3.6-13.2,8h0c-.68,4.36,4.35,10.15,11.95,10.69.17.01.34.02.51.03,2.66.13,5.36.07,8.09-.17,5.07-.46,10.25-1.57,15.4-3.31,1.99-.66,3.43-2.53,3.23-4.03-.18-1.37-1.59-1.94-3.26-1.5,1.5-.57,3-1.2,4.49-1.88,1.89-.86,3.18-2.88,2.91-4.4-.24-1.38-1.62-1.85-3.2-1.26,1.41-.72,2.82-1.48,4.21-2.3,1.76-1.03,2.89-3.19,2.55-4.72-.31-1.39-1.65-1.77-3.12-1.04,1.31-.84,2.6-1.73,3.88-2.67,1.62-1.18,2.55-3.46,2.13-5-.42-1.54-1.93-1.74-3.42-.56Z"/>
  <path class="cls-1" d="M254.93,24.4c1.15-.77,1.9-1.99,1.8-3.06-.1-1.05-.94-1.63-2.07-1.61,1.05-.79,1.72-2,1.62-3.04-.13-1.4-1.49-1.79-3.13-1.31.8,1.27.56,3.12-.51,3.84l-3.87,2.62c1.57-.42,3.13-.91,4.69-1.46,0,0,0,0,0,0-.06,1.21-.93,4.82-8.71,6.74,3-.49,6.01-1.21,9.02-2.16.08-.02.15-.06.23-.09.72.99,2,4.54-13.52,7.05,4.48-.25,9.04-1.03,13.6-2.32,1.84-.51,3.22-2.15,3.09-3.55-.1-1.08-1.03-1.67-2.25-1.64Z"/>
  <path class="cls-8" d="M75.73,31.75c-4.62.4-8.26,4.5-8.15,9.27.12,5.13,4.4,9.12,9.38,8.86l10.05-.53c.07,0,.11-.06.11-.13h0s-.17-3.28-.17-3.28c0-.07-.06-.12-.12-.11h0s-10.07.53-10.07.53c-2.95.15-5.54-2.13-5.75-5.16-.21-3.09,2.09-5.78,5.08-5.94l10.15-.53c.07,0,.11-.06.11-.13h0s-.17-3.28-.17-3.28c0-.07-.06-.12-.12-.11l-10.33.54Z"/>
  <path class="cls-8" d="M101.98,41.21c2.92-.15,5.16-2.75,4.96-5.76-.2-2.97-2.73-5.2-5.61-5.04l-12.84.67c-.07,0-.11.06-.11.13l.94,17.9c0,.07.06.12.12.11l3.18-.17c.07,0,.11-.06.11-.13l-.75-14.38c0-.07.05-.12.11-.13l9.46-.5c1.01-.05,1.88.71,1.98,1.72.09,1.07-.69,2-1.73,2.05l-9.04.48c-.07,0-.12.06-.11.13,0,.03.02.06.04.08l10.86,10.06s.05.03.09.03l4.5-.24c.07,0,.12-.06.11-.13,0-.03-.02-.06-.04-.08l-7.29-6.76s0,0,0,0l1.08-.06Z"/>
  <path class="cls-8" d="M154.19,27.64l-3.18.17c-.07,0-.11.06-.11.13h0s.84,15.99.84,15.99c.06,1.12.99,1.98,2.08,1.93l12.67-.66c.07,0,.11-.06.11-.13h0s-.17-3.28-.17-3.28c0-.07-.06-.12-.12-.11h0s-11.11.58-11.11.58c-.07,0-.12-.05-.12-.11l-.75-14.38c0-.07-.06-.12-.12-.11,0,0,0,0,0,0Z"/>
  <path class="cls-8" d="M139.26,28.54c-.07-.11-.21-.14-.32-.08-.04.02-.07.06-.09.1l-9.08,18.37c-.03.06,0,.13.05.16.02,0,.04.01.06.01l3.68-.19s.08-.03.1-.06l5.65-11.44c.03-.06.1-.08.16-.05.02,0,.03.02.04.04l4.58,7.25c.04.06.02.13-.04.17-.02.01-.03.02-.05.02l-5.46.29s-.08.03-.1.06l-1.66,3.37c-.03.06,0,.13.05.16.02,0,.04.01.06.01l13.21-.69c.07,0,.11-.06.11-.13,0-.02,0-.04-.02-.05-1.17-1.87-10.93-17.31-10.93-17.31Z"/>
  <path class="cls-8" d="M208.4,24.8l-4.16.22s-.07.02-.09.05l-5.65,7.73c-.04.05-.11.06-.16.03,0,0-.01-.01-.02-.02l-6.43-7.09s-.06-.04-.09-.04l-19.04,1c-.07,0-.12.06-.11.13h0s.17,3.28.17,3.28c0,.07.06.12.12.12h0s6.88-.36,6.88-.36c.07,0,.12.05.12.11l.75,14.37c0,.07.06.12.12.11,0,0,0,0,0,0l3.18-.17c.07,0,.11-.06.11-.13h0s-.75-14.38-.75-14.38c0-.07.05-.12.11-.13l6.91-.36s.07.01.09.04l6.38,7.04s.03.05.03.08l.37,7.03c0,.07.06.12.12.11l3.18-.17c.07,0,.11-.06.11-.13h0s-.37-7.03-.37-7.03c0-.03,0-.06.02-.08l8.17-11.17c.04-.05.03-.13-.02-.17-.02-.02-.05-.03-.08-.02Z"/>
  <path class="cls-8" d="M168.7,45.06l3.18-.17c.07,0,.11-.06.11-.13l-.94-17.89c0-.07-.06-.12-.12-.11l-3.18.17c-.07,0-.11.06-.11.13l.94,17.89c0,.07.06.12.12.11Z"/>
  <path class="cls-8" d="M127.39,32.45l-.17-3.28c0-.07-.06-.12-.12-.11l-9.9.52c-4.87.26-8.62,4.54-8.36,9.53.26,5,4.44,8.86,9.31,8.61l9.9-.52c.07,0,.11-.06.11-.13h0s-.17-3.28-.17-3.28c0-.07-.06-.12-.12-.11l-9.9.52c-2.38.13-4.49-1.36-5.33-3.52l15.03-.79c.07,0,.11-.06.11-.13l-.17-3.28c0-.07-.06-.12-.12-.11l-15.02.79c.6-2.24,2.55-3.94,4.93-4.06l9.9-.52c.06,0,.11-.06.11-.13Z"/>
</svg>