<?xml version="1.0" encoding="UTF-8"?>
<svg id="Calque_1" data-name="Calque 1" xmlns="http://www.w3.org/2000/svg" viewBox="0 0 150 150">
  <defs>
    <style>
      .cls-1 {
        fill: #5a7d80;
      }

      .cls-2 {
        fill: #8fc14d;
      }

      .cls-3 {
        fill: #a0b0b3;
      }

      .cls-4 {
        fill: #75a6c2;
        opacity: .5;
      }

      .cls-5 {
        fill: #2e5159;
      }

      .cls-6 {
        fill: #efda1c;
      }

      .cls-7 {
        fill: #b5d27a;
      }

      .cls-8 {
        fill: #f6b2b0;
      }

      .cls-9 {
        fill: #369649;
      }
    </style>
  </defs>
  <rect class="cls-5" x="103.09" y="57.69" width="14.55" height="39.09" rx="7.28" ry="7.28" transform="translate(244.68 67.04) rotate(140.67)"/>
  <g>
    <path class="cls-5" d="M40.82,142.82h8.58c1.51,0,2.78-1.57,2.97-3.67l1.05-11.3h-16.62s1.04,11.3,1.04,11.3c.19,2.1,1.47,3.67,2.97,3.67"/>
    <path class="cls-5" d="M87.45,142.82h8.58c1.51,0,2.78-1.57,2.97-3.67l1.05-11.3h-16.62s1.04,11.3,1.04,11.3c.19,2.1,1.47,3.67,2.97,3.67"/>
    <path class="cls-1" d="M30.82,127.86h37.69c3.01,0,5.45-2.44,5.45-5.45v-12.92c0-3.01-2.44-8.65-5.45-8.65H24.58s.79,21.56.79,21.56c0,3.01,2.44,5.45,5.45,5.45Z"/>
    <path class="cls-3" d="M57.26,127.86h48.35c2.87,0,5.2-2.33,5.2-5.2l.79-21.81h-56.16s0,25.19,0,25.19c0,1,.81,1.82,1.82,1.82Z"/>
    <path class="cls-5" d="M103.31,104.73h-7.48c-1.54,0-2.79,1.25-2.79,2.79v13.67c0,1.54,1.25,2.79,2.79,2.79h7.48c1.54,0,2.79-1.25,2.79-2.79v-13.67c0-1.54-1.25-2.79-2.79-2.79"/>
    <path class="cls-7" d="M102.9,111.71h0c.66,0,1.2-.54,1.2-1.2s-.54-1.2-1.2-1.2-1.2.54-1.2,1.2.54,1.2,1.2,1.2"/>
    <path class="cls-8" d="M97.19,111.71h0c.66,0,1.2-.54,1.2-1.2s-.54-1.2-1.2-1.2-1.2.54-1.2,1.2.54,1.2,1.2,1.2"/>
    <path class="cls-6" d="M111.6,100.7s0,0,0,0c0,0,0,0,0,0Z"/>
    <g>
      <path class="cls-4" d="M28.6,16.5c.12-4.09,2.96-7.33,6.43-7.33h3.58s25.29,0,25.29,0h34.18s.11,0,.11,0h3.45c3.45,0,6.27,3.24,6.39,7.33l3.4,84.06c0,.1,0,.19,0,.28h-3.56s-52.42,0-52.42,0h-27.28s-3.58,0-3.58,0c0-.09,0-.19,0-.28l4.02-84.06Z"/>
      <path class="cls-2" d="M28.16,100.56l4.02-84.06c.12-4.09,2.96-7.33,6.43-7.33h25.29c-3.46,0-6.31,3.24-6.43,7.33l-2.03,84.06c0,.1,0,.19,0,.28h-27.28c0-.09,0-.19,0-.28Z"/>
      <path class="cls-9" d="M24.58,100.56l4.02-84.06c.12-4.09,2.96-7.33,6.43-7.33h3.58c-3.46,0-6.3,3.24-6.43,7.33l-4.02,84.06c0,.1,0,.19,0,.28h-3.58c0-.09,0-.19,0-.28Z"/>
      <path class="cls-7" d="M55.44,100.56l2.03-84.06c.12-4.09,2.96-7.33,6.43-7.33h34.18s.11,0,.11,0h3.45c3.45,0,6.27,3.24,6.39,7.33l3.4,84.06c0,.1,0,.19,0,.28h-3.56,0s-52.42,0-52.42,0c0-.09,0-.19,0-.28Z"/>
    </g>
    <g>
      <path class="cls-5" d="M65.71,41.95v24.59c0,.47.4.84.87.79,1.39-.12,2.92-.19,4.52-.19,1.6,0,3.13.07,4.52.19.47.04.87-.33.87-.79v-18.1c-.43.2-.92.32-1.44.32-1.89,0-3.43-1.53-3.43-3.43,0-1.89,1.53-3.43,3.43-3.43.51,0,1,.11,1.44.32v-.4c0-3.04-2.52-5.49-5.58-5.38-2.92.1-5.19,2.59-5.19,5.51Z"/>
      <path class="cls-5" d="M90.39,41.95v24.59c0,.47.4.84.87.79,1.39-.12,2.92-.19,4.52-.19s3.13.07,4.52.19c.47.04.87-.33.87-.79v-18.1c-.43.2-.92.32-1.44.32-1.89,0-3.43-1.53-3.43-3.43,0-1.89,1.53-3.43,3.43-3.43.51,0,1,.11,1.44.32v-.4c0-3.04-2.52-5.49-5.58-5.38-2.92.1-5.19,2.59-5.19,5.51Z"/>
    </g>
  </g>
  <rect class="cls-5" x="32.29" y="55.71" width="13.83" height="39.09" rx="6.91" ry="6.91" transform="translate(70.42 154.17) rotate(-174.07)"/>
</svg>