<?xml version="1.0" encoding="UTF-8"?>
<svg id="Calque_1" data-name="Calque 1" xmlns="http://www.w3.org/2000/svg" viewBox="0 0 150 150">
  <defs>
    <style>
      .cls-1 {
        fill: #5a7d80;
      }

      .cls-2 {
        fill: #eb8b8b;
      }

      .cls-3 {
        fill: #01545e;
      }

      .cls-4 {
        fill: #c7c7c6;
        opacity: .5;
      }

      .cls-5 {
        fill: #fed164;
      }

      .cls-6 {
        fill: #a0b0b3;
      }

      .cls-7 {
        fill: #fff;
      }

      .cls-8 {
        fill: #00535d;
      }

      .cls-9 {
        fill: #78ba4c;
      }

      .cls-10 {
        fill: #99c33e;
      }

      .cls-11 {
        fill: #37a491;
      }

      .cls-12 {
        fill: #02555e;
      }
    </style>
  </defs>
  <g>
    <path class="cls-9" d="M84,37.32c-2.81,0-5.62,0-8.43,0,2.75-3.82,3.32-9.35,2.33-13.88-.36-1.68-1.17-3.8-2.22-5.16,1.37,0,2.74,0,4.11,0,.2,0,.41-.11.48-.11.02,0,.17.12.37.12.94,0,2.31-.13,3.18,0,.95.15,2.04,1.89,2.44,2.71,2.36,4.84,1.73,12.48-2.27,16.33Z"/>
    <path class="cls-5" d="M91.99,18.28c1.07,0,2.78-.15,3.77,0,2.44.38,3.66,6.14,3.78,8.15.22,3.67-.66,8.65-3.72,11-.04,0-.07,0-.11,0-.11-.18-.42-.11-.6-.11-2.17-.02-4.34,0-6.51,0,2.55-4.01,3.17-9.14,2.22-13.77-.34-1.64-1.11-3.92-2.11-5.27h3.28Z"/>
    <path class="cls-3" d="M88.71,18.28c1.01,1.35,1.78,3.63,2.11,5.27.95,4.63.32,9.76-2.22,13.77h-4.6c3.99-3.85,4.63-11.49,2.27-16.33-.4-.82-1.48-2.56-2.44-2.71-.87-.13-2.24,0-3.18,0-.2,0-.35-.12-.37-.12,2.1-3.2,6.24-2.82,8.43.11Z"/>
    <path class="cls-12" d="M100.31,37.32c-1.46.02-2.99.11-4.49.11,3.06-2.34,3.94-7.33,3.72-11-.12-2.01-1.34-7.77-3.78-8.15-.98-.15-2.69,0-3.77,0,2.11-3.22,5.86-3.1,8.21-.16,2.56,3.2,3.06,8.52,2.5,12.46-.34,2.42-1.15,4.66-2.39,6.75Z"/>
    <path class="cls-8" d="M51.22,18.28c1.05,1.37,1.86,3.49,2.22,5.16.98,4.53.41,10.06-2.33,13.88-2.69,0-5.41-.06-8.1,0-.04,0-.07,0-.11,0-3.04-4.73-3.57-12.03-1.22-17.15,1.96-4.27,6.29-6.13,9.54-1.9Z"/>
    <path class="cls-2" d="M59.54,37.32c-2.81,0-5.62,0-8.43,0,2.75-3.82,3.32-9.35,2.33-13.88-.36-1.68-1.17-3.8-2.22-5.16,1.37,0,2.74,0,4.11,0,.2,0,.41-.11.48-.11.02,0,.17.12.37.12.94,0,2.31-.13,3.18,0,.95.15,2.04,1.89,2.44,2.71,2.36,4.84,1.73,12.48-2.27,16.33Z"/>
    <path class="cls-11" d="M67.53,18.28c1.07,0,2.78-.15,3.77,0,2.44.38,3.66,6.14,3.78,8.15.22,3.67-.66,8.65-3.72,11-.04,0-.07,0-.11,0-.11-.18-.42-.11-.6-.11-2.17-.02-4.34,0-6.51,0,2.55-4.01,3.17-9.14,2.22-13.77-.34-1.64-1.11-3.92-2.11-5.27h3.28Z"/>
    <path class="cls-3" d="M64.25,18.28c1.01,1.35,1.78,3.63,2.11,5.27.95,4.63.32,9.76-2.22,13.77h-4.6c3.99-3.85,4.63-11.49,2.27-16.33-.4-.82-1.48-2.56-2.44-2.71-.87-.13-2.24,0-3.18,0-.2,0-.35-.12-.37-.12,2.1-3.2,6.24-2.82,8.43.11Z"/>
    <path class="cls-12" d="M75.85,37.32c-1.46.02-2.99.11-4.49.11,3.06-2.34,3.94-7.33,3.72-11-.12-2.01-1.34-7.77-3.78-8.15-.98-.15-2.69,0-3.77,0,2.11-3.22,5.86-3.1,8.21-.16,2.56,3.2,3.06,8.52,2.5,12.46-.34,2.42-1.15,4.66-2.39,6.75Z"/>
    <g>
      <path class="cls-1" d="M67.55,124.37c-2.75.21-26.12.24-28.9.15-4.48-.14-7.6-1.22-10.53-4.73-3.07-3.68-3.15-7.71-2.95-12.32v-58.35c1.41-8.1,6.81-11.65,14.72-11.85.05,0,.1,0,.15,0h27.5v87.09Z"/>
      <path class="cls-1" d="M80.03,37.43c-.16-.26-.59-.15-.85-.16-3.07-.03-6.15,0-9.22,0h-6.51c-1.13,0-2.26,0-3.38,0,6.69.15,13.45.48,19.97.16Z"/>
    </g>
    <rect class="cls-6" x="56.48" y="37.24" width="61.77" height="87.33" rx="6.09" ry="6.09"/>
    <rect class="cls-8" x="55.68" y="54.34" width="65.66" height="51.74" rx="2.93" ry="2.93" transform="translate(168.72 -8.3) rotate(90)"/>
    <g id="IHzMNH">
      <g>
        <path class="cls-8" d="M38.73,74.86c3.24-.02,5.9,1.94,6.17,6.12.42,6.48-.33,13.61,0,20.16-.29,4.22-2.81,6.33-6.17,6.42-3.38.09-5.99-2.62-6.17-6.73.3-6.32-.38-13.13,0-19.38.26-4.24,2.75-6.56,6.17-6.58Z"/>
        <path class="cls-3" d="M104.37,129.75v-5.18h-15.17c0,4.51-1.04,11.69,4.16,13.16,1.64.46,8.87.44,10.75.22,4.76-.55,4.98-7.55.26-8.2Z"/>
        <path class="cls-8" d="M56.56,129.75v-5.18h-14.85c.05,4.55-1.24,11.55,4.02,13.14,1.6.48,8.86.46,10.72.25,4.74-.55,4.84-7.65.1-8.2Z"/>
        <path class="cls-12" d="M118.25,75.09c3.83-.13,6.28,2.74,6.52,6.42.4,6.25-.32,12.93,0,19.23-.22,3.62-2.83,6.39-6.51,6.58v-32.23Z"/>
      </g>
    </g>
    <rect class="cls-10" x="83.03" y="66.3" width="5.92" height="26.13" rx="2.51" ry="2.51"/>
    <rect class="cls-10" x="97.44" y="66.3" width="5.92" height="26.13" rx="2.51" ry="2.51"/>
    <path class="cls-7" d="M111.94,54.58l-.07-1.96c-.04-1.19-1-2.12-2.19-2.12h-23.82c-.13,0-.26.01-.39.03,12.26.51,22.17,2.04,26.47,4.04Z"/>
    <path class="cls-4" d="M50.86,12.43h40.75c6.7,0,12.13,5.44,12.13,12.13v12.67H38.73v-12.67c0-6.7,5.44-12.13,12.13-12.13Z"/>
    <rect class="cls-8" x="38.73" y="29.16" width="21.33" height="8.07"/>
    <rect class="cls-1" x="60.06" y="29.16" width="43.68" height="8.07"/>
    <path class="cls-8" d="M116.94,43.37h-19.64c-.63,0-1.16-.44-1.24-1.04l-1.33-9.88c-.1-.71.48-1.34,1.24-1.34h19.64c.63,0,1.16.44,1.24,1.04l1.33,9.88c.1.71-.48,1.34-1.24,1.34Z"/>
    <path class="cls-1" d="M98.22,42.58c-.2,0-.37-.15-.4-.35l-1.27-9.88c-.02-.16.05-.27.1-.32.04-.05.14-.14.3-.14h18.77c.2,0,.37.15.4.35l1.27,9.88c.02.16-.05.27-.1.32-.04.05-.14.14-.3.14h-18.77Z"/>
  </g>
  <path class="cls-7" d="M102,24.72s-1.73-10.49-10.49-10.49h-41.5c5.79,0,7.31,4.7,7.31,10.49,0,0,.58-5.32-.16-7.92-.18-.64.31-1.27.98-1.27h30.85c5.74,0,10.93,3.54,12.91,8.93.03.09.06.17.09.26Z"/>
</svg>