<?xml version="1.0" encoding="UTF-8"?>
<svg id="Calque_1" data-name="Calque 1" xmlns="http://www.w3.org/2000/svg" viewBox="0 0 150 150">
  <defs>
    <style>
      .cls-1 {
        fill: #bbe3f8;
      }

      .cls-2 {
        fill: #42a9e0;
      }

      .cls-3 {
        fill: #85d0f5;
      }
    </style>
  </defs>
  <path class="cls-1" d="M132.92,84.7c0,36.06-25.47,65.3-56.91,65.3-28.8,0-52.59-24.53-56.38-56.37-.34-2.92-.53-5.9-.53-8.93,0-11.68,2.67-24.66,7.35-36.91,0,0,.01,0,.01-.01,1.77-4.65,3.84-9.19,6.16-13.49,4.89-9.11,10.93-17.22,17.75-23.25C58.06,4.19,66.78,0,76.01,0c31.43,0,56.91,48.64,56.91,84.7Z"/>
  <path class="cls-2" d="M40.93,36.54l-8.73,24.47c-.48,1.35-.45,2.83.08,4.16l4.23,10.58c1.31,3.29,5.21,4.68,8.31,2.96l9.97-5.52c1.25-.69,2.21-1.82,2.69-3.17l8.73-24.47c.48-1.35.45-2.83-.08-4.16l-4.23-10.58c-1.31-3.29-5.21-4.68-8.31-2.96l-9.97,5.52c-1.25.69-2.21,1.82-2.69,3.17Z"/>
  <path class="cls-2" d="M81.71,106.34l-4.24,14.18c-.32,1.06-.08,2.21.62,3.07l7.96,9.64c.86,1.04,2.25,1.46,3.54,1.06l11.94-3.68c1.06-.33,1.89-1.16,2.2-2.22l4.24-14.18c.32-1.06.08-2.21-.62-3.07l-7.96-9.64c-.86-1.04-2.25-1.46-3.54-1.06l-11.94,3.68c-1.06.33-1.89,1.16-2.2,2.22Z"/>
  <path class="cls-3" d="M31.52,118.96l10.07,12.19c.52.63,1.25,1.04,2.06,1.17l7.21,1.11c1.96.3,3.75-1.17,3.83-3.16l.27-7.29c.03-.81-.24-1.61-.76-2.24l-10.07-12.19c-.52-.63-1.25-1.04-2.06-1.17l-7.21-1.11c-1.96-.3-3.75,1.17-3.83,3.16l-.27,7.29c-.03.81.24,1.61.76,2.24Z"/>
  <path class="cls-3" d="M93.15,24.82l7.05,8.53c.52.63,1.25,1.04,2.06,1.17l4.06.63c1.96.3,3.75-1.17,3.83-3.16l.15-4.11c.03-.81-.24-1.61-.76-2.24l-7.05-8.53c-.52-.63-1.25-1.04-2.06-1.17l-4.06-.63c-1.96-.3-3.75,1.17-3.83,3.16l-.15,4.11c-.03.81.24,1.61.76,2.24Z"/>
  <path class="cls-3" d="M92.51,64.12l3.47,14.2c.27,1.11,1.1,2.01,2.19,2.37l12.69,4.18c1.21.4,2.53.07,3.42-.84l9.33-9.56c.8-.82,1.12-2,.85-3.11l-3.47-14.2c-.27-1.11-1.1-2.01-2.19-2.37l-12.69-4.18c-1.21-.4-2.53-.07-3.42.84l-9.33,9.56c-.8.82-1.12,2-.85,3.11Z"/>
</svg>